<svg width="375" height="667" viewBox="0 0 375 667" fill="none" xmlns="http://www.w3.org/2000/svg">
<g clip-path="url(#clip0_1415_24738)">
<rect width="375" height="667" fill="white"/>
<rect x="21" y="288" width="333" height="70" rx="1" fill="white" fill-opacity="0.8" stroke="#839672" stroke-width="2"/>
<rect x="21" y="370" width="333" height="70" rx="1" fill="white" fill-opacity="0.8" stroke="#839672" stroke-width="2"/>
<rect x="21" y="452" width="333" height="70" rx="1" fill="white" fill-opacity="0.8" stroke="#839672" stroke-width="2"/>
<path d="M52.94 316.436V329H50.42V320.828L47.054 329H45.146L41.762 320.828V329H39.242V316.436H42.104L46.1 325.778L50.096 316.436H52.94ZM59.8595 329.162C58.8995 329.162 58.0355 328.952 57.2675 328.532C56.4995 328.1 55.8935 327.494 55.4495 326.714C55.0175 325.934 54.8015 325.034 54.8015 324.014C54.8015 322.994 55.0235 322.094 55.4675 321.314C55.9235 320.534 56.5415 319.934 57.3215 319.514C58.1015 319.082 58.9715 318.866 59.9315 318.866C60.8915 318.866 61.7615 319.082 62.5415 319.514C63.3215 319.934 63.9335 320.534 64.3775 321.314C64.8335 322.094 65.0615 322.994 65.0615 324.014C65.0615 325.034 64.8275 325.934 64.3595 326.714C63.9035 327.494 63.2795 328.1 62.4875 328.532C61.7075 328.952 60.8315 329.162 59.8595 329.162ZM59.8595 326.966C60.3155 326.966 60.7415 326.858 61.1375 326.642C61.5455 326.414 61.8695 326.078 62.1095 325.634C62.3495 325.19 62.4695 324.65 62.4695 324.014C62.4695 323.066 62.2175 322.34 61.7135 321.836C61.2215 321.32 60.6155 321.062 59.8955 321.062C59.1755 321.062 58.5695 321.32 58.0775 321.836C57.5975 322.34 57.3575 323.066 57.3575 324.014C57.3575 324.962 57.5915 325.694 58.0595 326.21C58.5395 326.714 59.1395 326.966 59.8595 326.966ZM71.338 329.162C70.378 329.162 69.514 328.952 68.746 328.532C67.978 328.1 67.372 327.494 66.928 326.714C66.496 325.934 66.28 325.034 66.28 324.014C66.28 322.994 66.502 322.094 66.946 321.314C67.402 320.534 68.02 319.934 68.8 319.514C69.58 319.082 70.45 318.866 71.41 318.866C72.37 318.866 73.24 319.082 74.02 319.514C74.8 319.934 75.412 320.534 75.856 321.314C76.312 322.094 76.54 322.994 76.54 324.014C76.54 325.034 76.306 325.934 75.838 326.714C75.382 327.494 74.758 328.1 73.966 328.532C73.186 328.952 72.31 329.162 71.338 329.162ZM71.338 326.966C71.794 326.966 72.22 326.858 72.616 326.642C73.024 326.414 73.348 326.078 73.588 325.634C73.828 325.19 73.948 324.65 73.948 324.014C73.948 323.066 73.696 322.34 73.192 321.836C72.7 321.32 72.094 321.062 71.374 321.062C70.654 321.062 70.048 321.32 69.556 321.836C69.076 322.34 68.836 323.066 68.836 324.014C68.836 324.962 69.07 325.694 69.538 326.21C70.018 326.714 70.618 326.966 71.338 326.966ZM77.7405 323.978C77.7405 322.97 77.9385 322.076 78.3345 321.296C78.7425 320.516 79.2945 319.916 79.9905 319.496C80.6865 319.076 81.4605 318.866 82.3125 318.866C82.9605 318.866 83.5785 319.01 84.1665 319.298C84.7545 319.574 85.2225 319.946 85.5705 320.414V315.68H88.1265V329H85.5705V327.524C85.2585 328.016 84.8205 328.412 84.2565 328.712C83.6925 329.012 83.0385 329.162 82.2945 329.162C81.4545 329.162 80.6865 328.946 79.9905 328.514C79.2945 328.082 78.7425 327.476 78.3345 326.696C77.9385 325.904 77.7405 324.998 77.7405 323.978ZM85.5885 324.014C85.5885 323.402 85.4685 322.88 85.2285 322.448C84.9885 322.004 84.6645 321.668 84.2565 321.44C83.8485 321.2 83.4105 321.08 82.9425 321.08C82.4745 321.08 82.0425 321.194 81.6465 321.422C81.2505 321.65 80.9265 321.986 80.6745 322.43C80.4345 322.862 80.3145 323.378 80.3145 323.978C80.3145 324.578 80.4345 325.106 80.6745 325.562C80.9265 326.006 81.2505 326.348 81.6465 326.588C82.0545 326.828 82.4865 326.948 82.9425 326.948C83.4105 326.948 83.8485 326.834 84.2565 326.606C84.6645 326.366 84.9885 326.03 85.2285 325.598C85.4685 325.154 85.5885 324.626 85.5885 324.014Z" fill="#242424"/>
<path d="M56.036 398.436L52.526 411H49.556L47.198 402.054L44.732 411L41.78 411.018L38.396 398.436H41.096L43.31 408.192L45.866 398.436H48.674L51.086 408.138L53.318 398.436H56.036ZM57.0335 405.978C57.0335 404.97 57.2315 404.076 57.6275 403.296C58.0355 402.516 58.5815 401.916 59.2655 401.496C59.9615 401.076 60.7355 400.866 61.5875 400.866C62.3315 400.866 62.9795 401.016 63.5315 401.316C64.0955 401.616 64.5455 401.994 64.8815 402.45V401.028H67.4195V411H64.8815V409.542C64.5575 410.01 64.1075 410.4 63.5315 410.712C62.9675 411.012 62.3135 411.162 61.5695 411.162C60.7295 411.162 59.9615 410.946 59.2655 410.514C58.5815 410.082 58.0355 409.476 57.6275 408.696C57.2315 407.904 57.0335 406.998 57.0335 405.978ZM64.8815 406.014C64.8815 405.402 64.7615 404.88 64.5215 404.448C64.2815 404.004 63.9575 403.668 63.5495 403.44C63.1415 403.2 62.7035 403.08 62.2355 403.08C61.7675 403.08 61.3355 403.194 60.9395 403.422C60.5435 403.65 60.2195 403.986 59.9675 404.43C59.7275 404.862 59.6075 405.378 59.6075 405.978C59.6075 406.578 59.7275 407.106 59.9675 407.562C60.2195 408.006 60.5435 408.348 60.9395 408.588C61.3475 408.828 61.7795 408.948 62.2355 408.948C62.7035 408.948 63.1415 408.834 63.5495 408.606C63.9575 408.366 64.2815 408.03 64.5215 407.598C64.7615 407.154 64.8815 406.626 64.8815 406.014ZM72.8147 403.098V407.922C72.8147 408.258 72.8927 408.504 73.0487 408.66C73.2167 408.804 73.4927 408.876 73.8767 408.876H75.0467V411H73.4627C71.3387 411 70.2767 409.968 70.2767 407.904V403.098H69.0887V401.028H70.2767V398.562H72.8147V401.028H75.0467V403.098H72.8147ZM86.1292 405.798C86.1292 406.158 86.1052 406.482 86.0572 406.77H78.7672C78.8272 407.49 79.0792 408.054 79.5232 408.462C79.9672 408.87 80.5132 409.074 81.1612 409.074C82.0972 409.074 82.7632 408.672 83.1592 407.868H85.8772C85.5892 408.828 85.0372 409.62 84.2212 410.244C83.4052 410.856 82.4032 411.162 81.2152 411.162C80.2552 411.162 79.3912 410.952 78.6232 410.532C77.8672 410.1 77.2732 409.494 76.8412 408.714C76.4212 407.934 76.2112 407.034 76.2112 406.014C76.2112 404.982 76.4212 404.076 76.8412 403.296C77.2612 402.516 77.8492 401.916 78.6052 401.496C79.3612 401.076 80.2312 400.866 81.2152 400.866C82.1632 400.866 83.0092 401.07 83.7532 401.478C84.5092 401.886 85.0912 402.468 85.4992 403.224C85.9192 403.968 86.1292 404.826 86.1292 405.798ZM83.5192 405.078C83.5072 404.43 83.2732 403.914 82.8172 403.53C82.3612 403.134 81.8032 402.936 81.1432 402.936C80.5192 402.936 79.9912 403.128 79.5592 403.512C79.1392 403.884 78.8812 404.406 78.7852 405.078H83.5192ZM90.4886 402.576C90.8126 402.048 91.2326 401.634 91.7486 401.334C92.2766 401.034 92.8766 400.884 93.5486 400.884V403.53H92.8826C92.0906 403.53 91.4906 403.716 91.0826 404.088C90.6866 404.46 90.4886 405.108 90.4886 406.032V411H87.9686V401.028H90.4886V402.576Z" fill="#242424"/>
<path d="M41.762 482.47V485.62H45.992V487.618H41.762V490.948H46.532V493H39.242V480.418H46.532V482.47H41.762ZM54.3301 493L52.2781 489.904L50.4601 493H47.7601L51.0181 487.996L47.7241 483.028H50.5681L52.6021 486.106L54.4381 483.028H57.1381L53.8621 487.996L57.1741 493H54.3301ZM67.8128 487.798C67.8128 488.158 67.7888 488.482 67.7408 488.77H60.4508C60.5108 489.49 60.7628 490.054 61.2068 490.462C61.6508 490.87 62.1968 491.074 62.8448 491.074C63.7808 491.074 64.4468 490.672 64.8428 489.868H67.5608C67.2728 490.828 66.7208 491.62 65.9048 492.244C65.0888 492.856 64.0868 493.162 62.8988 493.162C61.9388 493.162 61.0748 492.952 60.3068 492.532C59.5508 492.1 58.9568 491.494 58.5248 490.714C58.1048 489.934 57.8948 489.034 57.8948 488.014C57.8948 486.982 58.1048 486.076 58.5248 485.296C58.9448 484.516 59.5328 483.916 60.2888 483.496C61.0448 483.076 61.9148 482.866 62.8988 482.866C63.8468 482.866 64.6928 483.07 65.4368 483.478C66.1928 483.886 66.7748 484.468 67.1828 485.224C67.6028 485.968 67.8128 486.826 67.8128 487.798ZM65.2028 487.078C65.1908 486.43 64.9568 485.914 64.5008 485.53C64.0448 485.134 63.4868 484.936 62.8268 484.936C62.2028 484.936 61.6748 485.128 61.2428 485.512C60.8228 485.884 60.5648 486.406 60.4688 487.078H65.2028ZM72.1722 484.576C72.4962 484.048 72.9162 483.634 73.4322 483.334C73.9602 483.034 74.5602 482.884 75.2322 482.884V485.53H74.5662C73.7742 485.53 73.1742 485.716 72.7662 486.088C72.3702 486.46 72.1722 487.108 72.1722 488.032V493H69.6522V483.028H72.1722V484.576ZM76.2815 488.014C76.2815 486.982 76.4915 486.082 76.9115 485.314C77.3315 484.534 77.9135 483.934 78.6575 483.514C79.4015 483.082 80.2535 482.866 81.2135 482.866C82.4495 482.866 83.4695 483.178 84.2735 483.802C85.0895 484.414 85.6355 485.278 85.9115 486.394H83.1935C83.0495 485.962 82.8035 485.626 82.4555 485.386C82.1195 485.134 81.6995 485.008 81.1955 485.008C80.4755 485.008 79.9055 485.272 79.4855 485.8C79.0655 486.316 78.8555 487.054 78.8555 488.014C78.8555 488.962 79.0655 489.7 79.4855 490.228C79.9055 490.744 80.4755 491.002 81.1955 491.002C82.2155 491.002 82.8815 490.546 83.1935 489.634H85.9115C85.6355 490.714 85.0895 491.572 84.2735 492.208C83.4575 492.844 82.4375 493.162 81.2135 493.162C80.2535 493.162 79.4015 492.952 78.6575 492.532C77.9135 492.1 77.3315 491.5 76.9115 490.732C76.4915 489.952 76.2815 489.046 76.2815 488.014ZM89.0356 481.84C88.5916 481.84 88.2196 481.702 87.9196 481.426C87.6316 481.138 87.4876 480.784 87.4876 480.364C87.4876 479.944 87.6316 479.596 87.9196 479.32C88.2196 479.032 88.5916 478.888 89.0356 478.888C89.4796 478.888 89.8456 479.032 90.1336 479.32C90.4336 479.596 90.5836 479.944 90.5836 480.364C90.5836 480.784 90.4336 481.138 90.1336 481.426C89.8456 481.702 89.4796 481.84 89.0356 481.84ZM90.2776 483.028V493H87.7576V483.028H90.2776ZM96.5834 493.162C95.7674 493.162 95.0354 493.018 94.3874 492.73C93.7394 492.43 93.2234 492.028 92.8394 491.524C92.4674 491.02 92.2634 490.462 92.2274 489.85H94.7654C94.8134 490.234 94.9994 490.552 95.3234 490.804C95.6594 491.056 96.0734 491.182 96.5654 491.182C97.0454 491.182 97.4174 491.086 97.6814 490.894C97.9574 490.702 98.0954 490.456 98.0954 490.156C98.0954 489.832 97.9274 489.592 97.5914 489.436C97.2674 489.268 96.7454 489.088 96.0254 488.896C95.2814 488.716 94.6694 488.53 94.1894 488.338C93.7214 488.146 93.3134 487.852 92.9654 487.456C92.6294 487.06 92.4614 486.526 92.4614 485.854C92.4614 485.302 92.6174 484.798 92.9294 484.342C93.2534 483.886 93.7094 483.526 94.2974 483.262C94.8974 482.998 95.5994 482.866 96.4034 482.866C97.5914 482.866 98.5394 483.166 99.2474 483.766C99.9554 484.354 100.345 485.152 100.417 486.16H98.0054C97.9694 485.764 97.8014 485.452 97.5014 485.224C97.2134 484.984 96.8234 484.864 96.3314 484.864C95.8754 484.864 95.5214 484.948 95.2694 485.116C95.0294 485.284 94.9094 485.518 94.9094 485.818C94.9094 486.154 95.0774 486.412 95.4134 486.592C95.7494 486.76 96.2714 486.934 96.9794 487.114C97.6994 487.294 98.2934 487.48 98.7614 487.672C99.2294 487.864 99.6314 488.164 99.9674 488.572C100.315 488.968 100.495 489.496 100.507 490.156C100.507 490.732 100.345 491.248 100.021 491.704C99.7094 492.16 99.2534 492.52 98.6534 492.784C98.0654 493.036 97.3754 493.162 96.5834 493.162ZM111.846 487.798C111.846 488.158 111.822 488.482 111.774 488.77H104.484C104.544 489.49 104.796 490.054 105.24 490.462C105.684 490.87 106.23 491.074 106.878 491.074C107.814 491.074 108.48 490.672 108.876 489.868H111.594C111.306 490.828 110.754 491.62 109.938 492.244C109.122 492.856 108.12 493.162 106.932 493.162C105.972 493.162 105.108 492.952 104.34 492.532C103.584 492.1 102.99 491.494 102.558 490.714C102.138 489.934 101.928 489.034 101.928 488.014C101.928 486.982 102.138 486.076 102.558 485.296C102.978 484.516 103.566 483.916 104.322 483.496C105.078 483.076 105.948 482.866 106.932 482.866C107.88 482.866 108.726 483.07 109.47 483.478C110.226 483.886 110.808 484.468 111.216 485.224C111.636 485.968 111.846 486.826 111.846 487.798ZM109.236 487.078C109.224 486.43 108.99 485.914 108.534 485.53C108.078 485.134 107.52 484.936 106.86 484.936C106.236 484.936 105.708 485.128 105.276 485.512C104.856 485.884 104.598 486.406 104.502 487.078H109.236Z" fill="#242424"/>
<path d="M326.136 322.268C326.136 320.192 326.508 318.566 327.252 317.39C328.008 316.214 329.256 315.626 330.996 315.626C332.736 315.626 333.978 316.214 334.722 317.39C335.478 318.566 335.856 320.192 335.856 322.268C335.856 324.356 335.478 325.994 334.722 327.182C333.978 328.37 332.736 328.964 330.996 328.964C329.256 328.964 328.008 328.37 327.252 327.182C326.508 325.994 326.136 324.356 326.136 322.268ZM333.372 322.268C333.372 321.38 333.312 320.636 333.192 320.036C333.084 319.424 332.856 318.926 332.508 318.542C332.172 318.158 331.668 317.966 330.996 317.966C330.324 317.966 329.814 318.158 329.466 318.542C329.13 318.926 328.902 319.424 328.782 320.036C328.674 320.636 328.62 321.38 328.62 322.268C328.62 323.18 328.674 323.948 328.782 324.572C328.89 325.184 329.118 325.682 329.466 326.066C329.814 326.438 330.324 326.624 330.996 326.624C331.668 326.624 332.178 326.438 332.526 326.066C332.874 325.682 333.102 325.184 333.21 324.572C333.318 323.948 333.372 323.18 333.372 322.268Z" fill="#242424"/>
<path d="M326.136 404.268C326.136 402.192 326.508 400.566 327.252 399.39C328.008 398.214 329.256 397.626 330.996 397.626C332.736 397.626 333.978 398.214 334.722 399.39C335.478 400.566 335.856 402.192 335.856 404.268C335.856 406.356 335.478 407.994 334.722 409.182C333.978 410.37 332.736 410.964 330.996 410.964C329.256 410.964 328.008 410.37 327.252 409.182C326.508 407.994 326.136 406.356 326.136 404.268ZM333.372 404.268C333.372 403.38 333.312 402.636 333.192 402.036C333.084 401.424 332.856 400.926 332.508 400.542C332.172 400.158 331.668 399.966 330.996 399.966C330.324 399.966 329.814 400.158 329.466 400.542C329.13 400.926 328.902 401.424 328.782 402.036C328.674 402.636 328.62 403.38 328.62 404.268C328.62 405.18 328.674 405.948 328.782 406.572C328.89 407.184 329.118 407.682 329.466 408.066C329.814 408.438 330.324 408.624 330.996 408.624C331.668 408.624 332.178 408.438 332.526 408.066C332.874 407.682 333.102 407.184 333.21 406.572C333.318 405.948 333.372 405.18 333.372 404.268Z" fill="#242424"/>
<path d="M326.136 486.268C326.136 484.192 326.508 482.566 327.252 481.39C328.008 480.214 329.256 479.626 330.996 479.626C332.736 479.626 333.978 480.214 334.722 481.39C335.478 482.566 335.856 484.192 335.856 486.268C335.856 488.356 335.478 489.994 334.722 491.182C333.978 492.37 332.736 492.964 330.996 492.964C329.256 492.964 328.008 492.37 327.252 491.182C326.508 489.994 326.136 488.356 326.136 486.268ZM333.372 486.268C333.372 485.38 333.312 484.636 333.192 484.036C333.084 483.424 332.856 482.926 332.508 482.542C332.172 482.158 331.668 481.966 330.996 481.966C330.324 481.966 329.814 482.158 329.466 482.542C329.13 482.926 328.902 483.424 328.782 484.036C328.674 484.636 328.62 485.38 328.62 486.268C328.62 487.18 328.674 487.948 328.782 488.572C328.89 489.184 329.118 489.682 329.466 490.066C329.814 490.438 330.324 490.624 330.996 490.624C331.668 490.624 332.178 490.438 332.526 490.066C332.874 489.682 333.102 489.184 333.21 488.572C333.318 487.948 333.372 487.18 333.372 486.268Z" fill="#242424"/>
<circle cx="28" cy="217" r="28" stroke="#BABABA" stroke-width="4"/>
<path d="M28.2189 213.14C27.2855 213.14 26.4455 212.98 25.6989 212.66C24.9522 212.327 24.3655 211.86 23.9389 211.26C23.5122 210.66 23.2989 209.96 23.2989 209.16H25.7389C25.7922 209.76 26.0255 210.253 26.4389 210.64C26.8655 211.027 27.4589 211.22 28.2189 211.22C29.0055 211.22 29.6189 211.033 30.0589 210.66C30.4989 210.273 30.7189 209.78 30.7189 209.18C30.7189 208.713 30.5789 208.333 30.2989 208.04C30.0322 207.747 29.6922 207.52 29.2789 207.36C28.8789 207.2 28.3189 207.027 27.5989 206.84C26.6922 206.6 25.9522 206.36 25.3789 206.12C24.8189 205.867 24.3389 205.48 23.9389 204.96C23.5389 204.44 23.3389 203.747 23.3389 202.88C23.3389 202.08 23.5389 201.38 23.9389 200.78C24.3389 200.18 24.8989 199.72 25.6189 199.4C26.3389 199.08 27.1722 198.92 28.1189 198.92C29.4655 198.92 30.5655 199.26 31.4189 199.94C32.2855 200.607 32.7655 201.527 32.8589 202.7H30.3389C30.2989 202.193 30.0589 201.76 29.6189 201.4C29.1789 201.04 28.5989 200.86 27.8789 200.86C27.2255 200.86 26.6922 201.027 26.2789 201.36C25.8655 201.693 25.6589 202.173 25.6589 202.8C25.6589 203.227 25.7855 203.58 26.0389 203.86C26.3055 204.127 26.6389 204.34 27.0389 204.5C27.4389 204.66 27.9855 204.833 28.6789 205.02C29.5989 205.273 30.3455 205.527 30.9189 205.78C31.5055 206.033 31.9989 206.427 32.3989 206.96C32.8122 207.48 33.0189 208.18 33.0189 209.06C33.0189 209.767 32.8255 210.433 32.4389 211.06C32.0655 211.687 31.5122 212.193 30.7789 212.58C30.0589 212.953 29.2055 213.14 28.2189 213.14ZM19.2668 229.9C20.5468 228.793 21.5535 227.887 22.2868 227.18C23.0335 226.46 23.6535 225.713 24.1468 224.94C24.6402 224.167 24.8868 223.393 24.8868 222.62C24.8868 221.82 24.6935 221.193 24.3068 220.74C23.9335 220.287 23.3402 220.06 22.5268 220.06C21.7402 220.06 21.1268 220.313 20.6868 220.82C20.2602 221.313 20.0335 221.98 20.0068 222.82H17.8068C17.8468 221.3 18.3002 220.14 19.1668 219.34C20.0468 218.527 21.1602 218.12 22.5068 218.12C23.9602 218.12 25.0935 218.52 25.9068 219.32C26.7335 220.12 27.1468 221.187 27.1468 222.52C27.1468 223.48 26.9002 224.407 26.4068 225.3C25.9268 226.18 25.3468 226.973 24.6668 227.68C24.0002 228.373 23.1468 229.18 22.1068 230.1L21.2068 230.9H27.5468V232.8H17.8268V231.14L19.2668 229.9ZM38.7898 220.18L33.2298 233H30.9298L36.5498 220.42H29.1498V218.48H38.7898V220.18Z" fill="#242424"/>
<circle cx="108" cy="217" r="28" stroke="#BABABA" stroke-width="4"/>
<path d="M115.257 199.1V213H112.977V203.48L108.737 213H107.157L102.897 203.48V213H100.617V199.1H103.077L107.957 210L112.817 199.1H115.257ZM98.2465 229.9C99.5265 228.793 100.533 227.887 101.266 227.18C102.013 226.46 102.633 225.713 103.126 224.94C103.62 224.167 103.866 223.393 103.866 222.62C103.866 221.82 103.673 221.193 103.286 220.74C102.913 220.287 102.32 220.06 101.506 220.06C100.72 220.06 100.106 220.313 99.6665 220.82C99.2398 221.313 99.0131 221.98 98.9865 222.82H96.7865C96.8265 221.3 97.2798 220.14 98.1465 219.34C99.0265 218.527 100.14 218.12 101.486 218.12C102.94 218.12 104.073 218.52 104.886 219.32C105.713 220.12 106.126 221.187 106.126 222.52C106.126 223.48 105.88 224.407 105.386 225.3C104.906 226.18 104.326 226.973 103.646 227.68C102.98 228.373 102.126 229.18 101.086 230.1L100.186 230.9H106.526V232.8H96.8065V231.14L98.2465 229.9ZM110.989 225.38C109.603 224.687 108.909 223.593 108.909 222.1C108.909 221.38 109.089 220.72 109.449 220.12C109.809 219.52 110.349 219.047 111.069 218.7C111.789 218.34 112.669 218.16 113.709 218.16C114.736 218.16 115.609 218.34 116.329 218.7C117.063 219.047 117.609 219.52 117.969 220.12C118.329 220.72 118.509 221.38 118.509 222.1C118.509 222.847 118.316 223.507 117.929 224.08C117.556 224.64 117.056 225.073 116.429 225.38C117.189 225.66 117.789 226.12 118.229 226.76C118.669 227.387 118.889 228.127 118.889 228.98C118.889 229.847 118.669 230.613 118.229 231.28C117.789 231.947 117.176 232.46 116.389 232.82C115.603 233.18 114.709 233.36 113.709 233.36C112.709 233.36 111.816 233.18 111.029 232.82C110.256 232.46 109.649 231.947 109.209 231.28C108.769 230.613 108.549 229.847 108.549 228.98C108.549 228.113 108.769 227.367 109.209 226.74C109.649 226.113 110.243 225.66 110.989 225.38ZM116.329 222.38C116.329 221.633 116.096 221.06 115.629 220.66C115.163 220.26 114.523 220.06 113.709 220.06C112.909 220.06 112.276 220.26 111.809 220.66C111.343 221.06 111.109 221.64 111.109 222.4C111.109 223.067 111.349 223.613 111.829 224.04C112.323 224.453 112.949 224.66 113.709 224.66C114.469 224.66 115.096 224.447 115.589 224.02C116.083 223.593 116.329 223.047 116.329 222.38ZM113.709 226.38C112.829 226.38 112.109 226.6 111.549 227.04C111.003 227.467 110.729 228.087 110.729 228.9C110.729 229.66 110.996 230.28 111.529 230.76C112.063 231.227 112.789 231.46 113.709 231.46C114.616 231.46 115.329 231.22 115.849 230.74C116.383 230.26 116.649 229.647 116.649 228.9C116.649 228.1 116.376 227.48 115.829 227.04C115.296 226.6 114.589 226.38 113.709 226.38Z" fill="#242424"/>
<circle cx="188.218" cy="217" r="28" stroke="#BABABA" stroke-width="4"/>
<mask id="path-17-inside-1_1415_24738" fill="white">
<path d="M179.911 245.889C182.508 246.616 185.191 246.99 187.888 247L187.903 243.002C185.566 242.994 183.24 242.67 180.989 242.039L179.911 245.889Z"/>
</mask>
<path d="M179.911 245.889C182.508 246.616 185.191 246.99 187.888 247L187.903 243.002C185.566 242.994 183.24 242.67 180.989 242.039L179.911 245.889Z" stroke="#729692" stroke-width="4" mask="url(#path-17-inside-1_1415_24738)"/>
<circle cx="188.435" cy="253.957" r="3.04348" fill="#242424"/>
<path d="M193.584 198.96V201.7H189.864V213H186.444V201.7H182.724V198.96H193.584ZM178.769 225.5C178.769 223.207 179.209 221.4 180.089 220.08C180.983 218.76 182.416 218.1 184.389 218.1C186.363 218.1 187.789 218.76 188.669 220.08C189.563 221.4 190.009 223.207 190.009 225.5C190.009 227.82 189.563 229.64 188.669 230.96C187.789 232.28 186.363 232.94 184.389 232.94C182.416 232.94 180.983 232.28 180.089 230.96C179.209 229.64 178.769 227.82 178.769 225.5ZM186.649 225.5C186.649 224.153 186.503 223.12 186.209 222.4C185.916 221.667 185.309 221.3 184.389 221.3C183.469 221.3 182.863 221.667 182.569 222.4C182.276 223.12 182.129 224.153 182.129 225.5C182.129 226.407 182.183 227.16 182.289 227.76C182.396 228.347 182.609 228.827 182.929 229.2C183.263 229.56 183.749 229.74 184.389 229.74C185.029 229.74 185.509 229.56 185.829 229.2C186.163 228.827 186.383 228.347 186.489 227.76C186.596 227.16 186.649 226.407 186.649 225.5ZM191.456 221.58V218.4H196.996V233H193.436V221.58H191.456Z" fill="#242424"/>
<circle cx="269" cy="217" r="28" stroke="#BABABA" stroke-width="4"/>
<path d="M278.305 199.1L274.185 213H271.605L268.685 202.48L265.585 213L263.025 213.02L259.085 199.1H261.505L264.385 210.42L267.505 199.1H270.065L272.965 210.36L275.865 199.1H278.305ZM257.718 225.52C257.718 223.213 258.104 221.413 258.878 220.12C259.664 218.813 261.011 218.16 262.918 218.16C264.824 218.16 266.164 218.813 266.938 220.12C267.724 221.413 268.118 223.213 268.118 225.52C268.118 227.853 267.724 229.68 266.938 231C266.164 232.307 264.824 232.96 262.918 232.96C261.011 232.96 259.664 232.307 258.878 231C258.104 229.68 257.718 227.853 257.718 225.52ZM265.878 225.52C265.878 224.44 265.804 223.527 265.658 222.78C265.524 222.033 265.244 221.427 264.818 220.96C264.391 220.48 263.758 220.24 262.918 220.24C262.078 220.24 261.444 220.48 261.018 220.96C260.591 221.427 260.304 222.033 260.158 222.78C260.024 223.527 259.958 224.44 259.958 225.52C259.958 226.64 260.024 227.58 260.158 228.34C260.291 229.1 260.571 229.713 260.998 230.18C261.438 230.647 262.078 230.88 262.918 230.88C263.758 230.88 264.391 230.647 264.818 230.18C265.258 229.713 265.544 229.1 265.678 228.34C265.811 227.58 265.878 226.64 265.878 225.52ZM271.79 229.9C273.07 228.793 274.077 227.887 274.81 227.18C275.557 226.46 276.177 225.713 276.67 224.94C277.164 224.167 277.41 223.393 277.41 222.62C277.41 221.82 277.217 221.193 276.83 220.74C276.457 220.287 275.864 220.06 275.05 220.06C274.264 220.06 273.65 220.313 273.21 220.82C272.784 221.313 272.557 221.98 272.53 222.82H270.33C270.37 221.3 270.824 220.14 271.69 219.34C272.57 218.527 273.684 218.12 275.03 218.12C276.484 218.12 277.617 218.52 278.43 219.32C279.257 220.12 279.67 221.187 279.67 222.52C279.67 223.48 279.424 224.407 278.93 225.3C278.45 226.18 277.87 226.973 277.19 227.68C276.524 228.373 275.67 229.18 274.63 230.1L273.73 230.9H280.07V232.8H270.35V231.14L271.79 229.9Z" fill="#242424"/>
<circle cx="349" cy="217" r="28" stroke="#BABABA" stroke-width="4"/>
<path d="M353.336 199.1V200.96H349.636V213H347.356V200.96H343.636V199.1H353.336ZM337.357 225.52C337.357 223.213 337.743 221.413 338.517 220.12C339.303 218.813 340.65 218.16 342.557 218.16C344.463 218.16 345.803 218.813 346.577 220.12C347.363 221.413 347.757 223.213 347.757 225.52C347.757 227.853 347.363 229.68 346.577 231C345.803 232.307 344.463 232.96 342.557 232.96C340.65 232.96 339.303 232.307 338.517 231C337.743 229.68 337.357 227.853 337.357 225.52ZM345.517 225.52C345.517 224.44 345.443 223.527 345.297 222.78C345.163 222.033 344.883 221.427 344.457 220.96C344.03 220.48 343.397 220.24 342.557 220.24C341.717 220.24 341.083 220.48 340.657 220.96C340.23 221.427 339.943 222.033 339.797 222.78C339.663 223.527 339.597 224.44 339.597 225.52C339.597 226.64 339.663 227.58 339.797 228.34C339.93 229.1 340.21 229.713 340.637 230.18C341.077 230.647 341.717 230.88 342.557 230.88C343.397 230.88 344.03 230.647 344.457 230.18C344.897 229.713 345.183 229.1 345.317 228.34C345.45 227.58 345.517 226.64 345.517 225.52ZM350.129 222.02C350.209 220.78 350.682 219.813 351.549 219.12C352.429 218.427 353.549 218.08 354.909 218.08C355.842 218.08 356.649 218.247 357.329 218.58C358.009 218.913 358.522 219.367 358.869 219.94C359.216 220.513 359.389 221.16 359.389 221.88C359.389 222.707 359.169 223.413 358.729 224C358.289 224.587 357.762 224.98 357.149 225.18V225.26C357.936 225.5 358.549 225.94 358.989 226.58C359.429 227.207 359.649 228.013 359.649 229C359.649 229.787 359.469 230.487 359.109 231.1C358.749 231.713 358.216 232.2 357.509 232.56C356.802 232.907 355.956 233.08 354.969 233.08C353.529 233.08 352.342 232.713 351.409 231.98C350.489 231.233 349.996 230.167 349.929 228.78H352.129C352.182 229.487 352.456 230.067 352.949 230.52C353.442 230.96 354.109 231.18 354.949 231.18C355.762 231.18 356.389 230.96 356.829 230.52C357.269 230.067 357.489 229.487 357.489 228.78C357.489 227.847 357.189 227.187 356.589 226.8C356.002 226.4 355.096 226.2 353.869 226.2H353.349V224.32H353.889C354.969 224.307 355.789 224.127 356.349 223.78C356.922 223.433 357.209 222.887 357.209 222.14C357.209 221.5 357.002 220.993 356.589 220.62C356.176 220.233 355.589 220.04 354.829 220.04C354.082 220.04 353.502 220.233 353.089 220.62C352.676 220.993 352.429 221.46 352.349 222.02H350.129Z" fill="#242424"/>
<path d="M32.544 154.928V166H31.088V157.744L27.408 166H26.384L22.688 157.728V166H21.232V154.928H22.8L26.896 164.08L30.992 154.928H32.544ZM34.4693 161.584C34.4693 160.688 34.6506 159.904 35.0133 159.232C35.3759 158.549 35.8719 158.021 36.5013 157.648C37.1413 157.275 37.8506 157.088 38.6293 157.088C39.3973 157.088 40.0639 157.253 40.6293 157.584C41.1946 157.915 41.6159 158.331 41.8933 158.832V157.232H43.3653V166H41.8933V164.368C41.6053 164.88 41.1733 165.307 40.5973 165.648C40.0319 165.979 39.3706 166.144 38.6133 166.144C37.8346 166.144 37.1306 165.952 36.5013 165.568C35.8719 165.184 35.3759 164.645 35.0133 163.952C34.6506 163.259 34.4693 162.469 34.4693 161.584ZM41.8933 161.6C41.8933 160.939 41.7599 160.363 41.4933 159.872C41.2266 159.381 40.8639 159.008 40.4053 158.752C39.9573 158.485 39.4613 158.352 38.9173 158.352C38.3733 158.352 37.8773 158.48 37.4293 158.736C36.9813 158.992 36.6239 159.365 36.3573 159.856C36.0906 160.347 35.9573 160.923 35.9573 161.584C35.9573 162.256 36.0906 162.843 36.3573 163.344C36.6239 163.835 36.9813 164.213 37.4293 164.48C37.8773 164.736 38.3733 164.864 38.9173 164.864C39.4613 164.864 39.9573 164.736 40.4053 164.48C40.8639 164.213 41.2266 163.835 41.4933 163.344C41.7599 162.843 41.8933 162.261 41.8933 161.6ZM47.2818 158.656C47.5378 158.155 47.9004 157.765 48.3698 157.488C48.8498 157.211 49.4311 157.072 50.1138 157.072V158.576H49.7298C48.0978 158.576 47.2818 159.461 47.2818 161.232V166H45.8258V157.232H47.2818V158.656ZM51.2505 161.6C51.2505 160.693 51.4318 159.904 51.7945 159.232C52.1572 158.549 52.6585 158.021 53.2985 157.648C53.9492 157.275 54.6905 157.088 55.5225 157.088C56.5998 157.088 57.4852 157.349 58.1785 157.872C58.8825 158.395 59.3465 159.12 59.5705 160.048H58.0025C57.8532 159.515 57.5598 159.093 57.1225 158.784C56.6958 158.475 56.1625 158.32 55.5225 158.32C54.6905 158.32 54.0185 158.608 53.5065 159.184C52.9945 159.749 52.7385 160.555 52.7385 161.6C52.7385 162.656 52.9945 163.472 53.5065 164.048C54.0185 164.624 54.6905 164.912 55.5225 164.912C56.1625 164.912 56.6958 164.763 57.1225 164.464C57.5492 164.165 57.8425 163.739 58.0025 163.184H59.5705C59.3358 164.08 58.8665 164.8 58.1625 165.344C57.4585 165.877 56.5785 166.144 55.5225 166.144C54.6905 166.144 53.9492 165.957 53.2985 165.584C52.6585 165.211 52.1572 164.683 51.7945 164C51.4318 163.317 51.2505 162.517 51.2505 161.6ZM65.8653 157.072C66.5266 157.072 67.1239 157.216 67.6573 157.504C68.1906 157.781 68.6066 158.203 68.9053 158.768C69.2146 159.333 69.3693 160.021 69.3693 160.832V166H67.9293V161.04C67.9293 160.165 67.7106 159.499 67.2733 159.04C66.8359 158.571 66.2386 158.336 65.4813 158.336C64.7133 158.336 64.0999 158.576 63.6413 159.056C63.1933 159.536 62.9693 160.235 62.9693 161.152V166H61.5133V154.16H62.9693V158.48C63.2573 158.032 63.6519 157.685 64.1533 157.44C64.6653 157.195 65.2359 157.072 65.8653 157.072Z" fill="#242424"/>
<path d="M168.675 153.49V155.164H165.345V166H163.293V155.164H159.945V153.49H168.675ZM175.055 166.162C174.119 166.162 173.273 165.952 172.517 165.532C171.761 165.1 171.167 164.5 170.735 163.732C170.303 162.952 170.087 162.052 170.087 161.032C170.087 160.024 170.309 159.13 170.753 158.35C171.197 157.57 171.803 156.97 172.571 156.55C173.339 156.13 174.197 155.92 175.145 155.92C176.093 155.92 176.951 156.13 177.719 156.55C178.487 156.97 179.093 157.57 179.537 158.35C179.981 159.13 180.203 160.024 180.203 161.032C180.203 162.04 179.975 162.934 179.519 163.714C179.063 164.494 178.439 165.1 177.647 165.532C176.867 165.952 176.003 166.162 175.055 166.162ZM175.055 164.38C175.583 164.38 176.075 164.254 176.531 164.002C176.999 163.75 177.377 163.372 177.665 162.868C177.953 162.364 178.097 161.752 178.097 161.032C178.097 160.312 177.959 159.706 177.683 159.214C177.407 158.71 177.041 158.332 176.585 158.08C176.129 157.828 175.637 157.702 175.109 157.702C174.581 157.702 174.089 157.828 173.633 158.08C173.189 158.332 172.835 158.71 172.571 159.214C172.307 159.706 172.175 160.312 172.175 161.032C172.175 162.1 172.445 162.928 172.985 163.516C173.537 164.092 174.227 164.38 175.055 164.38ZM181.548 160.996C181.548 160 181.752 159.118 182.16 158.35C182.58 157.582 183.144 156.988 183.852 156.568C184.572 156.136 185.37 155.92 186.246 155.92C186.894 155.92 187.53 156.064 188.154 156.352C188.79 156.628 189.294 157 189.666 157.468V152.68H191.736V166H189.666V164.506C189.33 164.986 188.862 165.382 188.262 165.694C187.674 166.006 186.996 166.162 186.228 166.162C185.364 166.162 184.572 165.946 183.852 165.514C183.144 165.07 182.58 164.458 182.16 163.678C181.752 162.886 181.548 161.992 181.548 160.996ZM189.666 161.032C189.666 160.348 189.522 159.754 189.234 159.25C188.958 158.746 188.592 158.362 188.136 158.098C187.68 157.834 187.188 157.702 186.66 157.702C186.132 157.702 185.64 157.834 185.184 158.098C184.728 158.35 184.356 158.728 184.068 159.232C183.792 159.724 183.654 160.312 183.654 160.996C183.654 161.68 183.792 162.28 184.068 162.796C184.356 163.312 184.728 163.708 185.184 163.984C185.652 164.248 186.144 164.38 186.66 164.38C187.188 164.38 187.68 164.248 188.136 163.984C188.592 163.72 188.958 163.336 189.234 162.832C189.522 162.316 189.666 161.716 189.666 161.032ZM193.747 160.996C193.747 160 193.951 159.118 194.359 158.35C194.779 157.582 195.343 156.988 196.051 156.568C196.771 156.136 197.563 155.92 198.427 155.92C199.207 155.92 199.885 156.076 200.461 156.388C201.049 156.688 201.517 157.066 201.865 157.522V156.082H203.935V166H201.865V164.524C201.517 164.992 201.043 165.382 200.443 165.694C199.843 166.006 199.159 166.162 198.391 166.162C197.539 166.162 196.759 165.946 196.051 165.514C195.343 165.07 194.779 164.458 194.359 163.678C193.951 162.886 193.747 161.992 193.747 160.996ZM201.865 161.032C201.865 160.348 201.721 159.754 201.433 159.25C201.157 158.746 200.791 158.362 200.335 158.098C199.879 157.834 199.387 157.702 198.859 157.702C198.331 157.702 197.839 157.834 197.383 158.098C196.927 158.35 196.555 158.728 196.267 159.232C195.991 159.724 195.853 160.312 195.853 160.996C195.853 161.68 195.991 162.28 196.267 162.796C196.555 163.312 196.927 163.708 197.383 163.984C197.851 164.248 198.343 164.38 198.859 164.38C199.387 164.38 199.879 164.248 200.335 163.984C200.791 163.72 201.157 163.336 201.433 162.832C201.721 162.316 201.865 161.716 201.865 161.032ZM215.558 156.082L209.474 170.662H207.35L209.366 165.838L205.46 156.082H207.746L210.536 163.642L213.434 156.082H215.558Z" fill="#242424"/>
<rect y="80" width="375" height="60" fill="white"/>
<line x1="1.5" y1="138.5" x2="186.5" y2="138.5" stroke="#49573D" stroke-width="3" stroke-linecap="round"/>
<path d="M78.9183 103.49V105.164H75.5883V116H73.5363V105.164H70.1883V103.49H78.9183ZM83.0485 107.522C83.3485 107.018 83.7445 106.628 84.2365 106.352C84.7405 106.064 85.3345 105.92 86.0185 105.92V108.044H85.4965C84.6925 108.044 84.0805 108.248 83.6605 108.656C83.2525 109.064 83.0485 109.772 83.0485 110.78V116H80.9965V106.082H83.0485V107.522ZM87.2207 110.996C87.2207 110 87.4247 109.118 87.8327 108.35C88.2527 107.582 88.8167 106.988 89.5247 106.568C90.2447 106.136 91.0367 105.92 91.9007 105.92C92.6807 105.92 93.3587 106.076 93.9347 106.388C94.5227 106.688 94.9907 107.066 95.3387 107.522V106.082H97.4087V116H95.3387V114.524C94.9907 114.992 94.5167 115.382 93.9167 115.694C93.3167 116.006 92.6327 116.162 91.8647 116.162C91.0127 116.162 90.2327 115.946 89.5247 115.514C88.8167 115.07 88.2527 114.458 87.8327 113.678C87.4247 112.886 87.2207 111.992 87.2207 110.996ZM95.3387 111.032C95.3387 110.348 95.1947 109.754 94.9067 109.25C94.6307 108.746 94.2647 108.362 93.8087 108.098C93.3527 107.834 92.8607 107.702 92.3327 107.702C91.8047 107.702 91.3127 107.834 90.8567 108.098C90.4007 108.35 90.0287 108.728 89.7407 109.232C89.4647 109.724 89.3267 110.312 89.3267 110.996C89.3267 111.68 89.4647 112.28 89.7407 112.796C90.0287 113.312 90.4007 113.708 90.8567 113.984C91.3247 114.248 91.8167 114.38 92.3327 114.38C92.8607 114.38 93.3527 114.248 93.8087 113.984C94.2647 113.72 94.6307 113.336 94.9067 112.832C95.1947 112.316 95.3387 111.716 95.3387 111.032ZM99.4199 111.032C99.4199 110.012 99.6239 109.118 100.032 108.35C100.452 107.57 101.028 106.97 101.76 106.55C102.492 106.13 103.332 105.92 104.28 105.92C105.48 105.92 106.47 106.208 107.25 106.784C108.042 107.348 108.576 108.158 108.852 109.214H106.638C106.458 108.722 106.17 108.338 105.774 108.062C105.378 107.786 104.88 107.648 104.28 107.648C103.44 107.648 102.768 107.948 102.264 108.548C101.772 109.136 101.526 109.964 101.526 111.032C101.526 112.1 101.772 112.934 102.264 113.534C102.768 114.134 103.44 114.434 104.28 114.434C105.468 114.434 106.254 113.912 106.638 112.868H108.852C108.564 113.876 108.024 114.68 107.232 115.28C106.44 115.868 105.456 116.162 104.28 116.162C103.332 116.162 102.492 115.952 101.76 115.532C101.028 115.1 100.452 114.5 100.032 113.732C99.6239 112.952 99.4199 112.052 99.4199 111.032ZM114.821 111.05L119.393 116H116.621L112.949 111.734V116H110.897V102.68H112.949V110.42L116.549 106.082H119.393L114.821 111.05Z" fill="#49573D"/>
<path d="M255.936 113.21H250.464L249.456 116H247.728L252.264 103.526H254.154L258.672 116H256.944L255.936 113.21ZM255.468 111.878L253.2 105.542L250.932 111.878H255.468ZM265.455 105.956C266.655 105.956 267.627 106.322 268.371 107.054C269.115 107.774 269.487 108.818 269.487 110.186V116H267.867V110.42C267.867 109.436 267.621 108.686 267.129 108.17C266.637 107.642 265.965 107.378 265.113 107.378C264.249 107.378 263.559 107.648 263.043 108.188C262.539 108.728 262.287 109.514 262.287 110.546V116H260.649V106.136H262.287V107.54C262.611 107.036 263.049 106.646 263.601 106.37C264.165 106.094 264.783 105.956 265.455 105.956ZM271.55 111.032C271.55 110.024 271.754 109.142 272.162 108.386C272.57 107.618 273.128 107.024 273.836 106.604C274.556 106.184 275.354 105.974 276.23 105.974C277.094 105.974 277.844 106.16 278.48 106.532C279.116 106.904 279.59 107.372 279.902 107.936V106.136H281.558V116H279.902V114.164C279.578 114.74 279.092 115.22 278.444 115.604C277.808 115.976 277.064 116.162 276.212 116.162C275.336 116.162 274.544 115.946 273.836 115.514C273.128 115.082 272.57 114.476 272.162 113.696C271.754 112.916 271.55 112.028 271.55 111.032ZM279.902 111.05C279.902 110.306 279.752 109.658 279.452 109.106C279.152 108.554 278.744 108.134 278.228 107.846C277.724 107.546 277.166 107.396 276.554 107.396C275.942 107.396 275.384 107.54 274.88 107.828C274.376 108.116 273.974 108.536 273.674 109.088C273.374 109.64 273.224 110.288 273.224 111.032C273.224 111.788 273.374 112.448 273.674 113.012C273.974 113.564 274.376 113.99 274.88 114.29C275.384 114.578 275.942 114.722 276.554 114.722C277.166 114.722 277.724 114.578 278.228 114.29C278.744 113.99 279.152 113.564 279.452 113.012C279.752 112.448 279.902 111.794 279.902 111.05ZM285.964 102.68V116H284.326V102.68H285.964ZM297.252 106.136L291.312 120.644H289.62L291.564 115.892L287.586 106.136H289.404L292.5 114.128L295.56 106.136H297.252ZM300.123 114.65H304.965V116H298.251V114.65L303.039 107.468H298.287V106.136H304.929V107.468L300.123 114.65ZM316.09 110.69C316.09 111.002 316.072 111.332 316.036 111.68H308.152C308.212 112.652 308.542 113.414 309.142 113.966C309.754 114.506 310.492 114.776 311.356 114.776C312.064 114.776 312.652 114.614 313.12 114.29C313.6 113.954 313.936 113.51 314.128 112.958H315.892C315.628 113.906 315.1 114.68 314.308 115.28C313.516 115.868 312.532 116.162 311.356 116.162C310.42 116.162 309.58 115.952 308.836 115.532C308.104 115.112 307.528 114.518 307.108 113.75C306.688 112.97 306.478 112.07 306.478 111.05C306.478 110.03 306.682 109.136 307.09 108.368C307.498 107.6 308.068 107.012 308.8 106.604C309.544 106.184 310.396 105.974 311.356 105.974C312.292 105.974 313.12 106.178 313.84 106.586C314.56 106.994 315.112 107.558 315.496 108.278C315.892 108.986 316.09 109.79 316.09 110.69ZM314.398 110.348C314.398 109.724 314.26 109.19 313.984 108.746C313.708 108.29 313.33 107.948 312.85 107.72C312.382 107.48 311.86 107.36 311.284 107.36C310.456 107.36 309.748 107.624 309.16 108.152C308.584 108.68 308.254 109.412 308.17 110.348H314.398Z" fill="#242424"/>
<g filter="url(#filter0_d_1415_24738)">
<rect width="375" height="80" fill="white"/>
</g>
<path d="M157.601 33.49V35.164H154.271V46H152.219V35.164H148.871V33.49H157.601ZM161.731 37.522C162.031 37.018 162.427 36.628 162.919 36.352C163.423 36.064 164.017 35.92 164.701 35.92V38.044H164.179C163.375 38.044 162.763 38.248 162.343 38.656C161.935 39.064 161.731 39.772 161.731 40.78V46H159.679V36.082H161.731V37.522ZM165.903 40.996C165.903 40 166.107 39.118 166.515 38.35C166.935 37.582 167.499 36.988 168.207 36.568C168.927 36.136 169.719 35.92 170.583 35.92C171.363 35.92 172.041 36.076 172.617 36.388C173.205 36.688 173.673 37.066 174.021 37.522V36.082H176.091V46H174.021V44.524C173.673 44.992 173.199 45.382 172.599 45.694C171.999 46.006 171.315 46.162 170.547 46.162C169.695 46.162 168.915 45.946 168.207 45.514C167.499 45.07 166.935 44.458 166.515 43.678C166.107 42.886 165.903 41.992 165.903 40.996ZM174.021 41.032C174.021 40.348 173.877 39.754 173.589 39.25C173.313 38.746 172.947 38.362 172.491 38.098C172.035 37.834 171.543 37.702 171.015 37.702C170.487 37.702 169.995 37.834 169.539 38.098C169.083 38.35 168.711 38.728 168.423 39.232C168.147 39.724 168.009 40.312 168.009 40.996C168.009 41.68 168.147 42.28 168.423 42.796C168.711 43.312 169.083 43.708 169.539 43.984C170.007 44.248 170.499 44.38 171.015 44.38C171.543 44.38 172.035 44.248 172.491 43.984C172.947 43.72 173.313 43.336 173.589 42.832C173.877 42.316 174.021 41.716 174.021 41.032ZM178.103 41.032C178.103 40.012 178.307 39.118 178.715 38.35C179.135 37.57 179.711 36.97 180.443 36.55C181.175 36.13 182.015 35.92 182.963 35.92C184.163 35.92 185.153 36.208 185.933 36.784C186.725 37.348 187.259 38.158 187.535 39.214H185.321C185.141 38.722 184.853 38.338 184.457 38.062C184.061 37.786 183.563 37.648 182.963 37.648C182.123 37.648 181.451 37.948 180.947 38.548C180.455 39.136 180.209 39.964 180.209 41.032C180.209 42.1 180.455 42.934 180.947 43.534C181.451 44.134 182.123 44.434 182.963 44.434C184.151 44.434 184.937 43.912 185.321 42.868H187.535C187.247 43.876 186.707 44.68 185.915 45.28C185.123 45.868 184.139 46.162 182.963 46.162C182.015 46.162 181.175 45.952 180.443 45.532C179.711 45.1 179.135 44.5 178.715 43.732C178.307 42.952 178.103 42.052 178.103 41.032ZM193.503 41.05L198.075 46H195.303L191.631 41.734V46H189.579V32.68H191.631V40.42L195.231 36.082H198.075L193.503 41.05ZM200.59 34.768C200.218 34.768 199.906 34.642 199.654 34.39C199.402 34.138 199.276 33.826 199.276 33.454C199.276 33.082 199.402 32.77 199.654 32.518C199.906 32.266 200.218 32.14 200.59 32.14C200.95 32.14 201.256 32.266 201.508 32.518C201.76 32.77 201.886 33.082 201.886 33.454C201.886 33.826 201.76 34.138 201.508 34.39C201.256 34.642 200.95 34.768 200.59 34.768ZM201.598 36.082V46H199.546V36.082H201.598ZM209.296 35.92C210.076 35.92 210.772 36.082 211.384 36.406C212.008 36.73 212.494 37.21 212.842 37.846C213.19 38.482 213.364 39.25 213.364 40.15V46H211.33V40.456C211.33 39.568 211.108 38.89 210.664 38.422C210.22 37.942 209.614 37.702 208.846 37.702C208.078 37.702 207.466 37.942 207.01 38.422C206.566 38.89 206.344 39.568 206.344 40.456V46H204.292V36.082H206.344V37.216C206.68 36.808 207.106 36.49 207.622 36.262C208.15 36.034 208.708 35.92 209.296 35.92ZM219.978 35.92C220.746 35.92 221.424 36.076 222.012 36.388C222.612 36.688 223.08 37.066 223.416 37.522V36.082H225.486V46.162C225.486 47.074 225.294 47.884 224.91 48.592C224.526 49.312 223.968 49.876 223.236 50.284C222.516 50.692 221.652 50.896 220.644 50.896C219.3 50.896 218.184 50.578 217.296 49.942C216.408 49.318 215.904 48.466 215.784 47.386H217.818C217.974 47.902 218.304 48.316 218.808 48.628C219.324 48.952 219.936 49.114 220.644 49.114C221.472 49.114 222.138 48.862 222.642 48.358C223.158 47.854 223.416 47.122 223.416 46.162V44.506C223.068 44.974 222.594 45.37 221.994 45.694C221.406 46.006 220.734 46.162 219.978 46.162C219.114 46.162 218.322 45.946 217.602 45.514C216.894 45.07 216.33 44.458 215.91 43.678C215.502 42.886 215.298 41.992 215.298 40.996C215.298 40 215.502 39.118 215.91 38.35C216.33 37.582 216.894 36.988 217.602 36.568C218.322 36.136 219.114 35.92 219.978 35.92ZM223.416 41.032C223.416 40.348 223.272 39.754 222.984 39.25C222.708 38.746 222.342 38.362 221.886 38.098C221.43 37.834 220.938 37.702 220.41 37.702C219.882 37.702 219.39 37.834 218.934 38.098C218.478 38.35 218.106 38.728 217.818 39.232C217.542 39.724 217.404 40.312 217.404 40.996C217.404 41.68 217.542 42.28 217.818 42.796C218.106 43.312 218.478 43.708 218.934 43.984C219.402 44.248 219.894 44.38 220.41 44.38C220.938 44.38 221.43 44.248 221.886 43.984C222.342 43.72 222.708 43.336 222.984 42.832C223.272 42.316 223.416 41.716 223.416 41.032Z" fill="#242424"/>
<path d="M41.046 40.574C41.718 40.694 42.288 41.048 42.756 41.636C43.224 42.224 43.458 42.89 43.458 43.634C43.458 44.27 43.29 44.846 42.954 45.362C42.63 45.866 42.156 46.268 41.532 46.568C40.908 46.856 40.182 47 39.354 47H34.35V34.49H39.12C39.972 34.49 40.704 34.634 41.316 34.922C41.928 35.21 42.39 35.6 42.702 36.092C43.014 36.572 43.17 37.112 43.17 37.712C43.17 38.432 42.978 39.032 42.594 39.512C42.21 39.992 41.694 40.346 41.046 40.574ZM36.402 39.746H38.94C39.612 39.746 40.134 39.596 40.506 39.296C40.89 38.984 41.082 38.54 41.082 37.964C41.082 37.4 40.89 36.962 40.506 36.65C40.134 36.326 39.612 36.164 38.94 36.164H36.402V39.746ZM39.174 45.326C39.87 45.326 40.416 45.158 40.812 44.822C41.208 44.486 41.406 44.018 41.406 43.418C41.406 42.806 41.196 42.32 40.776 41.96C40.356 41.6 39.798 41.42 39.102 41.42H36.402V45.326H39.174ZM45.0039 41.996C45.0039 41 45.2079 40.118 45.6159 39.35C46.0359 38.582 46.5999 37.988 47.3079 37.568C48.0279 37.136 48.8199 36.92 49.6839 36.92C50.4639 36.92 51.1419 37.076 51.7179 37.388C52.3059 37.688 52.7739 38.066 53.1219 38.522V37.082H55.1919V47H53.1219V45.524C52.7739 45.992 52.2999 46.382 51.6999 46.694C51.0999 47.006 50.4159 47.162 49.6479 47.162C48.7959 47.162 48.0159 46.946 47.3079 46.514C46.5999 46.07 46.0359 45.458 45.6159 44.678C45.2079 43.886 45.0039 42.992 45.0039 41.996ZM53.1219 42.032C53.1219 41.348 52.9779 40.754 52.6899 40.25C52.4139 39.746 52.0479 39.362 51.5919 39.098C51.1359 38.834 50.6439 38.702 50.1159 38.702C49.5879 38.702 49.0959 38.834 48.6399 39.098C48.1839 39.35 47.8119 39.728 47.5239 40.232C47.2479 40.724 47.1099 41.312 47.1099 41.996C47.1099 42.68 47.2479 43.28 47.5239 43.796C47.8119 44.312 48.1839 44.708 48.6399 44.984C49.1079 45.248 49.5999 45.38 50.1159 45.38C50.6439 45.38 51.1359 45.248 51.5919 44.984C52.0479 44.72 52.4139 44.336 52.6899 43.832C52.9779 43.316 53.1219 42.716 53.1219 42.032ZM57.2031 42.032C57.2031 41.012 57.4071 40.118 57.8151 39.35C58.2351 38.57 58.8111 37.97 59.5431 37.55C60.2751 37.13 61.1151 36.92 62.0631 36.92C63.2631 36.92 64.2531 37.208 65.0331 37.784C65.8251 38.348 66.3591 39.158 66.6351 40.214H64.4211C64.2411 39.722 63.9531 39.338 63.5571 39.062C63.1611 38.786 62.6631 38.648 62.0631 38.648C61.2231 38.648 60.5511 38.948 60.0471 39.548C59.5551 40.136 59.3091 40.964 59.3091 42.032C59.3091 43.1 59.5551 43.934 60.0471 44.534C60.5511 45.134 61.2231 45.434 62.0631 45.434C63.2511 45.434 64.0371 44.912 64.4211 43.868H66.6351C66.3471 44.876 65.8071 45.68 65.0151 46.28C64.2231 46.868 63.2391 47.162 62.0631 47.162C61.1151 47.162 60.2751 46.952 59.5431 46.532C58.8111 46.1 58.2351 45.5 57.8151 44.732C57.4071 43.952 57.2031 43.052 57.2031 42.032ZM72.6041 42.05L77.1761 47H74.4041L70.7321 42.734V47H68.6801V33.68H70.7321V41.42L74.3321 37.082H77.1761L72.6041 42.05Z" fill="#49573D"/>
<path d="M20.2727 40.9963L25.4545 46.2201C25.8182 46.5933 26.3636 46.5933 26.7273 46.2201C27.0909 45.847 27.0909 45.2873 26.7273 44.9142L22.2727 40.25L26.7273 35.5858C27.0909 35.2127 27.0909 34.653 26.7273 34.2799C26.5455 34.0933 26.3636 34 26.0909 34C25.8182 34 25.6364 34.0933 25.4545 34.2799L20.2727 39.5037C19.9091 39.9701 19.9091 40.5299 20.2727 40.9963C20.2727 40.903 20.2727 40.903 20.2727 40.9963Z" fill="#49573D"/>
<g filter="url(#filter1_d_1415_24738)">
<circle cx="331.5" cy="553.5" r="23.5" fill="#D2DBC9"/>
<circle cx="331.5" cy="553.5" r="23" stroke="#242424"/>
</g>
<rect x="330.847" y="537.833" width="1.30556" height="31.3333" fill="#242424"/>
<rect width="31.3333" height="1.30556" transform="matrix(-1 0 0 1 347.167 552.847)" fill="#242424"/>
<rect x="300" y="592" width="75" height="75" fill="white"/>
<path d="M343.071 612.571C343.071 615.648 340.577 618.143 337.5 618.143C334.423 618.143 331.929 615.648 331.929 612.571C331.929 609.494 334.423 607 337.5 607C340.577 607 343.071 609.494 343.071 612.571Z" stroke="#242424" stroke-width="2"/>
<path fill-rule="evenodd" clip-rule="evenodd" d="M347 629H349C349 622.649 343.851 617.5 337.5 617.5C331.149 617.5 326 622.649 326 629H328C328 623.753 332.253 619.5 337.5 619.5C342.747 619.5 347 623.753 347 629Z" fill="#242424"/>
<path d="M326.79 641.577C326.79 642.215 326.57 642.747 326.13 643.172C325.698 643.59 325.034 643.799 324.139 643.799H322.665V647H321.664V639.333H324.139C325.005 639.333 325.661 639.542 326.108 639.96C326.563 640.378 326.79 640.917 326.79 641.577ZM324.139 642.974C324.697 642.974 325.107 642.853 325.371 642.611C325.635 642.369 325.767 642.024 325.767 641.577C325.767 640.631 325.225 640.158 324.139 640.158H322.665V642.974H324.139ZM329.036 641.951C329.212 641.606 329.461 641.339 329.784 641.148C330.114 640.957 330.513 640.862 330.983 640.862V641.896H330.719C329.597 641.896 329.036 642.505 329.036 643.722V647H328.035V640.972H329.036V641.951ZM334.767 647.099C334.202 647.099 333.689 646.971 333.227 646.714C332.772 646.457 332.413 646.094 332.149 645.625C331.892 645.148 331.764 644.598 331.764 643.975C331.764 643.359 331.896 642.816 332.16 642.347C332.431 641.87 332.798 641.507 333.26 641.258C333.722 641.001 334.239 640.873 334.811 640.873C335.383 640.873 335.9 641.001 336.362 641.258C336.824 641.507 337.187 641.867 337.451 642.336C337.722 642.805 337.858 643.352 337.858 643.975C337.858 644.598 337.719 645.148 337.44 645.625C337.169 646.094 336.798 646.457 336.329 646.714C335.86 646.971 335.339 647.099 334.767 647.099ZM334.767 646.219C335.126 646.219 335.464 646.135 335.779 645.966C336.094 645.797 336.347 645.544 336.538 645.207C336.736 644.87 336.835 644.459 336.835 643.975C336.835 643.491 336.74 643.08 336.549 642.743C336.358 642.406 336.109 642.156 335.801 641.995C335.493 641.826 335.159 641.742 334.8 641.742C334.433 641.742 334.096 641.826 333.788 641.995C333.487 642.156 333.245 642.406 333.062 642.743C332.879 643.08 332.787 643.491 332.787 643.975C332.787 644.466 332.875 644.881 333.051 645.218C333.234 645.555 333.476 645.808 333.777 645.977C334.078 646.138 334.408 646.219 334.767 646.219ZM341.627 641.797H340.362V647H339.361V641.797H338.58V640.972H339.361V640.543C339.361 639.868 339.533 639.377 339.878 639.069C340.23 638.754 340.791 638.596 341.561 638.596V639.432C341.121 639.432 340.809 639.52 340.626 639.696C340.45 639.865 340.362 640.147 340.362 640.543V640.972H341.627V641.797ZM343.311 639.993C343.121 639.993 342.959 639.927 342.827 639.795C342.695 639.663 342.629 639.502 342.629 639.311C342.629 639.12 342.695 638.959 342.827 638.827C342.959 638.695 343.121 638.629 343.311 638.629C343.495 638.629 343.649 638.695 343.773 638.827C343.905 638.959 343.971 639.12 343.971 639.311C343.971 639.502 343.905 639.663 343.773 639.795C343.649 639.927 343.495 639.993 343.311 639.993ZM343.795 640.972V647H342.794V640.972H343.795ZM346.502 638.86V647H345.501V638.86H346.502ZM353.708 643.755C353.708 643.946 353.697 644.147 353.675 644.36H348.857C348.894 644.954 349.096 645.42 349.462 645.757C349.836 646.087 350.287 646.252 350.815 646.252C351.248 646.252 351.607 646.153 351.893 645.955C352.187 645.75 352.392 645.478 352.509 645.141H353.587C353.426 645.72 353.103 646.193 352.619 646.56C352.135 646.919 351.534 647.099 350.815 647.099C350.243 647.099 349.73 646.971 349.275 646.714C348.828 646.457 348.476 646.094 348.219 645.625C347.963 645.148 347.834 644.598 347.834 643.975C347.834 643.352 347.959 642.805 348.208 642.336C348.458 641.867 348.806 641.507 349.253 641.258C349.708 641.001 350.229 640.873 350.815 640.873C351.387 640.873 351.893 640.998 352.333 641.247C352.773 641.496 353.111 641.841 353.345 642.281C353.587 642.714 353.708 643.205 353.708 643.755ZM352.674 643.546C352.674 643.165 352.59 642.838 352.421 642.567C352.253 642.288 352.022 642.079 351.728 641.94C351.442 641.793 351.123 641.72 350.771 641.72C350.265 641.72 349.833 641.881 349.473 642.204C349.121 642.527 348.92 642.974 348.868 643.546H352.674Z" fill="#242424"/>
<rect x="225" y="592" width="75" height="75" fill="white"/>
<path d="M252.917 608.875H270.167C270.167 608.875 272.083 609.833 272.083 612.229C272.083 614.625 270.167 615.583 270.167 615.583H252.917C252.917 615.583 254.833 614.625 254.833 612.229C254.833 609.833 252.917 608.875 252.917 608.875Z" stroke="#333333" stroke-width="2" stroke-linecap="round" stroke-linejoin="round"/>
<path d="M272.083 619.417H254.833C254.833 619.417 252.917 620.375 252.917 622.771C252.917 625.167 254.833 626.125 254.833 626.125H272.083C272.083 626.125 270.167 625.167 270.167 622.771C270.167 620.375 272.083 619.417 272.083 619.417Z" stroke="#333333" stroke-width="2" stroke-linecap="round" stroke-linejoin="round"/>
<path d="M239.041 647L237.215 643.865H236.005V647H235.004V639.333H237.479C238.058 639.333 238.546 639.432 238.942 639.63C239.345 639.828 239.646 640.096 239.844 640.433C240.042 640.77 240.141 641.155 240.141 641.588C240.141 642.116 239.987 642.582 239.679 642.985C239.378 643.388 238.923 643.656 238.315 643.788L240.24 647H239.041ZM236.005 643.062H237.479C238.021 643.062 238.428 642.93 238.7 642.666C238.971 642.395 239.107 642.035 239.107 641.588C239.107 641.133 238.971 640.781 238.7 640.532C238.436 640.283 238.029 640.158 237.479 640.158H236.005V643.062ZM247.196 643.755C247.196 643.946 247.185 644.147 247.163 644.36H242.345C242.382 644.954 242.583 645.42 242.95 645.757C243.324 646.087 243.775 646.252 244.303 646.252C244.736 646.252 245.095 646.153 245.381 645.955C245.674 645.75 245.88 645.478 245.997 645.141H247.075C246.914 645.72 246.591 646.193 246.107 646.56C245.623 646.919 245.022 647.099 244.303 647.099C243.731 647.099 243.218 646.971 242.763 646.714C242.316 646.457 241.964 646.094 241.707 645.625C241.45 645.148 241.322 644.598 241.322 643.975C241.322 643.352 241.447 642.805 241.696 642.336C241.945 641.867 242.294 641.507 242.741 641.258C243.196 641.001 243.716 640.873 244.303 640.873C244.875 640.873 245.381 640.998 245.821 641.247C246.261 641.496 246.598 641.841 246.833 642.281C247.075 642.714 247.196 643.205 247.196 643.755ZM246.162 643.546C246.162 643.165 246.078 642.838 245.909 642.567C245.74 642.288 245.509 642.079 245.216 641.94C244.93 641.793 244.611 641.72 244.259 641.72C243.753 641.72 243.32 641.881 242.961 642.204C242.609 642.527 242.407 642.974 242.356 643.546H246.162ZM250.651 647.099C250.189 647.099 249.775 647.022 249.408 646.868C249.042 646.707 248.752 646.487 248.539 646.208C248.327 645.922 248.209 645.596 248.187 645.229H249.221C249.251 645.53 249.39 645.775 249.639 645.966C249.896 646.157 250.23 646.252 250.64 646.252C251.022 646.252 251.322 646.168 251.542 645.999C251.762 645.83 251.872 645.618 251.872 645.361C251.872 645.097 251.755 644.903 251.52 644.778C251.286 644.646 250.923 644.518 250.431 644.393C249.984 644.276 249.617 644.158 249.331 644.041C249.053 643.916 248.811 643.737 248.605 643.502C248.407 643.26 248.308 642.945 248.308 642.556C248.308 642.248 248.4 641.966 248.583 641.709C248.767 641.452 249.027 641.251 249.364 641.104C249.702 640.95 250.087 640.873 250.519 640.873C251.187 640.873 251.726 641.042 252.136 641.379C252.547 641.716 252.767 642.178 252.796 642.765H251.795C251.773 642.45 251.645 642.197 251.41 642.006C251.183 641.815 250.875 641.72 250.486 641.72C250.127 641.72 249.841 641.797 249.628 641.951C249.416 642.105 249.309 642.307 249.309 642.556C249.309 642.754 249.372 642.919 249.496 643.051C249.628 643.176 249.79 643.278 249.98 643.359C250.178 643.432 250.45 643.517 250.794 643.612C251.227 643.729 251.579 643.847 251.85 643.964C252.122 644.074 252.353 644.243 252.543 644.47C252.741 644.697 252.844 644.994 252.851 645.361C252.851 645.691 252.76 645.988 252.576 646.252C252.393 646.516 252.133 646.725 251.795 646.879C251.465 647.026 251.084 647.099 250.651 647.099ZM256.893 647.099C256.329 647.099 255.815 646.971 255.353 646.714C254.899 646.457 254.539 646.094 254.275 645.625C254.019 645.148 253.89 644.598 253.89 643.975C253.89 643.359 254.022 642.816 254.286 642.347C254.558 641.87 254.924 641.507 255.386 641.258C255.848 641.001 256.365 640.873 256.937 640.873C257.509 640.873 258.026 641.001 258.488 641.258C258.95 641.507 259.313 641.867 259.577 642.336C259.849 642.805 259.984 643.352 259.984 643.975C259.984 644.598 259.845 645.148 259.566 645.625C259.295 646.094 258.925 646.457 258.455 646.714C257.986 646.971 257.465 647.099 256.893 647.099ZM256.893 646.219C257.253 646.219 257.59 646.135 257.905 645.966C258.221 645.797 258.474 645.544 258.664 645.207C258.862 644.87 258.961 644.459 258.961 643.975C258.961 643.491 258.866 643.08 258.675 642.743C258.485 642.406 258.235 642.156 257.927 641.995C257.619 641.826 257.286 641.742 256.926 641.742C256.56 641.742 256.222 641.826 255.914 641.995C255.614 642.156 255.372 642.406 255.188 642.743C255.005 643.08 254.913 643.491 254.913 643.975C254.913 644.466 255.001 644.881 255.177 645.218C255.361 645.555 255.603 645.808 255.903 645.977C256.204 646.138 256.534 646.219 256.893 646.219ZM266.647 640.972V647H265.646V646.109C265.455 646.417 265.187 646.659 264.843 646.835C264.505 647.004 264.131 647.088 263.721 647.088C263.251 647.088 262.83 646.993 262.456 646.802C262.082 646.604 261.785 646.311 261.565 645.922C261.352 645.533 261.246 645.06 261.246 644.503V640.972H262.236V644.371C262.236 644.965 262.386 645.423 262.687 645.746C262.987 646.061 263.398 646.219 263.919 646.219C264.454 646.219 264.876 646.054 265.184 645.724C265.492 645.394 265.646 644.914 265.646 644.283V640.972H266.647ZM269.338 641.951C269.514 641.606 269.763 641.339 270.086 641.148C270.416 640.957 270.815 640.862 271.285 640.862V641.896H271.021C269.899 641.896 269.338 642.505 269.338 643.722V647H268.337V640.972H269.338V641.951ZM272.066 643.975C272.066 643.352 272.191 642.809 272.44 642.347C272.69 641.878 273.034 641.515 273.474 641.258C273.922 641.001 274.431 640.873 275.003 640.873C275.744 640.873 276.353 641.053 276.829 641.412C277.313 641.771 277.632 642.27 277.786 642.908H276.708C276.606 642.541 276.404 642.252 276.103 642.039C275.81 641.826 275.443 641.72 275.003 641.72C274.431 641.72 273.969 641.918 273.617 642.314C273.265 642.703 273.089 643.256 273.089 643.975C273.089 644.701 273.265 645.262 273.617 645.658C273.969 646.054 274.431 646.252 275.003 646.252C275.443 646.252 275.81 646.149 276.103 645.944C276.397 645.739 276.598 645.445 276.708 645.064H277.786C277.625 645.68 277.302 646.175 276.818 646.549C276.334 646.916 275.729 647.099 275.003 647.099C274.431 647.099 273.922 646.971 273.474 646.714C273.034 646.457 272.69 646.094 272.44 645.625C272.191 645.156 272.066 644.606 272.066 643.975ZM284.622 643.755C284.622 643.946 284.611 644.147 284.589 644.36H279.771C279.808 644.954 280.009 645.42 280.376 645.757C280.75 646.087 281.201 646.252 281.729 646.252C282.162 646.252 282.521 646.153 282.807 645.955C283.1 645.75 283.306 645.478 283.423 645.141H284.501C284.34 645.72 284.017 646.193 283.533 646.56C283.049 646.919 282.448 647.099 281.729 647.099C281.157 647.099 280.644 646.971 280.189 646.714C279.742 646.457 279.39 646.094 279.133 645.625C278.876 645.148 278.748 644.598 278.748 643.975C278.748 643.352 278.873 642.805 279.122 642.336C279.371 641.867 279.72 641.507 280.167 641.258C280.622 641.001 281.142 640.873 281.729 640.873C282.301 640.873 282.807 640.998 283.247 641.247C283.687 641.496 284.024 641.841 284.259 642.281C284.501 642.714 284.622 643.205 284.622 643.755ZM283.588 643.546C283.588 643.165 283.504 642.838 283.335 642.567C283.166 642.288 282.935 642.079 282.642 641.94C282.356 641.793 282.037 641.72 281.685 641.72C281.179 641.72 280.746 641.881 280.387 642.204C280.035 642.527 279.833 642.974 279.782 643.546H283.588ZM288.077 647.099C287.615 647.099 287.201 647.022 286.834 646.868C286.468 646.707 286.178 646.487 285.965 646.208C285.753 645.922 285.635 645.596 285.613 645.229H286.647C286.677 645.53 286.816 645.775 287.065 645.966C287.322 646.157 287.656 646.252 288.066 646.252C288.448 646.252 288.748 646.168 288.968 645.999C289.188 645.83 289.298 645.618 289.298 645.361C289.298 645.097 289.181 644.903 288.946 644.778C288.712 644.646 288.349 644.518 287.857 644.393C287.41 644.276 287.043 644.158 286.757 644.041C286.479 643.916 286.237 643.737 286.031 643.502C285.833 643.26 285.734 642.945 285.734 642.556C285.734 642.248 285.826 641.966 286.009 641.709C286.193 641.452 286.453 641.251 286.79 641.104C287.128 640.95 287.513 640.873 287.945 640.873C288.613 640.873 289.152 641.042 289.562 641.379C289.973 641.716 290.193 642.178 290.222 642.765H289.221C289.199 642.45 289.071 642.197 288.836 642.006C288.609 641.815 288.301 641.72 287.912 641.72C287.553 641.72 287.267 641.797 287.054 641.951C286.842 642.105 286.735 642.307 286.735 642.556C286.735 642.754 286.798 642.919 286.922 643.051C287.054 643.176 287.216 643.278 287.406 643.359C287.604 643.432 287.876 643.517 288.22 643.612C288.653 643.729 289.005 643.847 289.276 643.964C289.548 644.074 289.779 644.243 289.969 644.47C290.167 644.697 290.27 644.994 290.277 645.361C290.277 645.691 290.186 645.988 290.002 646.252C289.819 646.516 289.559 646.725 289.221 646.879C288.891 647.026 288.51 647.099 288.077 647.099Z" fill="#242424"/>
<rect x="150" y="592" width="75" height="75" fill="white"/>
<circle cx="187.5" cy="618.5" r="10.5" stroke="#999999" stroke-width="2"/>
<mask id="path-48-inside-2_1415_24738" fill="white">
<path d="M177.976 612.055C176.538 614.18 175.852 616.725 176.027 619.285C176.202 621.845 177.229 624.274 178.943 626.183C180.657 628.092 182.961 629.374 185.488 629.823C188.015 630.272 190.619 629.863 192.886 628.661C195.153 627.459 196.954 625.533 198 623.19C199.047 620.847 199.28 618.221 198.662 615.73C198.043 613.24 196.61 611.027 194.59 609.445C192.569 607.863 190.077 607.002 187.511 607L187.509 608.907C189.65 608.909 191.728 609.627 193.414 610.947C195.099 612.267 196.295 614.112 196.811 616.19C197.326 618.267 197.132 620.458 196.259 622.412C195.386 624.367 193.884 625.973 191.993 626.976C190.102 627.978 187.929 628.32 185.822 627.945C183.714 627.57 181.792 626.502 180.362 624.909C178.932 623.316 178.076 621.291 177.929 619.155C177.783 617.019 178.356 614.896 179.555 613.123L177.976 612.055Z"/>
</mask>
<path d="M177.976 612.055C176.538 614.18 175.852 616.725 176.027 619.285C176.202 621.845 177.229 624.274 178.943 626.183C180.657 628.092 182.961 629.374 185.488 629.823C188.015 630.272 190.619 629.863 192.886 628.661C195.153 627.459 196.954 625.533 198 623.19C199.047 620.847 199.28 618.221 198.662 615.73C198.043 613.24 196.61 611.027 194.59 609.445C192.569 607.863 190.077 607.002 187.511 607L187.509 608.907C189.65 608.909 191.728 609.627 193.414 610.947C195.099 612.267 196.295 614.112 196.811 616.19C197.326 618.267 197.132 620.458 196.259 622.412C195.386 624.367 193.884 625.973 191.993 626.976C190.102 627.978 187.929 628.32 185.822 627.945C183.714 627.57 181.792 626.502 180.362 624.909C178.932 623.316 178.076 621.291 177.929 619.155C177.783 617.019 178.356 614.896 179.555 613.123L177.976 612.055Z" stroke="#839672" stroke-width="4" mask="url(#path-48-inside-2_1415_24738)"/>
<path d="M170.062 639.333V640.147H167.972V647H166.971V640.147H164.87V639.333H170.062ZM172.295 641.951C172.471 641.606 172.721 641.339 173.043 641.148C173.373 640.957 173.773 640.862 174.242 640.862V641.896H173.978C172.856 641.896 172.295 642.505 172.295 643.722V647H171.294V640.972H172.295V641.951ZM175.024 643.964C175.024 643.348 175.148 642.809 175.398 642.347C175.647 641.878 175.988 641.515 176.421 641.258C176.861 641.001 177.348 640.873 177.884 640.873C178.412 640.873 178.87 640.987 179.259 641.214C179.647 641.441 179.937 641.727 180.128 642.072V640.972H181.14V647H180.128V645.878C179.93 646.23 179.633 646.523 179.237 646.758C178.848 646.985 178.393 647.099 177.873 647.099C177.337 647.099 176.853 646.967 176.421 646.703C175.988 646.439 175.647 646.069 175.398 645.592C175.148 645.115 175.024 644.573 175.024 643.964ZM180.128 643.975C180.128 643.52 180.036 643.124 179.853 642.787C179.669 642.45 179.42 642.193 179.105 642.017C178.797 641.834 178.456 641.742 178.082 641.742C177.708 641.742 177.367 641.83 177.059 642.006C176.751 642.182 176.505 642.439 176.322 642.776C176.138 643.113 176.047 643.509 176.047 643.964C176.047 644.426 176.138 644.829 176.322 645.174C176.505 645.511 176.751 645.772 177.059 645.955C177.367 646.131 177.708 646.219 178.082 646.219C178.456 646.219 178.797 646.131 179.105 645.955C179.42 645.772 179.669 645.511 179.853 645.174C180.036 644.829 180.128 644.43 180.128 643.975ZM182.457 643.975C182.457 643.352 182.582 642.809 182.831 642.347C183.081 641.878 183.425 641.515 183.865 641.258C184.313 641.001 184.822 640.873 185.394 640.873C186.135 640.873 186.744 641.053 187.22 641.412C187.704 641.771 188.023 642.27 188.177 642.908H187.099C186.997 642.541 186.795 642.252 186.494 642.039C186.201 641.826 185.834 641.72 185.394 641.72C184.822 641.72 184.36 641.918 184.008 642.314C183.656 642.703 183.48 643.256 183.48 643.975C183.48 644.701 183.656 645.262 184.008 645.658C184.36 646.054 184.822 646.252 185.394 646.252C185.834 646.252 186.201 646.149 186.494 645.944C186.788 645.739 186.989 645.445 187.099 645.064H188.177C188.016 645.68 187.693 646.175 187.209 646.549C186.725 646.916 186.12 647.099 185.394 647.099C184.822 647.099 184.313 646.971 183.865 646.714C183.425 646.457 183.081 646.094 182.831 645.625C182.582 645.156 182.457 644.606 182.457 643.975ZM192.879 647L190.514 644.338V647H189.513V638.86H190.514V643.645L192.835 640.972H194.232L191.394 643.975L194.243 647H192.879ZM195.691 639.993C195.5 639.993 195.339 639.927 195.207 639.795C195.075 639.663 195.009 639.502 195.009 639.311C195.009 639.12 195.075 638.959 195.207 638.827C195.339 638.695 195.5 638.629 195.691 638.629C195.874 638.629 196.028 638.695 196.153 638.827C196.285 638.959 196.351 639.12 196.351 639.311C196.351 639.502 196.285 639.663 196.153 639.795C196.028 639.927 195.874 639.993 195.691 639.993ZM196.175 640.972V647H195.174V640.972H196.175ZM200.818 640.862C201.552 640.862 202.146 641.086 202.6 641.533C203.055 641.973 203.282 642.611 203.282 643.447V647H202.292V643.59C202.292 642.989 202.142 642.53 201.841 642.215C201.541 641.892 201.13 641.731 200.609 641.731C200.081 641.731 199.66 641.896 199.344 642.226C199.036 642.556 198.882 643.036 198.882 643.667V647H197.881V640.972H198.882V641.83C199.08 641.522 199.348 641.284 199.685 641.115C200.03 640.946 200.408 640.862 200.818 640.862ZM207.403 640.873C207.924 640.873 208.379 640.987 208.767 641.214C209.163 641.441 209.457 641.727 209.647 642.072V640.972H210.659V647.132C210.659 647.682 210.542 648.17 210.307 648.595C210.073 649.028 209.735 649.365 209.295 649.607C208.863 649.849 208.357 649.97 207.777 649.97C206.985 649.97 206.325 649.783 205.797 649.409C205.269 649.035 204.958 648.525 204.862 647.88H205.852C205.962 648.247 206.19 648.54 206.534 648.76C206.879 648.987 207.293 649.101 207.777 649.101C208.327 649.101 208.775 648.929 209.119 648.584C209.471 648.239 209.647 647.755 209.647 647.132V645.867C209.449 646.219 209.156 646.512 208.767 646.747C208.379 646.982 207.924 647.099 207.403 647.099C206.868 647.099 206.38 646.967 205.94 646.703C205.508 646.439 205.167 646.069 204.917 645.592C204.668 645.115 204.543 644.573 204.543 643.964C204.543 643.348 204.668 642.809 204.917 642.347C205.167 641.878 205.508 641.515 205.94 641.258C206.38 641.001 206.868 640.873 207.403 640.873ZM209.647 643.975C209.647 643.52 209.556 643.124 209.372 642.787C209.189 642.45 208.94 642.193 208.624 642.017C208.316 641.834 207.975 641.742 207.601 641.742C207.227 641.742 206.886 641.83 206.578 642.006C206.27 642.182 206.025 642.439 205.841 642.776C205.658 643.113 205.566 643.509 205.566 643.964C205.566 644.426 205.658 644.829 205.841 645.174C206.025 645.511 206.27 645.772 206.578 645.955C206.886 646.131 207.227 646.219 207.601 646.219C207.975 646.219 208.316 646.131 208.624 645.955C208.94 645.772 209.189 645.511 209.372 645.174C209.556 644.829 209.647 644.43 209.647 643.975Z" fill="#839672"/>
<rect x="75" y="592" width="75" height="75" fill="white"/>
<path d="M122.917 617.459C122.92 616.725 122.729 616.003 122.363 615.367C121.997 614.73 121.469 614.201 120.834 613.834C120.849 613.654 120.849 613.473 120.834 613.293C120.834 612.464 120.504 611.669 119.918 611.083C119.332 610.497 118.537 610.168 117.709 610.168H117.521C117.348 609.687 117.059 609.256 116.68 608.912C116.301 608.569 115.844 608.324 115.348 608.199C114.853 608.073 114.334 608.071 113.837 608.193C113.341 608.315 112.882 608.556 112.5 608.897C112.119 608.556 111.66 608.315 111.163 608.193C110.667 608.071 110.148 608.073 109.652 608.199C109.157 608.324 108.699 608.569 108.321 608.912C107.942 609.256 107.653 609.687 107.479 610.168H107.292C106.463 610.168 105.668 610.497 105.082 611.083C104.496 611.669 104.167 612.464 104.167 613.293C104.151 613.473 104.151 613.654 104.167 613.834C103.576 614.169 103.075 614.642 102.709 615.214C102.342 615.786 102.121 616.438 102.065 617.115C102.008 617.792 102.118 618.472 102.385 619.097C102.651 619.721 103.066 620.271 103.594 620.699C103.253 621.336 103.083 622.05 103.101 622.773C103.119 623.495 103.325 624.2 103.698 624.819C104.071 625.437 104.598 625.949 105.228 626.302C105.858 626.655 106.569 626.839 107.292 626.834H107.479C107.653 627.315 107.942 627.746 108.321 628.09C108.699 628.433 109.157 628.678 109.652 628.804C110.148 628.929 110.667 628.931 111.163 628.809C111.66 628.687 112.119 628.446 112.5 628.105C112.882 628.446 113.341 628.687 113.837 628.809C114.334 628.931 114.853 628.929 115.348 628.804C115.844 628.678 116.301 628.433 116.68 628.09C117.059 627.746 117.348 627.315 117.521 626.834H117.709C118.427 626.83 119.131 626.64 119.754 626.283C120.377 625.926 120.897 625.414 121.264 624.796C121.631 624.179 121.832 623.477 121.848 622.76C121.864 622.042 121.694 621.332 121.354 620.699C121.84 620.31 122.233 619.817 122.503 619.256C122.774 618.696 122.915 618.082 122.917 617.459ZM111.459 614.907C111.232 614.778 110.995 614.666 110.75 614.574C110.488 614.486 110.201 614.505 109.953 614.628C109.705 614.751 109.516 614.968 109.427 615.23C109.339 615.493 109.358 615.78 109.481 616.028C109.605 616.276 109.821 616.465 110.084 616.553C110.485 616.698 110.831 616.963 111.077 617.311C111.323 617.659 111.456 618.075 111.459 618.501V620.116C111.232 619.986 110.995 619.874 110.75 619.782C110.488 619.694 110.201 619.713 109.953 619.836C109.705 619.96 109.516 620.176 109.427 620.439C109.339 620.701 109.358 620.988 109.481 621.236C109.605 621.484 109.821 621.673 110.084 621.761C110.485 621.906 110.831 622.171 111.077 622.519C111.323 622.868 111.456 623.283 111.459 623.709V625.793C111.459 626.069 111.349 626.334 111.153 626.529C110.958 626.725 110.693 626.834 110.417 626.834C110.215 626.833 110.019 626.773 109.85 626.662C109.682 626.551 109.55 626.394 109.469 626.209C109.644 626.107 109.811 625.992 109.969 625.866C110.074 625.778 110.161 625.671 110.225 625.549C110.289 625.428 110.328 625.296 110.341 625.159C110.353 625.023 110.339 624.885 110.298 624.755C110.258 624.624 110.192 624.502 110.104 624.397C110.017 624.292 109.909 624.205 109.788 624.141C109.667 624.077 109.534 624.038 109.398 624.025C109.262 624.012 109.124 624.027 108.993 624.067C108.863 624.108 108.741 624.174 108.636 624.261C108.26 624.578 107.784 624.752 107.292 624.751C106.739 624.751 106.209 624.532 105.819 624.141C105.428 623.75 105.209 623.22 105.209 622.668C105.214 622.276 105.329 621.893 105.542 621.564C105.776 621.605 106.013 621.626 106.25 621.626C106.527 621.626 106.791 621.516 106.987 621.321C107.182 621.126 107.292 620.861 107.292 620.584C107.292 620.308 107.182 620.043 106.987 619.848C106.791 619.652 106.527 619.543 106.25 619.543C106.004 619.544 105.76 619.498 105.531 619.407C105.157 619.272 104.829 619.033 104.586 618.717C104.344 618.401 104.197 618.022 104.163 617.625C104.129 617.228 104.209 616.83 104.394 616.478C104.58 616.125 104.862 615.833 105.209 615.636C105.357 615.773 105.517 615.895 105.688 616.001C105.928 616.139 106.213 616.176 106.481 616.104C106.749 616.032 106.977 615.856 107.115 615.616C107.253 615.375 107.29 615.09 107.218 614.822C107.145 614.555 106.97 614.327 106.729 614.189C106.583 614.108 106.46 613.989 106.375 613.845C106.279 613.678 106.235 613.485 106.25 613.293C106.25 613.016 106.36 612.752 106.555 612.556C106.751 612.361 107.016 612.251 107.292 612.251C107.364 612.241 107.438 612.241 107.511 612.251C107.566 612.418 107.632 612.582 107.709 612.741C107.777 612.86 107.868 612.965 107.976 613.049C108.085 613.133 108.209 613.195 108.342 613.23C108.475 613.266 108.613 613.275 108.749 613.258C108.885 613.24 109.017 613.195 109.136 613.126C109.367 612.987 109.535 612.764 109.605 612.504C109.675 612.243 109.641 611.966 109.511 611.73C109.423 611.57 109.377 611.392 109.375 611.209C109.375 610.933 109.485 610.668 109.68 610.473C109.876 610.277 110.141 610.168 110.417 610.168C110.693 610.168 110.958 610.277 111.153 610.473C111.349 610.668 111.459 610.933 111.459 611.209V614.907ZM119.469 619.407C119.24 619.498 118.996 619.544 118.75 619.543C118.474 619.543 118.209 619.652 118.014 619.848C117.818 620.043 117.709 620.308 117.709 620.584C117.709 620.861 117.818 621.126 118.014 621.321C118.209 621.516 118.474 621.626 118.75 621.626C118.988 621.626 119.225 621.605 119.459 621.564C119.671 621.893 119.787 622.276 119.792 622.668C119.792 623.22 119.572 623.75 119.182 624.141C118.791 624.532 118.261 624.751 117.709 624.751C117.217 624.752 116.741 624.578 116.365 624.261C116.152 624.085 115.878 624 115.602 624.025C115.327 624.05 115.073 624.184 114.896 624.397C114.719 624.61 114.634 624.884 114.66 625.159C114.685 625.435 114.819 625.689 115.031 625.866C115.19 625.992 115.357 626.107 115.531 626.209C115.451 626.394 115.318 626.551 115.15 626.662C114.982 626.773 114.785 626.833 114.584 626.834C114.307 626.834 114.042 626.725 113.847 626.529C113.652 626.334 113.542 626.069 113.542 625.793V623.709C113.544 623.283 113.677 622.868 113.923 622.519C114.169 622.171 114.516 621.906 114.917 621.761C115.179 621.673 115.396 621.484 115.519 621.236C115.642 620.988 115.662 620.701 115.573 620.439C115.485 620.176 115.296 619.96 115.048 619.836C114.8 619.713 114.513 619.694 114.25 619.782C114.006 619.874 113.769 619.986 113.542 620.116V618.501C113.544 618.075 113.677 617.659 113.923 617.311C114.169 616.963 114.516 616.698 114.917 616.553C115.179 616.465 115.396 616.276 115.519 616.028C115.642 615.78 115.662 615.493 115.573 615.23C115.485 614.968 115.296 614.751 115.048 614.628C114.8 614.505 114.513 614.486 114.25 614.574C114.006 614.666 113.769 614.778 113.542 614.907V611.209C113.542 610.933 113.652 610.668 113.847 610.473C114.042 610.277 114.307 610.168 114.584 610.168C114.86 610.168 115.125 610.277 115.32 610.473C115.516 610.668 115.625 610.933 115.625 611.209C115.624 611.392 115.577 611.57 115.49 611.73C115.421 611.848 115.375 611.979 115.357 612.115C115.338 612.251 115.346 612.389 115.381 612.522C115.416 612.654 115.477 612.779 115.56 612.888C115.643 612.997 115.746 613.088 115.865 613.157C115.984 613.226 116.115 613.271 116.251 613.289C116.388 613.307 116.526 613.297 116.659 613.262C116.791 613.226 116.915 613.164 117.024 613.08C117.133 612.996 117.224 612.891 117.292 612.772C117.37 612.603 117.436 612.429 117.49 612.251C117.562 612.241 117.636 612.241 117.709 612.251C117.985 612.251 118.25 612.361 118.445 612.556C118.641 612.752 118.75 613.016 118.75 613.293C118.749 613.497 118.687 613.696 118.573 613.866C118.488 614.001 118.37 614.112 118.229 614.189C117.989 614.327 117.813 614.555 117.741 614.822C117.669 615.09 117.706 615.375 117.844 615.616C117.982 615.856 118.21 616.032 118.478 616.104C118.745 616.176 119.031 616.139 119.271 616.001C119.458 615.9 119.633 615.778 119.792 615.636C120.139 615.83 120.424 616.119 120.613 616.469C120.801 616.819 120.886 617.215 120.856 617.612C120.827 618.008 120.684 618.388 120.446 618.706C120.207 619.024 119.883 619.268 119.511 619.407H119.469Z" fill="#242424"/>
<path d="M98.4361 645.295H95.0921L94.4761 647H93.4201L96.1921 639.377H97.3471L100.108 647H99.0521L98.4361 645.295ZM98.1501 644.481L96.7641 640.609L95.3781 644.481H98.1501ZM100.942 643.975C100.942 643.352 101.067 642.809 101.316 642.347C101.566 641.878 101.91 641.515 102.35 641.258C102.798 641.001 103.307 640.873 103.879 640.873C104.62 640.873 105.229 641.053 105.705 641.412C106.189 641.771 106.508 642.27 106.662 642.908H105.584C105.482 642.541 105.28 642.252 104.979 642.039C104.686 641.826 104.319 641.72 103.879 641.72C103.307 641.72 102.845 641.918 102.493 642.314C102.141 642.703 101.965 643.256 101.965 643.975C101.965 644.701 102.141 645.262 102.493 645.658C102.845 646.054 103.307 646.252 103.879 646.252C104.319 646.252 104.686 646.149 104.979 645.944C105.273 645.739 105.474 645.445 105.584 645.064H106.662C106.501 645.68 106.178 646.175 105.694 646.549C105.21 646.916 104.605 647.099 103.879 647.099C103.307 647.099 102.798 646.971 102.35 646.714C101.91 646.457 101.566 646.094 101.316 645.625C101.067 645.156 100.942 644.606 100.942 643.975ZM109.219 641.797V645.35C109.219 645.643 109.281 645.852 109.406 645.977C109.531 646.094 109.747 646.153 110.055 646.153H110.792V647H109.89C109.333 647 108.915 646.872 108.636 646.615C108.357 646.358 108.218 645.937 108.218 645.35V641.797H107.437V640.972H108.218V639.454H109.219V640.972H110.792V641.797H109.219ZM112.522 639.993C112.331 639.993 112.17 639.927 112.038 639.795C111.906 639.663 111.84 639.502 111.84 639.311C111.84 639.12 111.906 638.959 112.038 638.827C112.17 638.695 112.331 638.629 112.522 638.629C112.705 638.629 112.859 638.695 112.984 638.827C113.116 638.959 113.182 639.12 113.182 639.311C113.182 639.502 113.116 639.663 112.984 639.795C112.859 639.927 112.705 639.993 112.522 639.993ZM113.006 640.972V647H112.005V640.972H113.006ZM116.956 646.076L118.826 640.972H119.893L117.528 647H116.362L113.997 640.972H115.075L116.956 646.076ZM121.395 639.993C121.204 639.993 121.043 639.927 120.911 639.795C120.779 639.663 120.713 639.502 120.713 639.311C120.713 639.12 120.779 638.959 120.911 638.827C121.043 638.695 121.204 638.629 121.395 638.629C121.578 638.629 121.732 638.695 121.857 638.827C121.989 638.959 122.055 639.12 122.055 639.311C122.055 639.502 121.989 639.663 121.857 639.795C121.732 639.927 121.578 639.993 121.395 639.993ZM121.879 640.972V647H120.878V640.972H121.879ZM124.806 641.797V645.35C124.806 645.643 124.868 645.852 124.993 645.977C125.117 646.094 125.334 646.153 125.642 646.153H126.379V647H125.477C124.919 647 124.501 646.872 124.223 646.615C123.944 646.358 123.805 645.937 123.805 645.35V641.797H123.024V640.972H123.805V639.454H124.806V640.972H126.379V641.797H124.806ZM132.784 640.972L129.154 649.838H128.12L129.308 646.934L126.877 640.972H127.988L129.88 645.856L131.75 640.972H132.784Z" fill="#242424"/>
<rect y="592" width="75" height="75" fill="white"/>
<path d="M28.875 614.625L37.5 607.917L46.125 614.625V625.167C46.125 625.675 45.9231 626.162 45.5636 626.522C45.2042 626.881 44.7167 627.083 44.2083 627.083H30.7917C30.2833 627.083 29.7958 626.881 29.4364 626.522C29.0769 626.162 28.875 625.675 28.875 625.167V614.625Z" stroke="#242424" stroke-width="2" stroke-linecap="round" stroke-linejoin="round"/>
<path d="M34.625 627.083V617.5H40.375V627.083" stroke="#242424" stroke-width="2" stroke-linecap="round" stroke-linejoin="round"/>
<path d="M10.5167 639.333C11.3527 639.333 12.075 639.491 12.6837 639.806C13.2997 640.114 13.769 640.558 14.0917 641.137C14.4217 641.716 14.5867 642.398 14.5867 643.183C14.5867 643.968 14.4217 644.65 14.0917 645.229C13.769 645.801 13.2997 646.241 12.6837 646.549C12.075 646.85 11.3527 647 10.5167 647H8.12971V639.333H10.5167ZM10.5167 646.175C11.5067 646.175 12.262 645.915 12.7827 645.394C13.3034 644.866 13.5637 644.129 13.5637 643.183C13.5637 642.23 13.2997 641.485 12.7717 640.95C12.251 640.415 11.4994 640.147 10.5167 640.147H9.13071V646.175H10.5167ZM15.5331 643.964C15.5331 643.348 15.6577 642.809 15.9071 642.347C16.1564 641.878 16.4974 641.515 16.9301 641.258C17.3701 641.001 17.8577 640.873 18.3931 640.873C18.9211 640.873 19.3794 640.987 19.7681 641.214C20.1567 641.441 20.4464 641.727 20.6371 642.072V640.972H21.6491V647H20.6371V645.878C20.4391 646.23 20.1421 646.523 19.7461 646.758C19.3574 646.985 18.9027 647.099 18.3821 647.099C17.8467 647.099 17.3627 646.967 16.9301 646.703C16.4974 646.439 16.1564 646.069 15.9071 645.592C15.6577 645.115 15.5331 644.573 15.5331 643.964ZM20.6371 643.975C20.6371 643.52 20.5454 643.124 20.3621 642.787C20.1787 642.45 19.9294 642.193 19.6141 642.017C19.3061 641.834 18.9651 641.742 18.5911 641.742C18.2171 641.742 17.8761 641.83 17.5681 642.006C17.2601 642.182 17.0144 642.439 16.8311 642.776C16.6477 643.113 16.5561 643.509 16.5561 643.964C16.5561 644.426 16.6477 644.829 16.8311 645.174C17.0144 645.511 17.2601 645.772 17.5681 645.955C17.8761 646.131 18.2171 646.219 18.5911 646.219C18.9651 646.219 19.3061 646.131 19.6141 645.955C19.9294 645.772 20.1787 645.511 20.3621 645.174C20.5454 644.829 20.6371 644.43 20.6371 643.975ZM25.4747 647.099C25.0127 647.099 24.5983 647.022 24.2317 646.868C23.865 646.707 23.5753 646.487 23.3627 646.208C23.15 645.922 23.0327 645.596 23.0107 645.229H24.0447C24.074 645.53 24.2133 645.775 24.4627 645.966C24.7193 646.157 25.053 646.252 25.4637 646.252C25.845 646.252 26.1457 646.168 26.3657 645.999C26.5857 645.83 26.6957 645.618 26.6957 645.361C26.6957 645.097 26.5783 644.903 26.3437 644.778C26.109 644.646 25.746 644.518 25.2547 644.393C24.8073 644.276 24.4407 644.158 24.1547 644.041C23.876 643.916 23.634 643.737 23.4287 643.502C23.2307 643.26 23.1317 642.945 23.1317 642.556C23.1317 642.248 23.2233 641.966 23.4067 641.709C23.59 641.452 23.8503 641.251 24.1877 641.104C24.525 640.95 24.91 640.873 25.3427 640.873C26.01 640.873 26.549 641.042 26.9597 641.379C27.3703 641.716 27.5903 642.178 27.6197 642.765H26.6187C26.5967 642.45 26.4683 642.197 26.2337 642.006C26.0063 641.815 25.6983 641.72 25.3097 641.72C24.9503 641.72 24.6643 641.797 24.4517 641.951C24.239 642.105 24.1327 642.307 24.1327 642.556C24.1327 642.754 24.195 642.919 24.3197 643.051C24.4517 643.176 24.613 643.278 24.8037 643.359C25.0017 643.432 25.273 643.517 25.6177 643.612C26.0503 643.729 26.4023 643.847 26.6737 643.964C26.945 644.074 27.176 644.243 27.3667 644.47C27.5647 644.697 27.6673 644.994 27.6747 645.361C27.6747 645.691 27.583 645.988 27.3997 646.252C27.2163 646.516 26.956 646.725 26.6187 646.879C26.2887 647.026 25.9073 647.099 25.4747 647.099ZM32.0797 640.862C32.5344 640.862 32.9451 640.961 33.3117 641.159C33.6784 641.35 33.9644 641.639 34.1697 642.028C34.3824 642.417 34.4887 642.89 34.4887 643.447V647H33.4987V643.59C33.4987 642.989 33.3484 642.53 33.0477 642.215C32.7471 641.892 32.3364 641.731 31.8157 641.731C31.2877 641.731 30.8661 641.896 30.5507 642.226C30.2427 642.556 30.0887 643.036 30.0887 643.667V647H29.0877V638.86H30.0887V641.83C30.2867 641.522 30.5581 641.284 30.9027 641.115C31.2547 640.946 31.6471 640.862 32.0797 640.862ZM37.1249 642.094C37.3302 641.735 37.6309 641.441 38.0269 641.214C38.4229 640.987 38.8739 640.873 39.3799 640.873C39.9225 640.873 40.4102 641.001 40.8429 641.258C41.2755 641.515 41.6165 641.878 41.8659 642.347C42.1152 642.809 42.2399 643.348 42.2399 643.964C42.2399 644.573 42.1152 645.115 41.8659 645.592C41.6165 646.069 41.2719 646.439 40.8319 646.703C40.3992 646.967 39.9152 647.099 39.3799 647.099C38.8592 647.099 38.4009 646.985 38.0049 646.758C37.6162 646.531 37.3229 646.241 37.1249 645.889V647H36.1239V638.86H37.1249V642.094ZM41.2169 643.964C41.2169 643.509 41.1252 643.113 40.9419 642.776C40.7585 642.439 40.5092 642.182 40.1939 642.006C39.8859 641.83 39.5449 641.742 39.1709 641.742C38.8042 641.742 38.4632 641.834 38.1479 642.017C37.8399 642.193 37.5905 642.453 37.3999 642.798C37.2165 643.135 37.1249 643.528 37.1249 643.975C37.1249 644.43 37.2165 644.829 37.3999 645.174C37.5905 645.511 37.8399 645.772 38.1479 645.955C38.4632 646.131 38.8042 646.219 39.1709 646.219C39.5449 646.219 39.8859 646.131 40.1939 645.955C40.5092 645.772 40.7585 645.511 40.9419 645.174C41.1252 644.829 41.2169 644.426 41.2169 643.964ZM46.1864 647.099C45.6218 647.099 45.1084 646.971 44.6464 646.714C44.1918 646.457 43.8324 646.094 43.5684 645.625C43.3118 645.148 43.1834 644.598 43.1834 643.975C43.1834 643.359 43.3154 642.816 43.5794 642.347C43.8508 641.87 44.2174 641.507 44.6794 641.258C45.1414 641.001 45.6584 640.873 46.2304 640.873C46.8024 640.873 47.3194 641.001 47.7814 641.258C48.2434 641.507 48.6064 641.867 48.8704 642.336C49.1418 642.805 49.2774 643.352 49.2774 643.975C49.2774 644.598 49.1381 645.148 48.8594 645.625C48.5881 646.094 48.2178 646.457 47.7484 646.714C47.2791 646.971 46.7584 647.099 46.1864 647.099ZM46.1864 646.219C46.5458 646.219 46.8831 646.135 47.1984 645.966C47.5138 645.797 47.7668 645.544 47.9574 645.207C48.1554 644.87 48.2544 644.459 48.2544 643.975C48.2544 643.491 48.1591 643.08 47.9684 642.743C47.7778 642.406 47.5284 642.156 47.2204 641.995C46.9124 641.826 46.5788 641.742 46.2194 641.742C45.8528 641.742 45.5154 641.826 45.2074 641.995C44.9068 642.156 44.6648 642.406 44.4814 642.743C44.2981 643.08 44.2064 643.491 44.2064 643.975C44.2064 644.466 44.2944 644.881 44.4704 645.218C44.6538 645.555 44.8958 645.808 45.1964 645.977C45.4971 646.138 45.8271 646.219 46.1864 646.219ZM50.2196 643.964C50.2196 643.348 50.3442 642.809 50.5936 642.347C50.8429 641.878 51.1839 641.515 51.6166 641.258C52.0566 641.001 52.5442 640.873 53.0796 640.873C53.6076 640.873 54.0659 640.987 54.4546 641.214C54.8432 641.441 55.1329 641.727 55.3236 642.072V640.972H56.3356V647H55.3236V645.878C55.1256 646.23 54.8286 646.523 54.4326 646.758C54.0439 646.985 53.5892 647.099 53.0686 647.099C52.5332 647.099 52.0492 646.967 51.6166 646.703C51.1839 646.439 50.8429 646.069 50.5936 645.592C50.3442 645.115 50.2196 644.573 50.2196 643.964ZM55.3236 643.975C55.3236 643.52 55.2319 643.124 55.0486 642.787C54.8652 642.45 54.6159 642.193 54.3006 642.017C53.9926 641.834 53.6516 641.742 53.2776 641.742C52.9036 641.742 52.5626 641.83 52.2546 642.006C51.9466 642.182 51.7009 642.439 51.5176 642.776C51.3342 643.113 51.2426 643.509 51.2426 643.964C51.2426 644.426 51.3342 644.829 51.5176 645.174C51.7009 645.511 51.9466 645.772 52.2546 645.955C52.5626 646.131 52.9036 646.219 53.2776 646.219C53.6516 646.219 53.9926 646.131 54.3006 645.955C54.6159 645.772 54.8652 645.511 55.0486 645.174C55.2319 644.829 55.3236 644.43 55.3236 643.975ZM59.0282 641.951C59.2042 641.606 59.4535 641.339 59.7762 641.148C60.1062 640.957 60.5058 640.862 60.9752 640.862V641.896H60.7112C59.5892 641.896 59.0282 642.505 59.0282 643.722V647H58.0272V640.972H59.0282V641.951ZM61.7567 643.964C61.7567 643.348 61.8814 642.809 62.1307 642.347C62.38 641.878 62.721 641.515 63.1537 641.258C63.5937 641.001 64.085 640.873 64.6277 640.873C65.097 640.873 65.5334 640.983 65.9367 641.203C66.34 641.416 66.648 641.698 66.8607 642.05V638.86H67.8727V647H66.8607V645.867C66.6627 646.226 66.3694 646.523 65.9807 646.758C65.592 646.985 65.1374 647.099 64.6167 647.099C64.0814 647.099 63.5937 646.967 63.1537 646.703C62.721 646.439 62.38 646.069 62.1307 645.592C61.8814 645.115 61.7567 644.573 61.7567 643.964ZM66.8607 643.975C66.8607 643.52 66.769 643.124 66.5857 642.787C66.4024 642.45 66.153 642.193 65.8377 642.017C65.5297 641.834 65.1887 641.742 64.8147 641.742C64.4407 641.742 64.0997 641.83 63.7917 642.006C63.4837 642.182 63.238 642.439 63.0547 642.776C62.8714 643.113 62.7797 643.509 62.7797 643.964C62.7797 644.426 62.8714 644.829 63.0547 645.174C63.238 645.511 63.4837 645.772 63.7917 645.955C64.0997 646.131 64.4407 646.219 64.8147 646.219C65.1887 646.219 65.5297 646.131 65.8377 645.955C66.153 645.772 66.4024 645.511 66.5857 645.174C66.769 644.829 66.8607 644.43 66.8607 643.975Z" fill="#242424"/>
</g>
<rect x="0.5" y="0.5" width="374" height="666" stroke="black"/>
<defs>
<filter id="filter0_d_1415_24738" x="-4" y="-2" width="383" height="88" filterUnits="userSpaceOnUse" color-interpolation-filters="sRGB">
<feFlood flood-opacity="0" result="BackgroundImageFix"/>
<feColorMatrix in="SourceAlpha" type="matrix" values="0 0 0 0 0 0 0 0 0 0 0 0 0 0 0 0 0 0 127 0" result="hardAlpha"/>
<feOffset dy="2"/>
<feGaussianBlur stdDeviation="2"/>
<feComposite in2="hardAlpha" operator="out"/>
<feColorMatrix type="matrix" values="0 0 0 0 0 0 0 0 0 0 0 0 0 0 0 0 0 0 0.25 0"/>
<feBlend mode="normal" in2="BackgroundImageFix" result="effect1_dropShadow_1415_24738"/>
<feBlend mode="normal" in="SourceGraphic" in2="effect1_dropShadow_1415_24738" result="shape"/>
</filter>
<filter id="filter1_d_1415_24738" x="300" y="522" width="67" height="67" filterUnits="userSpaceOnUse" color-interpolation-filters="sRGB">
<feFlood flood-opacity="0" result="BackgroundImageFix"/>
<feColorMatrix in="SourceAlpha" type="matrix" values="0 0 0 0 0 0 0 0 0 0 0 0 0 0 0 0 0 0 127 0" result="hardAlpha"/>
<feMorphology radius="2" operator="dilate" in="SourceAlpha" result="effect1_dropShadow_1415_24738"/>
<feOffset dx="2" dy="2"/>
<feGaussianBlur stdDeviation="4"/>
<feComposite in2="hardAlpha" operator="out"/>
<feColorMatrix type="matrix" values="0 0 0 0 0 0 0 0 0 0 0 0 0 0 0 0 0 0 0.25 0"/>
<feBlend mode="normal" in2="BackgroundImageFix" result="effect1_dropShadow_1415_24738"/>
<feBlend mode="normal" in="SourceGraphic" in2="effect1_dropShadow_1415_24738" result="shape"/>
</filter>
<clipPath id="clip0_1415_24738">
<rect width="375" height="667" fill="white"/>
</clipPath>
</defs>
</svg>
