<svg width="375" height="667" viewBox="0 0 375 667" fill="none" xmlns="http://www.w3.org/2000/svg">
<rect x="0.5" y="0.5" width="374" height="666" fill="white"/>
<circle cx="29" cy="154" r="19" stroke="#C4C4C4" stroke-width="2"/>
<path d="M29.5636 152.098C28.9196 152.098 28.3409 151.986 27.8276 151.762C27.3236 151.529 26.9269 151.211 26.6376 150.81C26.3483 150.399 26.1989 149.928 26.1896 149.396H27.5476C27.5943 149.853 27.7809 150.241 28.1076 150.558C28.4436 150.866 28.9289 151.02 29.5636 151.02C30.1703 151.02 30.6463 150.871 30.9916 150.572C31.3463 150.264 31.5236 149.872 31.5236 149.396C31.5236 149.023 31.4209 148.719 31.2156 148.486C31.0103 148.253 30.7536 148.075 30.4456 147.954C30.1376 147.833 29.7223 147.702 29.1996 147.562C28.5556 147.394 28.0376 147.226 27.6456 147.058C27.2629 146.89 26.9316 146.629 26.6516 146.274C26.3809 145.91 26.2456 145.425 26.2456 144.818C26.2456 144.286 26.3809 143.815 26.6516 143.404C26.9223 142.993 27.3003 142.676 27.7856 142.452C28.2803 142.228 28.8449 142.116 29.4796 142.116C30.3943 142.116 31.1409 142.345 31.7196 142.802C32.3076 143.259 32.6389 143.866 32.7136 144.622H31.3136C31.2669 144.249 31.0709 143.922 30.7256 143.642C30.3803 143.353 29.9229 143.208 29.3536 143.208C28.8216 143.208 28.3876 143.348 28.0516 143.628C27.7156 143.899 27.5476 144.281 27.5476 144.776C27.5476 145.131 27.6456 145.42 27.8416 145.644C28.0469 145.868 28.2943 146.041 28.5836 146.162C28.8823 146.274 29.2976 146.405 29.8296 146.554C30.4736 146.731 30.9916 146.909 31.3836 147.086C31.7756 147.254 32.1116 147.52 32.3916 147.884C32.6716 148.239 32.8116 148.724 32.8116 149.34C32.8116 149.816 32.6856 150.264 32.4336 150.684C32.1816 151.104 31.8083 151.445 31.3136 151.706C30.8189 151.967 30.2356 152.098 29.5636 152.098ZM21.7443 164.978C22.9296 164.026 23.8583 163.247 24.5303 162.64C25.2023 162.024 25.7669 161.385 26.2243 160.722C26.6909 160.05 26.9243 159.392 26.9243 158.748C26.9243 158.141 26.7749 157.665 26.4763 157.32C26.1869 156.965 25.7156 156.788 25.0623 156.788C24.4276 156.788 23.9329 156.989 23.5783 157.39C23.2329 157.782 23.0463 158.309 23.0183 158.972H21.7863C21.8236 157.927 22.1409 157.119 22.7383 156.55C23.3356 155.981 24.1056 155.696 25.0483 155.696C26.0096 155.696 26.7703 155.962 27.3303 156.494C27.8996 157.026 28.1843 157.759 28.1843 158.692C28.1843 159.467 27.9509 160.223 27.4843 160.96C27.0269 161.688 26.5043 162.332 25.9163 162.892C25.3283 163.443 24.5769 164.087 23.6623 164.824H28.4783V165.888H21.7443V164.978ZM35.593 158.286C35.3877 157.25 34.7483 156.732 33.675 156.732C32.8443 156.732 32.2237 157.054 31.813 157.698C31.4023 158.333 31.2017 159.383 31.211 160.848C31.4257 160.363 31.7803 159.985 32.275 159.714C32.779 159.434 33.339 159.294 33.955 159.294C34.9163 159.294 35.6817 159.593 36.251 160.19C36.8297 160.787 37.119 161.613 37.119 162.668C37.119 163.303 36.993 163.872 36.741 164.376C36.4983 164.88 36.125 165.281 35.621 165.58C35.1263 165.879 34.5243 166.028 33.815 166.028C32.8537 166.028 32.1023 165.813 31.561 165.384C31.0197 164.955 30.6417 164.362 30.427 163.606C30.2123 162.85 30.105 161.917 30.105 160.806C30.105 157.381 31.2997 155.668 33.689 155.668C34.6037 155.668 35.3223 155.915 35.845 156.41C36.3677 156.905 36.6757 157.53 36.769 158.286H35.593ZM33.689 160.372C33.2877 160.372 32.9097 160.456 32.555 160.624C32.2003 160.783 31.911 161.03 31.687 161.366C31.4723 161.693 31.365 162.094 31.365 162.57C31.365 163.279 31.5703 163.858 31.981 164.306C32.3917 164.745 32.9797 164.964 33.745 164.964C34.3983 164.964 34.9163 164.763 35.299 164.362C35.691 163.951 35.887 163.401 35.887 162.71C35.887 161.982 35.7003 161.413 35.327 161.002C34.9537 160.582 34.4077 160.372 33.689 160.372Z" fill="black"/>
<circle cx="82" cy="154" r="19" stroke="#C4C4C4" stroke-width="2"/>
<path d="M86.9467 142.312V152H85.6727V144.776L82.4527 152H81.5567L78.3227 144.762V152H77.0487V142.312H78.4207L82.0047 150.32L85.5887 142.312H86.9467ZM74.8663 164.978C76.0517 164.026 76.9803 163.247 77.6523 162.64C78.3243 162.024 78.889 161.385 79.3463 160.722C79.813 160.05 80.0463 159.392 80.0463 158.748C80.0463 158.141 79.897 157.665 79.5983 157.32C79.309 156.965 78.8377 156.788 78.1843 156.788C77.5497 156.788 77.055 156.989 76.7003 157.39C76.355 157.782 76.1683 158.309 76.1403 158.972H74.9083C74.9457 157.927 75.263 157.119 75.8603 156.55C76.4577 155.981 77.2277 155.696 78.1703 155.696C79.1317 155.696 79.8923 155.962 80.4523 156.494C81.0217 157.026 81.3063 157.759 81.3063 158.692C81.3063 159.467 81.073 160.223 80.6063 160.96C80.149 161.688 79.6263 162.332 79.0383 162.892C78.4503 163.443 77.699 164.087 76.7843 164.824H81.6003V165.888H74.8663V164.978ZM89.3031 156.872L85.4111 166H84.1231L88.0711 156.998H82.6671V155.906H89.3031V156.872Z" fill="black"/>
<circle cx="134" cy="154" r="19" stroke="#C4C4C4" stroke-width="2"/>
<path d="M137.797 142.242V143.278H135.137V152H133.863V143.278H131.189V142.242H137.797ZM126.772 164.978C127.957 164.026 128.886 163.247 129.558 162.64C130.23 162.024 130.794 161.385 131.252 160.722C131.718 160.05 131.952 159.392 131.952 158.748C131.952 158.141 131.802 157.665 131.504 157.32C131.214 156.965 130.743 156.788 130.09 156.788C129.455 156.788 128.96 156.989 128.606 157.39C128.26 157.782 128.074 158.309 128.046 158.972H126.814C126.851 157.927 127.168 157.119 127.766 156.55C128.363 155.981 129.133 155.696 130.076 155.696C131.037 155.696 131.798 155.962 132.358 156.494C132.927 157.026 133.212 157.759 133.212 158.692C133.212 159.467 132.978 160.223 132.512 160.96C132.054 161.688 131.532 162.332 130.944 162.892C130.356 163.443 129.604 164.087 128.69 164.824H133.506V165.888H126.772V164.978ZM136.826 160.736C136.304 160.531 135.902 160.232 135.622 159.84C135.342 159.448 135.202 158.972 135.202 158.412C135.202 157.908 135.328 157.455 135.58 157.054C135.832 156.643 136.206 156.321 136.7 156.088C137.204 155.845 137.811 155.724 138.52 155.724C139.23 155.724 139.832 155.845 140.326 156.088C140.83 156.321 141.208 156.643 141.46 157.054C141.722 157.455 141.852 157.908 141.852 158.412C141.852 158.953 141.708 159.429 141.418 159.84C141.129 160.241 140.732 160.54 140.228 160.736C140.807 160.913 141.264 161.226 141.6 161.674C141.946 162.113 142.118 162.645 142.118 163.27C142.118 163.877 141.969 164.409 141.67 164.866C141.372 165.314 140.947 165.664 140.396 165.916C139.855 166.159 139.23 166.28 138.52 166.28C137.811 166.28 137.186 166.159 136.644 165.916C136.112 165.664 135.697 165.314 135.398 164.866C135.1 164.409 134.95 163.877 134.95 163.27C134.95 162.645 135.118 162.108 135.454 161.66C135.79 161.212 136.248 160.904 136.826 160.736ZM140.62 158.566C140.62 157.997 140.434 157.558 140.06 157.25C139.687 156.942 139.174 156.788 138.52 156.788C137.876 156.788 137.368 156.942 136.994 157.25C136.621 157.558 136.434 158.001 136.434 158.58C136.434 159.103 136.626 159.523 137.008 159.84C137.4 160.157 137.904 160.316 138.52 160.316C139.146 160.316 139.65 160.157 140.032 159.84C140.424 159.513 140.62 159.089 140.62 158.566ZM138.52 161.296C137.83 161.296 137.265 161.459 136.826 161.786C136.388 162.103 136.168 162.584 136.168 163.228C136.168 163.825 136.378 164.306 136.798 164.67C137.228 165.034 137.802 165.216 138.52 165.216C139.239 165.216 139.808 165.034 140.228 164.67C140.648 164.306 140.858 163.825 140.858 163.228C140.858 162.603 140.644 162.127 140.214 161.8C139.785 161.464 139.22 161.296 138.52 161.296Z" fill="black"/>
<circle cx="187" cy="154" r="19" stroke="#C4C4C4" stroke-width="2"/>
<mask id="path-9-inside-1_1415_24664" fill="white">
<path d="M181.607 173.259C183.339 173.744 185.128 173.993 186.926 174L186.933 172.008C185.314 172.002 183.704 171.777 182.145 171.341L181.607 173.259Z"/>
</mask>
<path d="M181.607 173.259C183.339 173.744 185.128 173.993 186.926 174L186.933 172.008C185.314 172.002 183.704 171.777 182.145 171.341L181.607 173.259Z" stroke="black" stroke-width="4" mask="url(#path-9-inside-1_1415_24664)"/>
<circle cx="187" cy="178" r="2" fill="black"/>
<path d="M194.013 142.242L191.185 152H189.757L187.489 144.146L185.137 152L183.723 152.014L180.993 142.242H182.351L184.479 150.516L186.831 142.242H188.259L190.499 150.488L192.641 142.242H194.013ZM179.778 164.978C180.964 164.026 181.892 163.247 182.564 162.64C183.236 162.024 183.801 161.385 184.258 160.722C184.725 160.05 184.958 159.392 184.958 158.748C184.958 158.141 184.809 157.665 184.51 157.32C184.221 156.965 183.75 156.788 183.096 156.788C182.462 156.788 181.967 156.989 181.612 157.39C181.267 157.782 181.08 158.309 181.052 158.972H179.82C179.858 157.927 180.175 157.119 180.772 156.55C181.37 155.981 182.14 155.696 183.082 155.696C184.044 155.696 184.804 155.962 185.364 156.494C185.934 157.026 186.218 157.759 186.218 158.692C186.218 159.467 185.985 160.223 185.518 160.96C185.061 161.688 184.538 162.332 183.95 162.892C183.362 163.443 182.611 164.087 181.696 164.824H186.512V165.888H179.778V164.978ZM189.623 163.284C189.717 163.816 189.931 164.227 190.267 164.516C190.613 164.805 191.075 164.95 191.653 164.95C192.428 164.95 192.997 164.647 193.361 164.04C193.735 163.433 193.912 162.411 193.893 160.974C193.697 161.394 193.371 161.725 192.913 161.968C192.456 162.201 191.947 162.318 191.387 162.318C190.762 162.318 190.202 162.192 189.707 161.94C189.222 161.679 188.839 161.301 188.559 160.806C188.279 160.311 188.139 159.714 188.139 159.014C188.139 158.015 188.429 157.213 189.007 156.606C189.586 155.99 190.407 155.682 191.471 155.682C192.778 155.682 193.693 156.107 194.215 156.956C194.747 157.805 195.013 159.07 195.013 160.75C195.013 161.926 194.906 162.897 194.691 163.662C194.486 164.427 194.131 165.011 193.627 165.412C193.133 165.813 192.451 166.014 191.583 166.014C190.631 166.014 189.889 165.757 189.357 165.244C188.825 164.731 188.522 164.077 188.447 163.284H189.623ZM191.597 161.24C192.223 161.24 192.736 161.049 193.137 160.666C193.539 160.274 193.739 159.747 193.739 159.084C193.739 158.384 193.543 157.819 193.151 157.39C192.759 156.961 192.209 156.746 191.499 156.746C190.846 156.746 190.323 156.951 189.931 157.362C189.549 157.773 189.357 158.314 189.357 158.986C189.357 159.667 189.549 160.213 189.931 160.624C190.314 161.035 190.869 161.24 191.597 161.24Z" fill="black"/>
<circle cx="241" cy="154" r="19" stroke="#C4C4C4" stroke-width="2"/>
<path d="M244.297 142.242V143.278H241.637V152H240.363V143.278H237.689V142.242H244.297ZM233.322 158.426C233.388 157.567 233.719 156.895 234.316 156.41C234.914 155.925 235.688 155.682 236.64 155.682C237.275 155.682 237.821 155.799 238.278 156.032C238.745 156.256 239.095 156.564 239.328 156.956C239.571 157.348 239.692 157.791 239.692 158.286C239.692 158.865 239.524 159.364 239.188 159.784C238.862 160.204 238.432 160.475 237.9 160.596V160.666C238.507 160.815 238.988 161.109 239.342 161.548C239.697 161.987 239.874 162.561 239.874 163.27C239.874 163.802 239.753 164.283 239.51 164.712C239.268 165.132 238.904 165.463 238.418 165.706C237.933 165.949 237.35 166.07 236.668 166.07C235.679 166.07 234.867 165.813 234.232 165.3C233.598 164.777 233.243 164.04 233.168 163.088H234.4C234.466 163.648 234.694 164.105 235.086 164.46C235.478 164.815 236.001 164.992 236.654 164.992C237.308 164.992 237.802 164.824 238.138 164.488C238.484 164.143 238.656 163.699 238.656 163.158C238.656 162.458 238.423 161.954 237.956 161.646C237.49 161.338 236.785 161.184 235.842 161.184H235.52V160.12H235.856C236.715 160.111 237.364 159.971 237.802 159.7C238.241 159.42 238.46 158.991 238.46 158.412C238.46 157.917 238.297 157.521 237.97 157.222C237.653 156.923 237.196 156.774 236.598 156.774C236.02 156.774 235.553 156.923 235.198 157.222C234.844 157.521 234.634 157.922 234.568 158.426H233.322ZM241.595 160.834C241.595 159.229 241.856 157.978 242.379 157.082C242.901 156.177 243.816 155.724 245.123 155.724C246.42 155.724 247.33 156.177 247.853 157.082C248.375 157.978 248.637 159.229 248.637 160.834C248.637 162.467 248.375 163.737 247.853 164.642C247.33 165.547 246.42 166 245.123 166C243.816 166 242.901 165.547 242.379 164.642C241.856 163.737 241.595 162.467 241.595 160.834ZM247.377 160.834C247.377 160.022 247.321 159.336 247.209 158.776C247.106 158.207 246.887 157.749 246.551 157.404C246.224 157.059 245.748 156.886 245.123 156.886C244.488 156.886 244.003 157.059 243.667 157.404C243.34 157.749 243.121 158.207 243.009 158.776C242.906 159.336 242.855 160.022 242.855 160.834C242.855 161.674 242.906 162.379 243.009 162.948C243.121 163.517 243.34 163.975 243.667 164.32C244.003 164.665 244.488 164.838 245.123 164.838C245.748 164.838 246.224 164.665 246.551 164.32C246.887 163.975 247.106 163.517 247.209 162.948C247.321 162.379 247.377 161.674 247.377 160.834Z" fill="black"/>
<circle cx="293" cy="154" r="19" stroke="#C4C4C4" stroke-width="2"/>
<path d="M296.067 142.242V143.278H291.825V146.568H295.269V147.604H291.825V152H290.551V142.242H296.067ZM287.23 160.834C287.23 159.229 287.492 157.978 288.014 157.082C288.537 156.177 289.452 155.724 290.758 155.724C292.056 155.724 292.966 156.177 293.488 157.082C294.011 157.978 294.272 159.229 294.272 160.834C294.272 162.467 294.011 163.737 293.488 164.642C292.966 165.547 292.056 166 290.758 166C289.452 166 288.537 165.547 288.014 164.642C287.492 163.737 287.23 162.467 287.23 160.834ZM293.012 160.834C293.012 160.022 292.956 159.336 292.844 158.776C292.742 158.207 292.522 157.749 292.186 157.404C291.86 157.059 291.384 156.886 290.758 156.886C290.124 156.886 289.638 157.059 289.302 157.404C288.976 157.749 288.756 158.207 288.644 158.776C288.542 159.336 288.49 160.022 288.49 160.834C288.49 161.674 288.542 162.379 288.644 162.948C288.756 163.517 288.976 163.975 289.302 164.32C289.638 164.665 290.124 164.838 290.758 164.838C291.384 164.838 291.86 164.665 292.186 164.32C292.522 163.975 292.742 163.517 292.844 162.948C292.956 162.379 293.012 161.674 293.012 160.834ZM295.685 157.04V155.878H298.317V166H297.029V157.04H295.685Z" fill="black"/>
<circle cx="345" cy="154" r="19" stroke="#C4C4C4" stroke-width="2"/>
<path d="M345.564 152.098C344.92 152.098 344.341 151.986 343.828 151.762C343.324 151.529 342.927 151.211 342.638 150.81C342.348 150.399 342.199 149.928 342.19 149.396H343.548C343.594 149.853 343.781 150.241 344.108 150.558C344.444 150.866 344.929 151.02 345.564 151.02C346.17 151.02 346.646 150.871 346.992 150.572C347.346 150.264 347.524 149.872 347.524 149.396C347.524 149.023 347.421 148.719 347.216 148.486C347.01 148.253 346.754 148.075 346.446 147.954C346.138 147.833 345.722 147.702 345.2 147.562C344.556 147.394 344.038 147.226 343.646 147.058C343.263 146.89 342.932 146.629 342.652 146.274C342.381 145.91 342.246 145.425 342.246 144.818C342.246 144.286 342.381 143.815 342.652 143.404C342.922 142.993 343.3 142.676 343.786 142.452C344.28 142.228 344.845 142.116 345.48 142.116C346.394 142.116 347.141 142.345 347.72 142.802C348.308 143.259 348.639 143.866 348.714 144.622H347.314C347.267 144.249 347.071 143.922 346.726 143.642C346.38 143.353 345.923 143.208 345.354 143.208C344.822 143.208 344.388 143.348 344.052 143.628C343.716 143.899 343.548 144.281 343.548 144.776C343.548 145.131 343.646 145.42 343.842 145.644C344.047 145.868 344.294 146.041 344.584 146.162C344.882 146.274 345.298 146.405 345.83 146.554C346.474 146.731 346.992 146.909 347.384 147.086C347.776 147.254 348.112 147.52 348.392 147.884C348.672 148.239 348.812 148.724 348.812 149.34C348.812 149.816 348.686 150.264 348.434 150.684C348.182 151.104 347.808 151.445 347.314 151.706C346.819 151.967 346.236 152.098 345.564 152.098ZM337.946 160.834C337.946 159.229 338.207 157.978 338.73 157.082C339.253 156.177 340.167 155.724 341.474 155.724C342.771 155.724 343.681 156.177 344.204 157.082C344.727 157.978 344.988 159.229 344.988 160.834C344.988 162.467 344.727 163.737 344.204 164.642C343.681 165.547 342.771 166 341.474 166C340.167 166 339.253 165.547 338.73 164.642C338.207 163.737 337.946 162.467 337.946 160.834ZM343.728 160.834C343.728 160.022 343.672 159.336 343.56 158.776C343.457 158.207 343.238 157.749 342.902 157.404C342.575 157.059 342.099 156.886 341.474 156.886C340.839 156.886 340.354 157.059 340.018 157.404C339.691 157.749 339.472 158.207 339.36 158.776C339.257 159.336 339.206 160.022 339.206 160.834C339.206 161.674 339.257 162.379 339.36 162.948C339.472 163.517 339.691 163.975 340.018 164.32C340.354 164.665 340.839 164.838 341.474 164.838C342.099 164.838 342.575 164.665 342.902 164.32C343.238 163.975 343.457 163.517 343.56 162.948C343.672 162.379 343.728 161.674 343.728 160.834ZM346.583 164.978C347.768 164.026 348.697 163.247 349.369 162.64C350.041 162.024 350.606 161.385 351.063 160.722C351.53 160.05 351.763 159.392 351.763 158.748C351.763 158.141 351.614 157.665 351.315 157.32C351.026 156.965 350.554 156.788 349.901 156.788C349.266 156.788 348.772 156.989 348.417 157.39C348.072 157.782 347.885 158.309 347.857 158.972H346.625C346.662 157.927 346.98 157.119 347.577 156.55C348.174 155.981 348.944 155.696 349.887 155.696C350.848 155.696 351.609 155.962 352.169 156.494C352.738 157.026 353.023 157.759 353.023 158.692C353.023 159.467 352.79 160.223 352.323 160.96C351.866 161.688 351.343 162.332 350.755 162.892C350.167 163.443 349.416 164.087 348.501 164.824H353.317V165.888H346.583V164.978Z" fill="black"/>
<rect width="375" height="25" transform="matrix(-1 0 0 1 375 97)" fill="#EEEEEE"/>
<path d="M14.172 116.098C13.528 116.098 12.9493 115.986 12.436 115.762C11.932 115.529 11.5353 115.211 11.246 114.81C10.9567 114.399 10.8073 113.928 10.798 113.396H12.156C12.2027 113.853 12.3893 114.241 12.716 114.558C13.052 114.866 13.5373 115.02 14.172 115.02C14.7787 115.02 15.2547 114.871 15.6 114.572C15.9547 114.264 16.132 113.872 16.132 113.396C16.132 113.023 16.0293 112.719 15.824 112.486C15.6187 112.253 15.362 112.075 15.054 111.954C14.746 111.833 14.3307 111.702 13.808 111.562C13.164 111.394 12.646 111.226 12.254 111.058C11.8713 110.89 11.54 110.629 11.26 110.274C10.9893 109.91 10.854 109.425 10.854 108.818C10.854 108.286 10.9893 107.815 11.26 107.404C11.5307 106.993 11.9087 106.676 12.394 106.452C12.8887 106.228 13.4533 106.116 14.088 106.116C15.0027 106.116 15.7493 106.345 16.328 106.802C16.916 107.259 17.2473 107.866 17.322 108.622H15.922C15.8753 108.249 15.6793 107.922 15.334 107.642C14.9887 107.353 14.5313 107.208 13.962 107.208C13.43 107.208 12.996 107.348 12.66 107.628C12.324 107.899 12.156 108.281 12.156 108.776C12.156 109.131 12.254 109.42 12.45 109.644C12.6553 109.868 12.9027 110.041 13.192 110.162C13.4907 110.274 13.906 110.405 14.438 110.554C15.082 110.731 15.6 110.909 15.992 111.086C16.384 111.254 16.72 111.52 17 111.884C17.28 112.239 17.42 112.724 17.42 113.34C17.42 113.816 17.294 114.264 17.042 114.684C16.79 115.104 16.4167 115.445 15.922 115.706C15.4273 115.967 14.844 116.098 14.172 116.098ZM26.2948 111.87C26.2948 112.113 26.2808 112.369 26.2528 112.64H20.1208C20.1675 113.396 20.4241 113.989 20.8908 114.418C21.3668 114.838 21.9408 115.048 22.6128 115.048C23.1635 115.048 23.6208 114.922 23.9848 114.67C24.3581 114.409 24.6195 114.063 24.7688 113.634H26.1408C25.9355 114.371 25.5248 114.973 24.9088 115.44C24.2928 115.897 23.5275 116.126 22.6128 116.126C21.8848 116.126 21.2315 115.963 20.6528 115.636C20.0835 115.309 19.6355 114.847 19.3088 114.25C18.9821 113.643 18.8188 112.943 18.8188 112.15C18.8188 111.357 18.9775 110.661 19.2948 110.064C19.6121 109.467 20.0555 109.009 20.6248 108.692C21.2035 108.365 21.8661 108.202 22.6128 108.202C23.3408 108.202 23.9848 108.361 24.5448 108.678C25.1048 108.995 25.5341 109.434 25.8328 109.994C26.1408 110.545 26.2948 111.17 26.2948 111.87ZM24.9788 111.604C24.9788 111.119 24.8715 110.703 24.6568 110.358C24.4421 110.003 24.1481 109.737 23.7748 109.56C23.4108 109.373 23.0048 109.28 22.5568 109.28C21.9128 109.28 21.3621 109.485 20.9048 109.896C20.4568 110.307 20.2001 110.876 20.1348 111.604H24.9788ZM29.2504 109.742C29.5024 109.303 29.8758 108.939 30.3704 108.65C30.8744 108.351 31.4578 108.202 32.1204 108.202C32.8018 108.202 33.4178 108.365 33.9684 108.692C34.5284 109.019 34.9671 109.481 35.2844 110.078C35.6018 110.666 35.7604 111.352 35.7604 112.136C35.7604 112.911 35.6018 113.601 35.2844 114.208C34.9671 114.815 34.5284 115.286 33.9684 115.622C33.4178 115.958 32.8018 116.126 32.1204 116.126C31.4671 116.126 30.8884 115.981 30.3844 115.692C29.8898 115.393 29.5118 115.025 29.2504 114.586V119.64H27.9764V108.328H29.2504V109.742ZM34.4584 112.136C34.4584 111.557 34.3418 111.053 34.1084 110.624C33.8751 110.195 33.5578 109.868 33.1564 109.644C32.7644 109.42 32.3304 109.308 31.8544 109.308C31.3878 109.308 30.9538 109.425 30.5524 109.658C30.1604 109.882 29.8431 110.213 29.6004 110.652C29.3671 111.081 29.2504 111.581 29.2504 112.15C29.2504 112.729 29.3671 113.237 29.6004 113.676C29.8431 114.105 30.1604 114.437 30.5524 114.67C30.9538 114.894 31.3878 115.006 31.8544 115.006C32.3304 115.006 32.7644 114.894 33.1564 114.67C33.5578 114.437 33.8751 114.105 34.1084 113.676C34.3418 113.237 34.4584 112.724 34.4584 112.136ZM38.9914 109.378V113.9C38.9914 114.273 39.0707 114.539 39.2294 114.698C39.388 114.847 39.6634 114.922 40.0554 114.922H40.9934V116H39.8454C39.136 116 38.604 115.837 38.2494 115.51C37.8947 115.183 37.7174 114.647 37.7174 113.9V109.378H36.7234V108.328H37.7174V106.396H38.9914V108.328H40.9934V109.378H38.9914ZM49.537 111.87C49.537 112.113 49.523 112.369 49.495 112.64H43.363C43.4097 113.396 43.6663 113.989 44.133 114.418C44.609 114.838 45.183 115.048 45.855 115.048C46.4057 115.048 46.863 114.922 47.227 114.67C47.6003 114.409 47.8617 114.063 48.011 113.634H49.383C49.1777 114.371 48.767 114.973 48.151 115.44C47.535 115.897 46.7697 116.126 45.855 116.126C45.127 116.126 44.4737 115.963 43.895 115.636C43.3257 115.309 42.8777 114.847 42.551 114.25C42.2243 113.643 42.061 112.943 42.061 112.15C42.061 111.357 42.2197 110.661 42.537 110.064C42.8543 109.467 43.2977 109.009 43.867 108.692C44.4457 108.365 45.1083 108.202 45.855 108.202C46.583 108.202 47.227 108.361 47.787 108.678C48.347 108.995 48.7763 109.434 49.075 109.994C49.383 110.545 49.537 111.17 49.537 111.87ZM48.221 111.604C48.221 111.119 48.1137 110.703 47.899 110.358C47.6843 110.003 47.3903 109.737 47.017 109.56C46.653 109.373 46.247 109.28 45.799 109.28C45.155 109.28 44.6043 109.485 44.147 109.896C43.699 110.307 43.4423 110.876 43.377 111.604H48.221ZM60.4446 108.188C61.042 108.188 61.574 108.314 62.0406 108.566C62.5073 108.809 62.876 109.177 63.1466 109.672C63.4173 110.167 63.5526 110.769 63.5526 111.478V116H62.2926V111.66C62.2926 110.895 62.1013 110.311 61.7186 109.91C61.3453 109.499 60.8366 109.294 60.1926 109.294C59.53 109.294 59.0026 109.509 58.6106 109.938C58.2186 110.358 58.0226 110.969 58.0226 111.772V116H56.7626V111.66C56.7626 110.895 56.5713 110.311 56.1886 109.91C55.8153 109.499 55.3066 109.294 54.6626 109.294C54 109.294 53.4726 109.509 53.0806 109.938C52.6886 110.358 52.4926 110.969 52.4926 111.772V116H51.2186V108.328H52.4926V109.434C52.7446 109.033 53.0806 108.725 53.5006 108.51C53.93 108.295 54.4013 108.188 54.9146 108.188C55.5586 108.188 56.128 108.333 56.6226 108.622C57.1173 108.911 57.486 109.336 57.7286 109.896C57.9433 109.355 58.298 108.935 58.7926 108.636C59.2873 108.337 59.838 108.188 60.4446 108.188ZM66.9165 109.756C67.1778 109.299 67.5605 108.925 68.0645 108.636C68.5685 108.347 69.1425 108.202 69.7865 108.202C70.4771 108.202 71.0978 108.365 71.6485 108.692C72.1991 109.019 72.6331 109.481 72.9505 110.078C73.2678 110.666 73.4265 111.352 73.4265 112.136C73.4265 112.911 73.2678 113.601 72.9505 114.208C72.6331 114.815 72.1945 115.286 71.6345 115.622C71.0838 115.958 70.4678 116.126 69.7865 116.126C69.1238 116.126 68.5405 115.981 68.0365 115.692C67.5418 115.403 67.1685 115.034 66.9165 114.586V116H65.6425V105.64H66.9165V109.756ZM72.1245 112.136C72.1245 111.557 72.0078 111.053 71.7745 110.624C71.5411 110.195 71.2238 109.868 70.8225 109.644C70.4305 109.42 69.9965 109.308 69.5205 109.308C69.0538 109.308 68.6198 109.425 68.2185 109.658C67.8265 109.882 67.5091 110.213 67.2665 110.652C67.0331 111.081 66.9165 111.581 66.9165 112.15C66.9165 112.729 67.0331 113.237 67.2665 113.676C67.5091 114.105 67.8265 114.437 68.2185 114.67C68.6198 114.894 69.0538 115.006 69.5205 115.006C69.9965 115.006 70.4305 114.894 70.8225 114.67C71.2238 114.437 71.5411 114.105 71.7745 113.676C72.0078 113.237 72.1245 112.724 72.1245 112.136ZM82.1034 111.87C82.1034 112.113 82.0894 112.369 82.0614 112.64H75.9294C75.9761 113.396 76.2327 113.989 76.6994 114.418C77.1754 114.838 77.7494 115.048 78.4214 115.048C78.9721 115.048 79.4294 114.922 79.7934 114.67C80.1667 114.409 80.4281 114.063 80.5774 113.634H81.9494C81.7441 114.371 81.3334 114.973 80.7174 115.44C80.1014 115.897 79.3361 116.126 78.4214 116.126C77.6934 116.126 77.0401 115.963 76.4614 115.636C75.8921 115.309 75.4441 114.847 75.1174 114.25C74.7907 113.643 74.6274 112.943 74.6274 112.15C74.6274 111.357 74.7861 110.661 75.1034 110.064C75.4207 109.467 75.8641 109.009 76.4334 108.692C77.0121 108.365 77.6747 108.202 78.4214 108.202C79.1494 108.202 79.7934 108.361 80.3534 108.678C80.9134 108.995 81.3427 109.434 81.6414 109.994C81.9494 110.545 82.1034 111.17 82.1034 111.87ZM80.7874 111.604C80.7874 111.119 80.6801 110.703 80.4654 110.358C80.2507 110.003 79.9567 109.737 79.5834 109.56C79.2194 109.373 78.8134 109.28 78.3654 109.28C77.7214 109.28 77.1707 109.485 76.7134 109.896C76.2654 110.307 76.0087 110.876 75.9434 111.604H80.7874ZM85.059 109.574C85.283 109.135 85.6004 108.795 86.011 108.552C86.431 108.309 86.9397 108.188 87.537 108.188V109.504H87.201C85.773 109.504 85.059 110.279 85.059 111.828V116H83.785V108.328H85.059V109.574ZM92.3761 114.978C93.5614 114.026 94.4901 113.247 95.1621 112.64C95.8341 112.024 96.3988 111.385 96.8561 110.722C97.3228 110.05 97.5561 109.392 97.5561 108.748C97.5561 108.141 97.4068 107.665 97.1081 107.32C96.8188 106.965 96.3474 106.788 95.6941 106.788C95.0594 106.788 94.5648 106.989 94.2101 107.39C93.8648 107.782 93.6781 108.309 93.6501 108.972H92.4181C92.4554 107.927 92.7728 107.119 93.3701 106.55C93.9674 105.981 94.7374 105.696 95.6801 105.696C96.6414 105.696 97.4021 105.962 97.9621 106.494C98.5314 107.026 98.8161 107.759 98.8161 108.692C98.8161 109.467 98.5828 110.223 98.1161 110.96C97.6588 111.688 97.1361 112.332 96.5481 112.892C95.9601 113.443 95.2088 114.087 94.2941 114.824H99.1101V115.888H92.3761V114.978ZM100.583 110.834C100.583 109.229 100.844 107.978 101.367 107.082C101.89 106.177 102.804 105.724 104.111 105.724C105.408 105.724 106.318 106.177 106.841 107.082C107.364 107.978 107.625 109.229 107.625 110.834C107.625 112.467 107.364 113.737 106.841 114.642C106.318 115.547 105.408 116 104.111 116C102.804 116 101.89 115.547 101.367 114.642C100.844 113.737 100.583 112.467 100.583 110.834ZM106.365 110.834C106.365 110.022 106.309 109.336 106.197 108.776C106.094 108.207 105.875 107.749 105.539 107.404C105.212 107.059 104.736 106.886 104.111 106.886C103.476 106.886 102.991 107.059 102.655 107.404C102.328 107.749 102.109 108.207 101.997 108.776C101.894 109.336 101.843 110.022 101.843 110.834C101.843 111.674 101.894 112.379 101.997 112.948C102.109 113.517 102.328 113.975 102.655 114.32C102.991 114.665 103.476 114.838 104.111 114.838C104.736 114.838 105.212 114.665 105.539 114.32C105.875 113.975 106.094 113.517 106.197 112.948C106.309 112.379 106.365 111.674 106.365 110.834ZM109.22 114.978C110.405 114.026 111.334 113.247 112.006 112.64C112.678 112.024 113.243 111.385 113.7 110.722C114.167 110.05 114.4 109.392 114.4 108.748C114.4 108.141 114.251 107.665 113.952 107.32C113.663 106.965 113.191 106.788 112.538 106.788C111.903 106.788 111.409 106.989 111.054 107.39C110.709 107.782 110.522 108.309 110.494 108.972H109.262C109.299 107.927 109.617 107.119 110.214 106.55C110.811 105.981 111.581 105.696 112.524 105.696C113.485 105.696 114.246 105.962 114.806 106.494C115.375 107.026 115.66 107.759 115.66 108.692C115.66 109.467 115.427 110.223 114.96 110.96C114.503 111.688 113.98 112.332 113.392 112.892C112.804 113.443 112.053 114.087 111.138 114.824H115.954V115.888H109.22V114.978ZM117.091 107.04V105.878H119.723V116H118.435V107.04H117.091Z" fill="black"/>
<path d="M172.616 105.228V106.81H170.012V115H168.052V106.81H165.448V105.228H172.616ZM177.49 115.126C176.743 115.126 176.071 114.963 175.474 114.636C174.877 114.3 174.405 113.829 174.06 113.222C173.724 112.615 173.556 111.915 173.556 111.122C173.556 110.329 173.729 109.629 174.074 109.022C174.429 108.415 174.909 107.949 175.516 107.622C176.123 107.286 176.799 107.118 177.546 107.118C178.293 107.118 178.969 107.286 179.576 107.622C180.183 107.949 180.659 108.415 181.004 109.022C181.359 109.629 181.536 110.329 181.536 111.122C181.536 111.915 181.354 112.615 180.99 113.222C180.635 113.829 180.15 114.3 179.534 114.636C178.927 114.963 178.246 115.126 177.49 115.126ZM177.49 113.418C177.845 113.418 178.176 113.334 178.484 113.166C178.801 112.989 179.053 112.727 179.24 112.382C179.427 112.037 179.52 111.617 179.52 111.122C179.52 110.385 179.324 109.82 178.932 109.428C178.549 109.027 178.078 108.826 177.518 108.826C176.958 108.826 176.487 109.027 176.104 109.428C175.731 109.82 175.544 110.385 175.544 111.122C175.544 111.859 175.726 112.429 176.09 112.83C176.463 113.222 176.93 113.418 177.49 113.418ZM182.47 111.094C182.47 110.31 182.624 109.615 182.932 109.008C183.249 108.401 183.678 107.935 184.22 107.608C184.761 107.281 185.363 107.118 186.026 107.118C186.53 107.118 187.01 107.23 187.468 107.454C187.925 107.669 188.289 107.958 188.56 108.322V104.64H190.548V115H188.56V113.852C188.317 114.235 187.976 114.543 187.538 114.776C187.099 115.009 186.59 115.126 186.012 115.126C185.358 115.126 184.761 114.958 184.22 114.622C183.678 114.286 183.249 113.815 182.932 113.208C182.624 112.592 182.47 111.887 182.47 111.094ZM188.574 111.122C188.574 110.646 188.48 110.24 188.294 109.904C188.107 109.559 187.855 109.297 187.538 109.12C187.22 108.933 186.88 108.84 186.516 108.84C186.152 108.84 185.816 108.929 185.508 109.106C185.2 109.283 184.948 109.545 184.752 109.89C184.565 110.226 184.472 110.627 184.472 111.094C184.472 111.561 184.565 111.971 184.752 112.326C184.948 112.671 185.2 112.937 185.508 113.124C185.825 113.311 186.161 113.404 186.516 113.404C186.88 113.404 187.22 113.315 187.538 113.138C187.855 112.951 188.107 112.69 188.294 112.354C188.48 112.009 188.574 111.598 188.574 111.122ZM191.958 111.094C191.958 110.31 192.112 109.615 192.42 109.008C192.737 108.401 193.162 107.935 193.694 107.608C194.235 107.281 194.837 107.118 195.5 107.118C196.079 107.118 196.583 107.235 197.012 107.468C197.451 107.701 197.801 107.995 198.062 108.35V107.244H200.036V115H198.062V113.866C197.81 114.23 197.46 114.533 197.012 114.776C196.573 115.009 196.065 115.126 195.486 115.126C194.833 115.126 194.235 114.958 193.694 114.622C193.162 114.286 192.737 113.815 192.42 113.208C192.112 112.592 191.958 111.887 191.958 111.094ZM198.062 111.122C198.062 110.646 197.969 110.24 197.782 109.904C197.595 109.559 197.343 109.297 197.026 109.12C196.709 108.933 196.368 108.84 196.004 108.84C195.64 108.84 195.304 108.929 194.996 109.106C194.688 109.283 194.436 109.545 194.24 109.89C194.053 110.226 193.96 110.627 193.96 111.094C193.96 111.561 194.053 111.971 194.24 112.326C194.436 112.671 194.688 112.937 194.996 113.124C195.313 113.311 195.649 113.404 196.004 113.404C196.368 113.404 196.709 113.315 197.026 113.138C197.343 112.951 197.595 112.69 197.782 112.354C197.969 112.009 198.062 111.598 198.062 111.122ZM209.37 107.244L204.568 118.668H202.482L204.162 114.804L201.054 107.244H203.252L205.254 112.662L207.284 107.244H209.37Z" fill="black"/>
<rect x="0.5" y="61.5" width="186" height="35" fill="#EEEEEE" stroke="#837C7C"/>
<path d="M81.616 74.228V75.81H79.012V84H77.052V75.81H74.448V74.228H81.616ZM85.0061 77.448C85.2581 77.0373 85.5847 76.7153 85.9861 76.482C86.3967 76.2487 86.8634 76.132 87.3861 76.132V78.19H86.8681C86.2521 78.19 85.7854 78.3347 85.4681 78.624C85.1601 78.9133 85.0061 79.4173 85.0061 80.136V84H83.0461V76.244H85.0061V77.448ZM88.2022 80.094C88.2022 79.31 88.3562 78.6147 88.6642 78.008C88.9816 77.4013 89.4062 76.9347 89.9382 76.608C90.4796 76.2813 91.0816 76.118 91.7442 76.118C92.3229 76.118 92.8269 76.2347 93.2562 76.468C93.6949 76.7013 94.0449 76.9953 94.3062 77.35V76.244H96.2802V84H94.3062V82.866C94.0542 83.23 93.7042 83.5333 93.2562 83.776C92.8176 84.0093 92.3089 84.126 91.7302 84.126C91.0769 84.126 90.4796 83.958 89.9382 83.622C89.4062 83.286 88.9816 82.8147 88.6642 82.208C88.3562 81.592 88.2022 80.8873 88.2022 80.094ZM94.3062 80.122C94.3062 79.646 94.2129 79.24 94.0262 78.904C93.8396 78.5587 93.5876 78.2973 93.2702 78.12C92.9529 77.9333 92.6122 77.84 92.2482 77.84C91.8842 77.84 91.5482 77.9287 91.2402 78.106C90.9322 78.2833 90.6802 78.5447 90.4842 78.89C90.2976 79.226 90.2042 79.6273 90.2042 80.094C90.2042 80.5607 90.2976 80.9713 90.4842 81.326C90.6802 81.6713 90.9322 81.9373 91.2402 82.124C91.5576 82.3107 91.8936 82.404 92.2482 82.404C92.6122 82.404 92.9529 82.3153 93.2702 82.138C93.5876 81.9513 93.8396 81.69 94.0262 81.354C94.2129 81.0087 94.3062 80.598 94.3062 80.122ZM97.6905 80.122C97.6905 79.3193 97.8538 78.6193 98.1805 78.022C98.5072 77.4153 98.9598 76.9487 99.5385 76.622C100.117 76.286 100.78 76.118 101.527 76.118C102.488 76.118 103.281 76.3607 103.907 76.846C104.541 77.322 104.966 77.994 105.181 78.862H103.067C102.955 78.526 102.763 78.2647 102.493 78.078C102.231 77.882 101.905 77.784 101.513 77.784C100.953 77.784 100.509 77.9893 100.183 78.4C99.8558 78.8013 99.6925 79.3753 99.6925 80.122C99.6925 80.8593 99.8558 81.4333 100.183 81.844C100.509 82.2453 100.953 82.446 101.513 82.446C102.306 82.446 102.824 82.0913 103.067 81.382H105.181C104.966 82.222 104.541 82.8893 103.907 83.384C103.272 83.8787 102.479 84.126 101.527 84.126C100.78 84.126 100.117 83.9627 99.5385 83.636C98.9598 83.3 98.5072 82.8333 98.1805 82.236C97.8538 81.6293 97.6905 80.9247 97.6905 80.122ZM111.208 84L108.576 80.696V84H106.616V73.64H108.576V79.534L111.18 76.244H113.728L110.312 80.136L113.756 84H111.208Z" fill="black"/>
<path d="M259.846 81.83H255.59L254.806 84H253.462L256.99 74.298H258.46L261.974 84H260.63L259.846 81.83ZM259.482 80.794L257.718 75.866L255.954 80.794H259.482ZM267.25 76.188C268.183 76.188 268.939 76.4727 269.518 77.042C270.096 77.602 270.386 78.414 270.386 79.478V84H269.126V79.66C269.126 78.8947 268.934 78.3113 268.552 77.91C268.169 77.4993 267.646 77.294 266.984 77.294C266.312 77.294 265.775 77.504 265.374 77.924C264.982 78.344 264.786 78.9553 264.786 79.758V84H263.512V76.328H264.786V77.42C265.038 77.028 265.378 76.7247 265.808 76.51C266.246 76.2953 266.727 76.188 267.25 76.188ZM271.991 80.136C271.991 79.352 272.149 78.666 272.467 78.078C272.784 77.4807 273.218 77.0187 273.769 76.692C274.329 76.3653 274.949 76.202 275.631 76.202C276.303 76.202 276.886 76.3467 277.381 76.636C277.875 76.9253 278.244 77.2893 278.487 77.728V76.328H279.775V84H278.487V82.572C278.235 83.02 277.857 83.3933 277.353 83.692C276.858 83.9813 276.279 84.126 275.617 84.126C274.935 84.126 274.319 83.958 273.769 83.622C273.218 83.286 272.784 82.8147 272.467 82.208C272.149 81.6013 271.991 80.9107 271.991 80.136ZM278.487 80.15C278.487 79.5713 278.37 79.0673 278.137 78.638C277.903 78.2087 277.586 77.882 277.185 77.658C276.793 77.4247 276.359 77.308 275.883 77.308C275.407 77.308 274.973 77.42 274.581 77.644C274.189 77.868 273.876 78.1947 273.643 78.624C273.409 79.0533 273.293 79.5573 273.293 80.136C273.293 80.724 273.409 81.2373 273.643 81.676C273.876 82.1053 274.189 82.4367 274.581 82.67C274.973 82.894 275.407 83.006 275.883 83.006C276.359 83.006 276.793 82.894 277.185 82.67C277.586 82.4367 277.903 82.1053 278.137 81.676C278.37 81.2373 278.487 80.7287 278.487 80.15ZM283.202 73.64V84H281.928V73.64H283.202ZM291.981 76.328L287.361 87.612H286.045L287.557 83.916L284.463 76.328H285.877L288.285 82.544L290.665 76.328H291.981ZM294.214 82.95H297.98V84H292.758V82.95L296.482 77.364H292.786V76.328H297.952V77.364L294.214 82.95ZM306.633 79.87C306.633 80.1127 306.619 80.3693 306.591 80.64H300.459C300.505 81.396 300.762 81.9887 301.229 82.418C301.705 82.838 302.279 83.048 302.951 83.048C303.501 83.048 303.959 82.922 304.323 82.67C304.696 82.4087 304.957 82.0633 305.107 81.634H306.479C306.273 82.3713 305.863 82.9733 305.247 83.44C304.631 83.8973 303.865 84.126 302.951 84.126C302.223 84.126 301.569 83.9627 300.991 83.636C300.421 83.3093 299.973 82.8473 299.647 82.25C299.32 81.6433 299.157 80.9433 299.157 80.15C299.157 79.3567 299.315 78.6613 299.633 78.064C299.95 77.4667 300.393 77.0093 300.963 76.692C301.541 76.3653 302.204 76.202 302.951 76.202C303.679 76.202 304.323 76.3607 304.883 76.678C305.443 76.9953 305.872 77.434 306.171 77.994C306.479 78.5447 306.633 79.17 306.633 79.87ZM305.317 79.604C305.317 79.1187 305.209 78.7033 304.995 78.358C304.78 78.0033 304.486 77.7373 304.113 77.56C303.749 77.3733 303.343 77.28 302.895 77.28C302.251 77.28 301.7 77.4853 301.243 77.896C300.795 78.3067 300.538 78.876 300.473 79.604H305.317Z" fill="black"/>
<rect x="0.5" y="61.5" width="374" height="35" stroke="#837C7C"/>
<line x1="11" y1="33" x2="45" y2="33" stroke="black" stroke-width="2" stroke-linecap="round"/>
<line x1="11" y1="42" x2="45" y2="42" stroke="black" stroke-width="2" stroke-linecap="round"/>
<line x1="11" y1="24" x2="33" y2="24" stroke="black" stroke-width="2" stroke-linecap="round"/>
<path d="M157.432 25.49V27.164H154.102V38H152.05V27.164H148.702V25.49H157.432ZM161.562 29.522C161.862 29.018 162.258 28.628 162.75 28.352C163.254 28.064 163.848 27.92 164.532 27.92V30.044H164.01C163.206 30.044 162.594 30.248 162.174 30.656C161.766 31.064 161.562 31.772 161.562 32.78V38H159.51V28.082H161.562V29.522ZM165.734 32.996C165.734 32 165.938 31.118 166.346 30.35C166.766 29.582 167.33 28.988 168.038 28.568C168.758 28.136 169.55 27.92 170.414 27.92C171.194 27.92 171.872 28.076 172.448 28.388C173.036 28.688 173.504 29.066 173.852 29.522V28.082H175.922V38H173.852V36.524C173.504 36.992 173.03 37.382 172.43 37.694C171.83 38.006 171.146 38.162 170.378 38.162C169.526 38.162 168.746 37.946 168.038 37.514C167.33 37.07 166.766 36.458 166.346 35.678C165.938 34.886 165.734 33.992 165.734 32.996ZM173.852 33.032C173.852 32.348 173.708 31.754 173.42 31.25C173.144 30.746 172.778 30.362 172.322 30.098C171.866 29.834 171.374 29.702 170.846 29.702C170.318 29.702 169.826 29.834 169.37 30.098C168.914 30.35 168.542 30.728 168.254 31.232C167.978 31.724 167.84 32.312 167.84 32.996C167.84 33.68 167.978 34.28 168.254 34.796C168.542 35.312 168.914 35.708 169.37 35.984C169.838 36.248 170.33 36.38 170.846 36.38C171.374 36.38 171.866 36.248 172.322 35.984C172.778 35.72 173.144 35.336 173.42 34.832C173.708 34.316 173.852 33.716 173.852 33.032ZM177.934 33.032C177.934 32.012 178.138 31.118 178.546 30.35C178.966 29.57 179.542 28.97 180.274 28.55C181.006 28.13 181.846 27.92 182.794 27.92C183.994 27.92 184.984 28.208 185.764 28.784C186.556 29.348 187.09 30.158 187.366 31.214H185.152C184.972 30.722 184.684 30.338 184.288 30.062C183.892 29.786 183.394 29.648 182.794 29.648C181.954 29.648 181.282 29.948 180.778 30.548C180.286 31.136 180.04 31.964 180.04 33.032C180.04 34.1 180.286 34.934 180.778 35.534C181.282 36.134 181.954 36.434 182.794 36.434C183.982 36.434 184.768 35.912 185.152 34.868H187.366C187.078 35.876 186.538 36.68 185.746 37.28C184.954 37.868 183.97 38.162 182.794 38.162C181.846 38.162 181.006 37.952 180.274 37.532C179.542 37.1 178.966 36.5 178.546 35.732C178.138 34.952 177.934 34.052 177.934 33.032ZM193.335 33.05L197.907 38H195.135L191.463 33.734V38H189.411V24.68H191.463V32.42L195.063 28.082H197.907L193.335 33.05ZM200.421 26.768C200.049 26.768 199.737 26.642 199.485 26.39C199.233 26.138 199.107 25.826 199.107 25.454C199.107 25.082 199.233 24.77 199.485 24.518C199.737 24.266 200.049 24.14 200.421 24.14C200.781 24.14 201.087 24.266 201.339 24.518C201.591 24.77 201.717 25.082 201.717 25.454C201.717 25.826 201.591 26.138 201.339 26.39C201.087 26.642 200.781 26.768 200.421 26.768ZM201.429 28.082V38H199.377V28.082H201.429ZM209.127 27.92C209.907 27.92 210.603 28.082 211.215 28.406C211.839 28.73 212.325 29.21 212.673 29.846C213.021 30.482 213.195 31.25 213.195 32.15V38H211.161V32.456C211.161 31.568 210.939 30.89 210.495 30.422C210.051 29.942 209.445 29.702 208.677 29.702C207.909 29.702 207.297 29.942 206.841 30.422C206.397 30.89 206.175 31.568 206.175 32.456V38H204.123V28.082H206.175V29.216C206.511 28.808 206.937 28.49 207.453 28.262C207.981 28.034 208.539 27.92 209.127 27.92ZM219.809 27.92C220.577 27.92 221.255 28.076 221.843 28.388C222.443 28.688 222.911 29.066 223.247 29.522V28.082H225.317V38.162C225.317 39.074 225.125 39.884 224.741 40.592C224.357 41.312 223.799 41.876 223.067 42.284C222.347 42.692 221.483 42.896 220.475 42.896C219.131 42.896 218.015 42.578 217.127 41.942C216.239 41.318 215.735 40.466 215.615 39.386H217.649C217.805 39.902 218.135 40.316 218.639 40.628C219.155 40.952 219.767 41.114 220.475 41.114C221.303 41.114 221.969 40.862 222.473 40.358C222.989 39.854 223.247 39.122 223.247 38.162V36.506C222.899 36.974 222.425 37.37 221.825 37.694C221.237 38.006 220.565 38.162 219.809 38.162C218.945 38.162 218.153 37.946 217.433 37.514C216.725 37.07 216.161 36.458 215.741 35.678C215.333 34.886 215.129 33.992 215.129 32.996C215.129 32 215.333 31.118 215.741 30.35C216.161 29.582 216.725 28.988 217.433 28.568C218.153 28.136 218.945 27.92 219.809 27.92ZM223.247 33.032C223.247 32.348 223.103 31.754 222.815 31.25C222.539 30.746 222.173 30.362 221.717 30.098C221.261 29.834 220.769 29.702 220.241 29.702C219.713 29.702 219.221 29.834 218.765 30.098C218.309 30.35 217.937 30.728 217.649 31.232C217.373 31.724 217.235 32.312 217.235 32.996C217.235 33.68 217.373 34.28 217.649 34.796C217.937 35.312 218.309 35.708 218.765 35.984C219.233 36.248 219.725 36.38 220.241 36.38C220.769 36.38 221.261 36.248 221.717 35.984C222.173 35.72 222.539 35.336 222.815 34.832C223.103 34.316 223.247 33.716 223.247 33.032Z" fill="black"/>
<circle cx="350" cy="28" r="7" stroke="black" stroke-width="2"/>
<path fill-rule="evenodd" clip-rule="evenodd" d="M362 48H364C364 40.268 357.732 34 350 34C342.268 34 336 40.268 336 48H338C338 41.3726 343.373 36 350 36C356.627 36 362 41.3726 362 48Z" fill="black"/>
<g filter="url(#filter0_d_1415_24664)">
<rect x="20" y="208" width="335" height="52" rx="10" fill="#DADADA"/>
</g>
<g filter="url(#filter1_d_1415_24664)">
<rect x="20" y="270" width="335" height="52" rx="10" fill="#DADADA"/>
</g>
<g filter="url(#filter2_d_1415_24664)">
<rect x="20" y="333" width="335" height="52" rx="10" fill="#DADADA"/>
</g>
<path d="M50.976 229.312V239H49.702V231.776L46.482 239H45.586L42.352 231.762V239H41.078V229.312H42.45L46.034 237.32L49.618 229.312H50.976ZM56.4826 239.126C55.7639 239.126 55.1106 238.963 54.5226 238.636C53.9439 238.309 53.4866 237.847 53.1506 237.25C52.8239 236.643 52.6606 235.943 52.6606 235.15C52.6606 234.366 52.8286 233.675 53.1646 233.078C53.5099 232.471 53.9766 232.009 54.5646 231.692C55.1526 231.365 55.8106 231.202 56.5386 231.202C57.2666 231.202 57.9246 231.365 58.5126 231.692C59.1006 232.009 59.5626 232.467 59.8986 233.064C60.2439 233.661 60.4166 234.357 60.4166 235.15C60.4166 235.943 60.2393 236.643 59.8846 237.25C59.5393 237.847 59.0679 238.309 58.4706 238.636C57.8733 238.963 57.2106 239.126 56.4826 239.126ZM56.4826 238.006C56.9399 238.006 57.3693 237.899 57.7706 237.684C58.1719 237.469 58.4939 237.147 58.7366 236.718C58.9886 236.289 59.1146 235.766 59.1146 235.15C59.1146 234.534 58.9933 234.011 58.7506 233.582C58.5079 233.153 58.1906 232.835 57.7986 232.63C57.4066 232.415 56.9819 232.308 56.5246 232.308C56.0579 232.308 55.6286 232.415 55.2366 232.63C54.8539 232.835 54.5459 233.153 54.3126 233.582C54.0793 234.011 53.9626 234.534 53.9626 235.15C53.9626 235.775 54.0746 236.303 54.2986 236.732C54.5319 237.161 54.8399 237.483 55.2226 237.698C55.6053 237.903 56.0253 238.006 56.4826 238.006ZM65.4377 239.126C64.719 239.126 64.0657 238.963 63.4777 238.636C62.899 238.309 62.4417 237.847 62.1057 237.25C61.779 236.643 61.6157 235.943 61.6157 235.15C61.6157 234.366 61.7837 233.675 62.1197 233.078C62.465 232.471 62.9317 232.009 63.5197 231.692C64.1077 231.365 64.7657 231.202 65.4937 231.202C66.2217 231.202 66.8797 231.365 67.4677 231.692C68.0557 232.009 68.5177 232.467 68.8537 233.064C69.199 233.661 69.3717 234.357 69.3717 235.15C69.3717 235.943 69.1943 236.643 68.8397 237.25C68.4943 237.847 68.023 238.309 67.4257 238.636C66.8283 238.963 66.1657 239.126 65.4377 239.126ZM65.4377 238.006C65.895 238.006 66.3243 237.899 66.7257 237.684C67.127 237.469 67.449 237.147 67.6917 236.718C67.9437 236.289 68.0697 235.766 68.0697 235.15C68.0697 234.534 67.9483 234.011 67.7057 233.582C67.463 233.153 67.1457 232.835 66.7537 232.63C66.3617 232.415 65.937 232.308 65.4797 232.308C65.013 232.308 64.5837 232.415 64.1917 232.63C63.809 232.835 63.501 233.153 63.2677 233.582C63.0343 234.011 62.9177 234.534 62.9177 235.15C62.9177 235.775 63.0297 236.303 63.2537 236.732C63.487 237.161 63.795 237.483 64.1777 237.698C64.5603 237.903 64.9803 238.006 65.4377 238.006ZM70.5708 235.136C70.5708 234.352 70.7294 233.666 71.0468 233.078C71.3641 232.481 71.7981 232.019 72.3488 231.692C72.9088 231.365 73.5341 231.202 74.2248 231.202C74.8221 231.202 75.3774 231.342 75.8908 231.622C76.4041 231.893 76.7961 232.252 77.0668 232.7V228.64H78.3548V239H77.0668V237.558C76.8148 238.015 76.4414 238.393 75.9468 238.692C75.4521 238.981 74.8734 239.126 74.2108 239.126C73.5294 239.126 72.9088 238.958 72.3488 238.622C71.7981 238.286 71.3641 237.815 71.0468 237.208C70.7294 236.601 70.5708 235.911 70.5708 235.136ZM77.0668 235.15C77.0668 234.571 76.9501 234.067 76.7168 233.638C76.4834 233.209 76.1661 232.882 75.7648 232.658C75.3728 232.425 74.9388 232.308 74.4628 232.308C73.9868 232.308 73.5528 232.42 73.1608 232.644C72.7688 232.868 72.4561 233.195 72.2228 233.624C71.9894 234.053 71.8728 234.557 71.8728 235.136C71.8728 235.724 71.9894 236.237 72.2228 236.676C72.4561 237.105 72.7688 237.437 73.1608 237.67C73.5528 237.894 73.9868 238.006 74.4628 238.006C74.9388 238.006 75.3728 237.894 75.7648 237.67C76.1661 237.437 76.4834 237.105 76.7168 236.676C76.9501 236.237 77.0668 235.729 77.0668 235.15Z" fill="black"/>
<path d="M53.342 291.242L50.514 301H49.086L46.818 293.146L44.466 301L43.052 301.014L40.322 291.242H41.68L43.808 299.516L46.16 291.242H47.588L49.828 299.488L51.97 291.242H53.342ZM54.2602 297.136C54.2602 296.352 54.4189 295.666 54.7362 295.078C55.0535 294.481 55.4875 294.019 56.0382 293.692C56.5982 293.365 57.2189 293.202 57.9002 293.202C58.5722 293.202 59.1555 293.347 59.6502 293.636C60.1449 293.925 60.5135 294.289 60.7562 294.728V293.328H62.0442V301H60.7562V299.572C60.5042 300.02 60.1262 300.393 59.6222 300.692C59.1275 300.981 58.5489 301.126 57.8862 301.126C57.2049 301.126 56.5889 300.958 56.0382 300.622C55.4875 300.286 55.0535 299.815 54.7362 299.208C54.4189 298.601 54.2602 297.911 54.2602 297.136ZM60.7562 297.15C60.7562 296.571 60.6395 296.067 60.4062 295.638C60.1729 295.209 59.8555 294.882 59.4542 294.658C59.0622 294.425 58.6282 294.308 58.1522 294.308C57.6762 294.308 57.2422 294.42 56.8502 294.644C56.4582 294.868 56.1455 295.195 55.9122 295.624C55.6789 296.053 55.5622 296.557 55.5622 297.136C55.5622 297.724 55.6789 298.237 55.9122 298.676C56.1455 299.105 56.4582 299.437 56.8502 299.67C57.2422 299.894 57.6762 300.006 58.1522 300.006C58.6282 300.006 59.0622 299.894 59.4542 299.67C59.8555 299.437 60.1729 299.105 60.4062 298.676C60.6395 298.237 60.7562 297.729 60.7562 297.15ZM65.7511 294.378V298.9C65.7511 299.273 65.8305 299.539 65.9891 299.698C66.1478 299.847 66.4231 299.922 66.8151 299.922H67.7531V301H66.6051C65.8958 301 65.3638 300.837 65.0091 300.51C64.6545 300.183 64.4771 299.647 64.4771 298.9V294.378H63.4831V293.328H64.4771V291.396H65.7511V293.328H67.7531V294.378H65.7511ZM76.2968 296.87C76.2968 297.113 76.2828 297.369 76.2548 297.64H70.1228C70.1694 298.396 70.4261 298.989 70.8928 299.418C71.3688 299.838 71.9428 300.048 72.6148 300.048C73.1654 300.048 73.6228 299.922 73.9868 299.67C74.3601 299.409 74.6214 299.063 74.7708 298.634H76.1428C75.9374 299.371 75.5268 299.973 74.9108 300.44C74.2948 300.897 73.5294 301.126 72.6148 301.126C71.8868 301.126 71.2334 300.963 70.6548 300.636C70.0854 300.309 69.6374 299.847 69.3108 299.25C68.9841 298.643 68.8208 297.943 68.8208 297.15C68.8208 296.357 68.9794 295.661 69.2968 295.064C69.6141 294.467 70.0574 294.009 70.6268 293.692C71.2054 293.365 71.8681 293.202 72.6148 293.202C73.3428 293.202 73.9868 293.361 74.5468 293.678C75.1068 293.995 75.5361 294.434 75.8348 294.994C76.1428 295.545 76.2968 296.17 76.2968 296.87ZM74.9808 296.604C74.9808 296.119 74.8734 295.703 74.6588 295.358C74.4441 295.003 74.1501 294.737 73.7768 294.56C73.4128 294.373 73.0068 294.28 72.5588 294.28C71.9148 294.28 71.3641 294.485 70.9068 294.896C70.4588 295.307 70.2021 295.876 70.1368 296.604H74.9808ZM79.2524 294.574C79.4764 294.135 79.7937 293.795 80.2044 293.552C80.6244 293.309 81.1331 293.188 81.7304 293.188V294.504H81.3944C79.9664 294.504 79.2524 295.279 79.2524 296.828V301H77.9784V293.328H79.2524V294.574Z" fill="black"/>
<path d="M42.352 355.278V358.54H45.908V359.59H42.352V362.95H46.328V364H41.078V354.228H46.328V355.278H42.352ZM52.2597 364L50.4397 361.144L48.6897 364H47.3597L49.8377 360.192L47.3597 356.328H48.8017L50.6217 359.17L52.3577 356.328H53.6877L51.2237 360.122L53.7017 364H52.2597ZM61.955 359.87C61.955 360.113 61.941 360.369 61.913 360.64H55.781C55.8276 361.396 56.0843 361.989 56.551 362.418C57.027 362.838 57.601 363.048 58.273 363.048C58.8236 363.048 59.281 362.922 59.645 362.67C60.0183 362.409 60.2796 362.063 60.429 361.634H61.801C61.5956 362.371 61.185 362.973 60.569 363.44C59.953 363.897 59.1876 364.126 58.273 364.126C57.545 364.126 56.8916 363.963 56.313 363.636C55.7436 363.309 55.2956 362.847 54.969 362.25C54.6423 361.643 54.479 360.943 54.479 360.15C54.479 359.357 54.6376 358.661 54.955 358.064C55.2723 357.467 55.7156 357.009 56.285 356.692C56.8636 356.365 57.5263 356.202 58.273 356.202C59.001 356.202 59.645 356.361 60.205 356.678C60.765 356.995 61.1943 357.434 61.493 357.994C61.801 358.545 61.955 359.17 61.955 359.87ZM60.639 359.604C60.639 359.119 60.5316 358.703 60.317 358.358C60.1023 358.003 59.8083 357.737 59.435 357.56C59.071 357.373 58.665 357.28 58.217 357.28C57.573 357.28 57.0223 357.485 56.565 357.896C56.117 358.307 55.8603 358.876 55.795 359.604H60.639ZM64.9106 357.574C65.1346 357.135 65.4519 356.795 65.8626 356.552C66.2826 356.309 66.7913 356.188 67.3886 356.188V357.504H67.0526C65.6246 357.504 64.9106 358.279 64.9106 359.828V364H63.6366V356.328H64.9106V357.574ZM68.3833 360.15C68.3833 359.357 68.5419 358.666 68.8593 358.078C69.1766 357.481 69.6153 357.019 70.1753 356.692C70.7446 356.365 71.3933 356.202 72.1213 356.202C73.0639 356.202 73.8386 356.431 74.4453 356.888C75.0613 357.345 75.4673 357.98 75.6633 358.792H74.2913C74.1606 358.325 73.9039 357.957 73.5213 357.686C73.1479 357.415 72.6813 357.28 72.1213 357.28C71.3933 357.28 70.8053 357.532 70.3573 358.036C69.9093 358.531 69.6853 359.235 69.6853 360.15C69.6853 361.074 69.9093 361.788 70.3573 362.292C70.8053 362.796 71.3933 363.048 72.1213 363.048C72.6813 363.048 73.1479 362.917 73.5213 362.656C73.8946 362.395 74.1513 362.021 74.2913 361.536H75.6633C75.4579 362.32 75.0473 362.95 74.4313 363.426C73.8153 363.893 73.0453 364.126 72.1213 364.126C71.3933 364.126 70.7446 363.963 70.1753 363.636C69.6153 363.309 69.1766 362.847 68.8593 362.25C68.5419 361.653 68.3833 360.953 68.3833 360.15ZM78.0212 355.082C77.7785 355.082 77.5732 354.998 77.4052 354.83C77.2372 354.662 77.1532 354.457 77.1532 354.214C77.1532 353.971 77.2372 353.766 77.4052 353.598C77.5732 353.43 77.7785 353.346 78.0212 353.346C78.2545 353.346 78.4505 353.43 78.6092 353.598C78.7772 353.766 78.8612 353.971 78.8612 354.214C78.8612 354.457 78.7772 354.662 78.6092 354.83C78.4505 354.998 78.2545 355.082 78.0212 355.082ZM78.6372 356.328V364H77.3632V356.328H78.6372ZM83.5245 364.126C82.9365 364.126 82.4091 364.028 81.9425 363.832C81.4758 363.627 81.1071 363.347 80.8365 362.992C80.5658 362.628 80.4165 362.213 80.3885 361.746H81.7045C81.7418 362.129 81.9191 362.441 82.2365 362.684C82.5631 362.927 82.9878 363.048 83.5105 363.048C83.9958 363.048 84.3785 362.941 84.6585 362.726C84.9385 362.511 85.0785 362.241 85.0785 361.914C85.0785 361.578 84.9291 361.331 84.6305 361.172C84.3318 361.004 83.8698 360.841 83.2445 360.682C82.6751 360.533 82.2085 360.383 81.8445 360.234C81.4898 360.075 81.1818 359.847 80.9205 359.548C80.6685 359.24 80.5425 358.839 80.5425 358.344C80.5425 357.952 80.6591 357.593 80.8925 357.266C81.1258 356.939 81.4571 356.683 81.8865 356.496C82.3158 356.3 82.8058 356.202 83.3565 356.202C84.2058 356.202 84.8918 356.417 85.4145 356.846C85.9371 357.275 86.2171 357.863 86.2545 358.61H84.9805C84.9525 358.209 84.7891 357.887 84.4905 357.644C84.2011 357.401 83.8091 357.28 83.3145 357.28C82.8571 357.28 82.4931 357.378 82.2225 357.574C81.9518 357.77 81.8165 358.027 81.8165 358.344C81.8165 358.596 81.8958 358.806 82.0545 358.974C82.2225 359.133 82.4278 359.263 82.6705 359.366C82.9225 359.459 83.2678 359.567 83.7065 359.688C84.2571 359.837 84.7051 359.987 85.0505 360.136C85.3958 360.276 85.6898 360.491 85.9325 360.78C86.1845 361.069 86.3151 361.447 86.3245 361.914C86.3245 362.334 86.2078 362.712 85.9745 363.048C85.7411 363.384 85.4098 363.65 84.9805 363.846C84.5605 364.033 84.0751 364.126 83.5245 364.126ZM95.1229 359.87C95.1229 360.113 95.1089 360.369 95.0809 360.64H88.9489C88.9956 361.396 89.2523 361.989 89.7189 362.418C90.1949 362.838 90.7689 363.048 91.4409 363.048C91.9916 363.048 92.4489 362.922 92.8129 362.67C93.1863 362.409 93.4476 362.063 93.5969 361.634H94.9689C94.7636 362.371 94.3529 362.973 93.7369 363.44C93.1209 363.897 92.3556 364.126 91.4409 364.126C90.7129 364.126 90.0596 363.963 89.4809 363.636C88.9116 363.309 88.4636 362.847 88.1369 362.25C87.8103 361.643 87.6469 360.943 87.6469 360.15C87.6469 359.357 87.8056 358.661 88.1229 358.064C88.4403 357.467 88.8836 357.009 89.4529 356.692C90.0316 356.365 90.6943 356.202 91.4409 356.202C92.1689 356.202 92.8129 356.361 93.3729 356.678C93.9329 356.995 94.3623 357.434 94.6609 357.994C94.9689 358.545 95.1229 359.17 95.1229 359.87ZM93.8069 359.604C93.8069 359.119 93.6996 358.703 93.4849 358.358C93.2703 358.003 92.9763 357.737 92.6029 357.56C92.2389 357.373 91.8329 357.28 91.3849 357.28C90.7409 357.28 90.1903 357.485 89.7329 357.896C89.2849 358.307 89.0283 358.876 88.9629 359.604H93.8069Z" fill="black"/>
<g filter="url(#filter3_d_1415_24664)">
<rect x="252" y="408" width="102" height="24" rx="5" fill="#DADADA"/>
<path d="M259.352 416.278V419.54H262.908V420.59H259.352V423.95H263.328V425H258.078V415.228H263.328V416.278H259.352ZM264.78 421.136C264.78 420.352 264.938 419.666 265.256 419.078C265.573 418.481 266.007 418.019 266.558 417.692C267.118 417.365 267.738 417.202 268.42 417.202C269.092 417.202 269.675 417.347 270.17 417.636C270.664 417.925 271.033 418.289 271.276 418.728V417.328H272.564V425H271.276V423.572C271.024 424.02 270.646 424.393 270.142 424.692C269.647 424.981 269.068 425.126 268.406 425.126C267.724 425.126 267.108 424.958 266.558 424.622C266.007 424.286 265.573 423.815 265.256 423.208C264.938 422.601 264.78 421.911 264.78 421.136ZM271.276 421.15C271.276 420.571 271.159 420.067 270.926 419.638C270.692 419.209 270.375 418.882 269.974 418.658C269.582 418.425 269.148 418.308 268.672 418.308C268.196 418.308 267.762 418.42 267.37 418.644C266.978 418.868 266.665 419.195 266.432 419.624C266.198 420.053 266.082 420.557 266.082 421.136C266.082 421.724 266.198 422.237 266.432 422.676C266.665 423.105 266.978 423.437 267.37 423.67C267.762 423.894 268.196 424.006 268.672 424.006C269.148 424.006 269.582 423.894 269.974 423.67C270.375 423.437 270.692 423.105 270.926 422.676C271.159 422.237 271.276 421.729 271.276 421.15ZM276.271 418.378V422.9C276.271 423.273 276.35 423.539 276.509 423.698C276.667 423.847 276.943 423.922 277.335 423.922H278.273V425H277.125C276.415 425 275.883 424.837 275.529 424.51C275.174 424.183 274.997 423.647 274.997 422.9V418.378H274.003V417.328H274.997V415.396H276.271V417.328H278.273V418.378H276.271ZM280.474 416.082C280.232 416.082 280.026 415.998 279.858 415.83C279.69 415.662 279.606 415.457 279.606 415.214C279.606 414.971 279.69 414.766 279.858 414.598C280.026 414.43 280.232 414.346 280.474 414.346C280.708 414.346 280.904 414.43 281.062 414.598C281.23 414.766 281.314 414.971 281.314 415.214C281.314 415.457 281.23 415.662 281.062 415.83C280.904 415.998 280.708 416.082 280.474 416.082ZM281.09 417.328V425H279.816V417.328H281.09ZM287 417.188C287.933 417.188 288.689 417.473 289.268 418.042C289.846 418.602 290.136 419.414 290.136 420.478V425H288.876V420.66C288.876 419.895 288.684 419.311 288.302 418.91C287.919 418.499 287.396 418.294 286.734 418.294C286.062 418.294 285.525 418.504 285.124 418.924C284.732 419.344 284.536 419.955 284.536 420.758V425H283.262V417.328H284.536V418.42C284.788 418.028 285.128 417.725 285.558 417.51C285.996 417.295 286.477 417.188 287 417.188ZM295.381 417.202C296.043 417.202 296.622 417.347 297.117 417.636C297.621 417.925 297.994 418.289 298.237 418.728V417.328H299.525V425.168C299.525 425.868 299.375 426.489 299.077 427.03C298.778 427.581 298.349 428.01 297.789 428.318C297.238 428.626 296.594 428.78 295.857 428.78C294.849 428.78 294.009 428.542 293.337 428.066C292.665 427.59 292.268 426.941 292.147 426.12H293.407C293.547 426.587 293.836 426.96 294.275 427.24C294.713 427.529 295.241 427.674 295.857 427.674C296.557 427.674 297.126 427.455 297.565 427.016C298.013 426.577 298.237 425.961 298.237 425.168V423.558C297.985 424.006 297.611 424.379 297.117 424.678C296.622 424.977 296.043 425.126 295.381 425.126C294.699 425.126 294.079 424.958 293.519 424.622C292.968 424.286 292.534 423.815 292.217 423.208C291.899 422.601 291.741 421.911 291.741 421.136C291.741 420.352 291.899 419.666 292.217 419.078C292.534 418.481 292.968 418.019 293.519 417.692C294.079 417.365 294.699 417.202 295.381 417.202ZM298.237 421.15C298.237 420.571 298.12 420.067 297.887 419.638C297.653 419.209 297.336 418.882 296.935 418.658C296.543 418.425 296.109 418.308 295.633 418.308C295.157 418.308 294.723 418.42 294.331 418.644C293.939 418.868 293.626 419.195 293.393 419.624C293.159 420.053 293.043 420.557 293.043 421.136C293.043 421.724 293.159 422.237 293.393 422.676C293.626 423.105 293.939 423.437 294.331 423.67C294.723 423.894 295.157 424.006 295.633 424.006C296.109 424.006 296.543 423.894 296.935 423.67C297.336 423.437 297.653 423.105 297.887 422.676C298.12 422.237 298.237 421.729 298.237 421.15ZM312.928 415.242V425H311.654V420.576H306.684V425H305.41V415.242H306.684V419.526H311.654V415.242H312.928ZM314.627 421.136C314.627 420.352 314.786 419.666 315.103 419.078C315.421 418.481 315.855 418.019 316.405 417.692C316.965 417.365 317.586 417.202 318.267 417.202C318.939 417.202 319.523 417.347 320.017 417.636C320.512 417.925 320.881 418.289 321.123 418.728V417.328H322.411V425H321.123V423.572C320.871 424.02 320.493 424.393 319.989 424.692C319.495 424.981 318.916 425.126 318.253 425.126C317.572 425.126 316.956 424.958 316.405 424.622C315.855 424.286 315.421 423.815 315.103 423.208C314.786 422.601 314.627 421.911 314.627 421.136ZM321.123 421.15C321.123 420.571 321.007 420.067 320.773 419.638C320.54 419.209 320.223 418.882 319.821 418.658C319.429 418.425 318.995 418.308 318.519 418.308C318.043 418.308 317.609 418.42 317.217 418.644C316.825 418.868 316.513 419.195 316.279 419.624C316.046 420.053 315.929 420.557 315.929 421.136C315.929 421.724 316.046 422.237 316.279 422.676C316.513 423.105 316.825 423.437 317.217 423.67C317.609 423.894 318.043 424.006 318.519 424.006C318.995 424.006 319.429 423.894 319.821 423.67C320.223 423.437 320.54 423.105 320.773 422.676C321.007 422.237 321.123 421.729 321.123 421.15ZM325.838 418.756C326.1 418.299 326.482 417.925 326.986 417.636C327.49 417.347 328.064 417.202 328.708 417.202C329.399 417.202 330.02 417.365 330.57 417.692C331.121 418.019 331.555 418.481 331.872 419.078C332.19 419.666 332.348 420.352 332.348 421.136C332.348 421.911 332.19 422.601 331.872 423.208C331.555 423.815 331.116 424.286 330.556 424.622C330.006 424.958 329.39 425.126 328.708 425.126C328.046 425.126 327.462 424.981 326.958 424.692C326.464 424.403 326.09 424.034 325.838 423.586V425H324.564V414.64H325.838V418.756ZM331.046 421.136C331.046 420.557 330.93 420.053 330.696 419.624C330.463 419.195 330.146 418.868 329.744 418.644C329.352 418.42 328.918 418.308 328.442 418.308C327.976 418.308 327.542 418.425 327.14 418.658C326.748 418.882 326.431 419.213 326.188 419.652C325.955 420.081 325.838 420.581 325.838 421.15C325.838 421.729 325.955 422.237 326.188 422.676C326.431 423.105 326.748 423.437 327.14 423.67C327.542 423.894 327.976 424.006 328.442 424.006C328.918 424.006 329.352 423.894 329.744 423.67C330.146 423.437 330.463 423.105 330.696 422.676C330.93 422.237 331.046 421.724 331.046 421.136ZM334.683 416.082C334.441 416.082 334.235 415.998 334.067 415.83C333.899 415.662 333.815 415.457 333.815 415.214C333.815 414.971 333.899 414.766 334.067 414.598C334.235 414.43 334.441 414.346 334.683 414.346C334.917 414.346 335.113 414.43 335.271 414.598C335.439 414.766 335.523 414.971 335.523 415.214C335.523 415.457 335.439 415.662 335.271 415.83C335.113 415.998 334.917 416.082 334.683 416.082ZM335.299 417.328V425H334.025V417.328H335.299ZM339.025 418.378V422.9C339.025 423.273 339.104 423.539 339.263 423.698C339.421 423.847 339.697 423.922 340.089 423.922H341.027V425H339.879C339.169 425 338.637 424.837 338.283 424.51C337.928 424.183 337.751 423.647 337.751 422.9V418.378H336.757V417.328H337.751V415.396H339.025V417.328H341.027V418.378H339.025ZM345.286 425.126C344.698 425.126 344.171 425.028 343.704 424.832C343.238 424.627 342.869 424.347 342.598 423.992C342.328 423.628 342.178 423.213 342.15 422.746H343.466C343.504 423.129 343.681 423.441 343.998 423.684C344.325 423.927 344.75 424.048 345.272 424.048C345.758 424.048 346.14 423.941 346.42 423.726C346.7 423.511 346.84 423.241 346.84 422.914C346.84 422.578 346.691 422.331 346.392 422.172C346.094 422.004 345.632 421.841 345.006 421.682C344.437 421.533 343.97 421.383 343.606 421.234C343.252 421.075 342.944 420.847 342.682 420.548C342.43 420.24 342.304 419.839 342.304 419.344C342.304 418.952 342.421 418.593 342.654 418.266C342.888 417.939 343.219 417.683 343.648 417.496C344.078 417.3 344.568 417.202 345.118 417.202C345.968 417.202 346.654 417.417 347.176 417.846C347.699 418.275 347.979 418.863 348.016 419.61H346.742C346.714 419.209 346.551 418.887 346.252 418.644C345.963 418.401 345.571 418.28 345.076 418.28C344.619 418.28 344.255 418.378 343.984 418.574C343.714 418.77 343.578 419.027 343.578 419.344C343.578 419.596 343.658 419.806 343.816 419.974C343.984 420.133 344.19 420.263 344.432 420.366C344.684 420.459 345.03 420.567 345.468 420.688C346.019 420.837 346.467 420.987 346.812 421.136C347.158 421.276 347.452 421.491 347.694 421.78C347.946 422.069 348.077 422.447 348.086 422.914C348.086 423.334 347.97 423.712 347.736 424.048C347.503 424.384 347.172 424.65 346.742 424.846C346.322 425.033 345.837 425.126 345.286 425.126Z" fill="black"/>
</g>
<g filter="url(#filter4_d_1415_24664)">
<rect x="254" y="442" width="100" height="24" rx="5" fill="#DADADA"/>
<path d="M263.738 459.098C263.094 459.098 262.516 458.986 262.002 458.762C261.498 458.529 261.102 458.211 260.812 457.81C260.523 457.399 260.374 456.928 260.364 456.396H261.722C261.769 456.853 261.956 457.241 262.282 457.558C262.618 457.866 263.104 458.02 263.738 458.02C264.345 458.02 264.821 457.871 265.166 457.572C265.521 457.264 265.698 456.872 265.698 456.396C265.698 456.023 265.596 455.719 265.39 455.486C265.185 455.253 264.928 455.075 264.62 454.954C264.312 454.833 263.897 454.702 263.374 454.562C262.73 454.394 262.212 454.226 261.82 454.058C261.438 453.89 261.106 453.629 260.826 453.274C260.556 452.91 260.42 452.425 260.42 451.818C260.42 451.286 260.556 450.815 260.826 450.404C261.097 449.993 261.475 449.676 261.96 449.452C262.455 449.228 263.02 449.116 263.654 449.116C264.569 449.116 265.316 449.345 265.894 449.802C266.482 450.259 266.814 450.866 266.888 451.622H265.488C265.442 451.249 265.246 450.922 264.9 450.642C264.555 450.353 264.098 450.208 263.528 450.208C262.996 450.208 262.562 450.348 262.226 450.628C261.89 450.899 261.722 451.281 261.722 451.776C261.722 452.131 261.82 452.42 262.016 452.644C262.222 452.868 262.469 453.041 262.758 453.162C263.057 453.274 263.472 453.405 264.004 453.554C264.648 453.731 265.166 453.909 265.558 454.086C265.95 454.254 266.286 454.52 266.566 454.884C266.846 455.239 266.986 455.724 266.986 456.34C266.986 456.816 266.86 457.264 266.608 457.684C266.356 458.104 265.983 458.445 265.488 458.706C264.994 458.967 264.41 459.098 263.738 459.098ZM272.207 459.126C271.489 459.126 270.835 458.963 270.247 458.636C269.669 458.309 269.211 457.847 268.875 457.25C268.549 456.643 268.385 455.943 268.385 455.15C268.385 454.366 268.553 453.675 268.889 453.078C269.235 452.471 269.701 452.009 270.289 451.692C270.877 451.365 271.535 451.202 272.263 451.202C272.991 451.202 273.649 451.365 274.237 451.692C274.825 452.009 275.287 452.467 275.623 453.064C275.969 453.661 276.141 454.357 276.141 455.15C276.141 455.943 275.964 456.643 275.609 457.25C275.264 457.847 274.793 458.309 274.195 458.636C273.598 458.963 272.935 459.126 272.207 459.126ZM272.207 458.006C272.665 458.006 273.094 457.899 273.495 457.684C273.897 457.469 274.219 457.147 274.461 456.718C274.713 456.289 274.839 455.766 274.839 455.15C274.839 454.534 274.718 454.011 274.475 453.582C274.233 453.153 273.915 452.835 273.523 452.63C273.131 452.415 272.707 452.308 272.249 452.308C271.783 452.308 271.353 452.415 270.961 452.63C270.579 452.835 270.271 453.153 270.037 453.582C269.804 454.011 269.687 454.534 269.687 455.15C269.687 455.775 269.799 456.303 270.023 456.732C270.257 457.161 270.565 457.483 270.947 457.698C271.33 457.903 271.75 458.006 272.207 458.006ZM277.34 455.15C277.34 454.357 277.499 453.666 277.816 453.078C278.134 452.481 278.572 452.019 279.132 451.692C279.702 451.365 280.35 451.202 281.078 451.202C282.021 451.202 282.796 451.431 283.402 451.888C284.018 452.345 284.424 452.98 284.62 453.792H283.248C283.118 453.325 282.861 452.957 282.478 452.686C282.105 452.415 281.638 452.28 281.078 452.28C280.35 452.28 279.762 452.532 279.314 453.036C278.866 453.531 278.642 454.235 278.642 455.15C278.642 456.074 278.866 456.788 279.314 457.292C279.762 457.796 280.35 458.048 281.078 458.048C281.638 458.048 282.105 457.917 282.478 457.656C282.852 457.395 283.108 457.021 283.248 456.536H284.62C284.415 457.32 284.004 457.95 283.388 458.426C282.772 458.893 282.002 459.126 281.078 459.126C280.35 459.126 279.702 458.963 279.132 458.636C278.572 458.309 278.134 457.847 277.816 457.25C277.499 456.653 277.34 455.953 277.34 455.15ZM286.978 450.082C286.736 450.082 286.53 449.998 286.362 449.83C286.194 449.662 286.11 449.457 286.11 449.214C286.11 448.971 286.194 448.766 286.362 448.598C286.53 448.43 286.736 448.346 286.978 448.346C287.212 448.346 287.408 448.43 287.566 448.598C287.734 448.766 287.818 448.971 287.818 449.214C287.818 449.457 287.734 449.662 287.566 449.83C287.408 449.998 287.212 450.082 286.978 450.082ZM287.594 451.328V459H286.32V451.328H287.594ZM289.29 455.136C289.29 454.352 289.448 453.666 289.766 453.078C290.083 452.481 290.517 452.019 291.068 451.692C291.628 451.365 292.248 451.202 292.93 451.202C293.602 451.202 294.185 451.347 294.68 451.636C295.174 451.925 295.543 452.289 295.786 452.728V451.328H297.074V459H295.786V457.572C295.534 458.02 295.156 458.393 294.652 458.692C294.157 458.981 293.578 459.126 292.916 459.126C292.234 459.126 291.618 458.958 291.068 458.622C290.517 458.286 290.083 457.815 289.766 457.208C289.448 456.601 289.29 455.911 289.29 455.136ZM295.786 455.15C295.786 454.571 295.669 454.067 295.436 453.638C295.202 453.209 294.885 452.882 294.484 452.658C294.092 452.425 293.658 452.308 293.182 452.308C292.706 452.308 292.272 452.42 291.88 452.644C291.488 452.868 291.175 453.195 290.942 453.624C290.708 454.053 290.592 454.557 290.592 455.136C290.592 455.724 290.708 456.237 290.942 456.676C291.175 457.105 291.488 457.437 291.88 457.67C292.272 457.894 292.706 458.006 293.182 458.006C293.658 458.006 294.092 457.894 294.484 457.67C294.885 457.437 295.202 457.105 295.436 456.676C295.669 456.237 295.786 455.729 295.786 455.15ZM300.5 448.64V459H299.226V448.64H300.5ZM316.302 449.312V459H315.028V451.776L311.808 459H310.912L307.678 451.762V459H306.404V449.312H307.776L311.36 457.32L314.944 449.312H316.302ZM325.463 454.87C325.463 455.113 325.449 455.369 325.421 455.64H319.289C319.335 456.396 319.592 456.989 320.059 457.418C320.535 457.838 321.109 458.048 321.781 458.048C322.331 458.048 322.789 457.922 323.153 457.67C323.526 457.409 323.787 457.063 323.937 456.634H325.309C325.103 457.371 324.693 457.973 324.077 458.44C323.461 458.897 322.695 459.126 321.781 459.126C321.053 459.126 320.399 458.963 319.821 458.636C319.251 458.309 318.803 457.847 318.477 457.25C318.15 456.643 317.987 455.943 317.987 455.15C317.987 454.357 318.145 453.661 318.463 453.064C318.78 452.467 319.223 452.009 319.793 451.692C320.371 451.365 321.034 451.202 321.781 451.202C322.509 451.202 323.153 451.361 323.713 451.678C324.273 451.995 324.702 452.434 325.001 452.994C325.309 453.545 325.463 454.17 325.463 454.87ZM324.147 454.604C324.147 454.119 324.039 453.703 323.825 453.358C323.61 453.003 323.316 452.737 322.943 452.56C322.579 452.373 322.173 452.28 321.725 452.28C321.081 452.28 320.53 452.485 320.073 452.896C319.625 453.307 319.368 453.876 319.303 454.604H324.147ZM326.668 455.136C326.668 454.352 326.827 453.666 327.144 453.078C327.462 452.481 327.896 452.019 328.446 451.692C329.006 451.365 329.632 451.202 330.322 451.202C330.92 451.202 331.475 451.342 331.988 451.622C332.502 451.893 332.894 452.252 333.164 452.7V448.64H334.452V459H333.164V457.558C332.912 458.015 332.539 458.393 332.044 458.692C331.55 458.981 330.971 459.126 330.308 459.126C329.627 459.126 329.006 458.958 328.446 458.622C327.896 458.286 327.462 457.815 327.144 457.208C326.827 456.601 326.668 455.911 326.668 455.136ZM333.164 455.15C333.164 454.571 333.048 454.067 332.814 453.638C332.581 453.209 332.264 452.882 331.862 452.658C331.47 452.425 331.036 452.308 330.56 452.308C330.084 452.308 329.65 452.42 329.258 452.644C328.866 452.868 328.554 453.195 328.32 453.624C328.087 454.053 327.97 454.557 327.97 455.136C327.97 455.724 328.087 456.237 328.32 456.676C328.554 457.105 328.866 457.437 329.258 457.67C329.65 457.894 330.084 458.006 330.56 458.006C331.036 458.006 331.47 457.894 331.862 457.67C332.264 457.437 332.581 457.105 332.814 456.676C333.048 456.237 333.164 455.729 333.164 455.15ZM337.263 450.082C337.021 450.082 336.815 449.998 336.647 449.83C336.479 449.662 336.395 449.457 336.395 449.214C336.395 448.971 336.479 448.766 336.647 448.598C336.815 448.43 337.021 448.346 337.263 448.346C337.497 448.346 337.693 448.43 337.851 448.598C338.019 448.766 338.103 448.971 338.103 449.214C338.103 449.457 338.019 449.662 337.851 449.83C337.693 449.998 337.497 450.082 337.263 450.082ZM337.879 451.328V459H336.605V451.328H337.879ZM339.575 455.136C339.575 454.352 339.733 453.666 340.051 453.078C340.368 452.481 340.802 452.019 341.353 451.692C341.913 451.365 342.533 451.202 343.215 451.202C343.887 451.202 344.47 451.347 344.965 451.636C345.459 451.925 345.828 452.289 346.071 452.728V451.328H347.359V459H346.071V457.572C345.819 458.02 345.441 458.393 344.937 458.692C344.442 458.981 343.863 459.126 343.201 459.126C342.519 459.126 341.903 458.958 341.353 458.622C340.802 458.286 340.368 457.815 340.051 457.208C339.733 456.601 339.575 455.911 339.575 455.136ZM346.071 455.15C346.071 454.571 345.954 454.067 345.721 453.638C345.487 453.209 345.17 452.882 344.769 452.658C344.377 452.425 343.943 452.308 343.467 452.308C342.991 452.308 342.557 452.42 342.165 452.644C341.773 452.868 341.46 453.195 341.227 453.624C340.993 454.053 340.877 454.557 340.877 455.136C340.877 455.724 340.993 456.237 341.227 456.676C341.46 457.105 341.773 457.437 342.165 457.67C342.557 457.894 342.991 458.006 343.467 458.006C343.943 458.006 344.377 457.894 344.769 457.67C345.17 457.437 345.487 457.105 345.721 456.676C345.954 456.237 346.071 455.729 346.071 455.15Z" fill="black"/>
</g>
<g filter="url(#filter5_d_1415_24664)">
<rect x="256" y="476" width="98" height="24" rx="5" fill="#DADADA"/>
<path d="M263.352 484.278V487.54H266.908V488.59H263.352V491.95H267.328V493H262.078V483.228H267.328V484.278H263.352ZM272.994 485.188C273.927 485.188 274.683 485.473 275.262 486.042C275.84 486.602 276.13 487.414 276.13 488.478V493H274.87V488.66C274.87 487.895 274.678 487.311 274.296 486.91C273.913 486.499 273.39 486.294 272.728 486.294C272.056 486.294 271.519 486.504 271.118 486.924C270.726 487.344 270.53 487.955 270.53 488.758V493H269.256V485.328H270.53V486.42C270.782 486.028 271.122 485.725 271.552 485.51C271.99 485.295 272.471 485.188 272.994 485.188ZM281.067 491.824L283.447 485.328H284.805L281.795 493H280.311L277.301 485.328H278.673L281.067 491.824ZM286.716 484.082C286.474 484.082 286.268 483.998 286.1 483.83C285.932 483.662 285.848 483.457 285.848 483.214C285.848 482.971 285.932 482.766 286.1 482.598C286.268 482.43 286.474 482.346 286.716 482.346C286.95 482.346 287.146 482.43 287.304 482.598C287.472 482.766 287.556 482.971 287.556 483.214C287.556 483.457 287.472 483.662 287.304 483.83C287.146 483.998 286.95 484.082 286.716 484.082ZM287.332 485.328V493H286.058V485.328H287.332ZM290.778 486.574C291.002 486.135 291.319 485.795 291.73 485.552C292.15 485.309 292.658 485.188 293.256 485.188V486.504H292.92C291.492 486.504 290.778 487.279 290.778 488.828V493H289.504V485.328H290.778V486.574ZM298.072 493.126C297.354 493.126 296.7 492.963 296.112 492.636C295.534 492.309 295.076 491.847 294.74 491.25C294.414 490.643 294.25 489.943 294.25 489.15C294.25 488.366 294.418 487.675 294.754 487.078C295.1 486.471 295.566 486.009 296.154 485.692C296.742 485.365 297.4 485.202 298.128 485.202C298.856 485.202 299.514 485.365 300.102 485.692C300.69 486.009 301.152 486.467 301.488 487.064C301.834 487.661 302.006 488.357 302.006 489.15C302.006 489.943 301.829 490.643 301.474 491.25C301.129 491.847 300.658 492.309 300.06 492.636C299.463 492.963 298.8 493.126 298.072 493.126ZM298.072 492.006C298.53 492.006 298.959 491.899 299.36 491.684C299.762 491.469 300.084 491.147 300.326 490.718C300.578 490.289 300.704 489.766 300.704 489.15C300.704 488.534 300.583 488.011 300.34 487.582C300.098 487.153 299.78 486.835 299.388 486.63C298.996 486.415 298.572 486.308 298.114 486.308C297.648 486.308 297.218 486.415 296.826 486.63C296.444 486.835 296.136 487.153 295.902 487.582C295.669 488.011 295.552 488.534 295.552 489.15C295.552 489.775 295.664 490.303 295.888 490.732C296.122 491.161 296.43 491.483 296.812 491.698C297.195 491.903 297.615 492.006 298.072 492.006ZM307.42 485.188C308.353 485.188 309.109 485.473 309.688 486.042C310.266 486.602 310.556 487.414 310.556 488.478V493H309.296V488.66C309.296 487.895 309.104 487.311 308.722 486.91C308.339 486.499 307.816 486.294 307.154 486.294C306.482 486.294 305.945 486.504 305.544 486.924C305.152 487.344 304.956 487.955 304.956 488.758V493H303.682V485.328H304.956V486.42C305.208 486.028 305.548 485.725 305.978 485.51C306.416 485.295 306.897 485.188 307.42 485.188ZM321.863 485.188C322.46 485.188 322.992 485.314 323.459 485.566C323.925 485.809 324.294 486.177 324.565 486.672C324.835 487.167 324.971 487.769 324.971 488.478V493H323.711V488.66C323.711 487.895 323.519 487.311 323.137 486.91C322.763 486.499 322.255 486.294 321.611 486.294C320.948 486.294 320.421 486.509 320.029 486.938C319.637 487.358 319.441 487.969 319.441 488.772V493H318.181V488.66C318.181 487.895 317.989 487.311 317.607 486.91C317.233 486.499 316.725 486.294 316.081 486.294C315.418 486.294 314.891 486.509 314.499 486.938C314.107 487.358 313.911 487.969 313.911 488.772V493H312.637V485.328H313.911V486.434C314.163 486.033 314.499 485.725 314.919 485.51C315.348 485.295 315.819 485.188 316.333 485.188C316.977 485.188 317.546 485.333 318.041 485.622C318.535 485.911 318.904 486.336 319.147 486.896C319.361 486.355 319.716 485.935 320.211 485.636C320.705 485.337 321.256 485.188 321.863 485.188ZM334.06 488.87C334.06 489.113 334.046 489.369 334.018 489.64H327.886C327.933 490.396 328.19 490.989 328.656 491.418C329.132 491.838 329.706 492.048 330.378 492.048C330.929 492.048 331.386 491.922 331.75 491.67C332.124 491.409 332.385 491.063 332.534 490.634H333.906C333.701 491.371 333.29 491.973 332.674 492.44C332.058 492.897 331.293 493.126 330.378 493.126C329.65 493.126 328.997 492.963 328.418 492.636C327.849 492.309 327.401 491.847 327.074 491.25C326.748 490.643 326.584 489.943 326.584 489.15C326.584 488.357 326.743 487.661 327.06 487.064C327.378 486.467 327.821 486.009 328.39 485.692C328.969 485.365 329.632 485.202 330.378 485.202C331.106 485.202 331.75 485.361 332.31 485.678C332.87 485.995 333.3 486.434 333.598 486.994C333.906 487.545 334.06 488.17 334.06 488.87ZM332.744 488.604C332.744 488.119 332.637 487.703 332.422 487.358C332.208 487.003 331.914 486.737 331.54 486.56C331.176 486.373 330.77 486.28 330.322 486.28C329.678 486.28 329.128 486.485 328.67 486.896C328.222 487.307 327.966 487.876 327.9 488.604H332.744ZM339.48 485.188C340.413 485.188 341.169 485.473 341.748 486.042C342.327 486.602 342.616 487.414 342.616 488.478V493H341.356V488.66C341.356 487.895 341.165 487.311 340.782 486.91C340.399 486.499 339.877 486.294 339.214 486.294C338.542 486.294 338.005 486.504 337.604 486.924C337.212 487.344 337.016 487.955 337.016 488.758V493H335.742V485.328H337.016V486.42C337.268 486.028 337.609 485.725 338.038 485.51C338.477 485.295 338.957 485.188 339.48 485.188ZM346.251 486.378V490.9C346.251 491.273 346.33 491.539 346.489 491.698C346.648 491.847 346.923 491.922 347.315 491.922H348.253V493H347.105C346.396 493 345.864 492.837 345.509 492.51C345.154 492.183 344.977 491.647 344.977 490.9V486.378H343.983V485.328H344.977V483.396H346.251V485.328H348.253V486.378H346.251Z" fill="black"/>
</g>
<g filter="url(#filter6_d_1415_24664)">
<rect x="279" y="510" width="75" height="24" rx="5" fill="#DADADA"/>
<path d="M295.409 517.312V527H294.135V519.776L290.915 527H290.019L286.785 519.762V527H285.511V517.312H286.883L290.467 525.32L294.051 517.312H295.409ZM304.569 522.87C304.569 523.113 304.555 523.369 304.527 523.64H298.395C298.442 524.396 298.699 524.989 299.165 525.418C299.641 525.838 300.215 526.048 300.887 526.048C301.438 526.048 301.895 525.922 302.259 525.67C302.633 525.409 302.894 525.063 303.043 524.634H304.415C304.21 525.371 303.799 525.973 303.183 526.44C302.567 526.897 301.802 527.126 300.887 527.126C300.159 527.126 299.506 526.963 298.927 526.636C298.358 526.309 297.91 525.847 297.583 525.25C297.257 524.643 297.093 523.943 297.093 523.15C297.093 522.357 297.252 521.661 297.569 521.064C297.887 520.467 298.33 520.009 298.899 519.692C299.478 519.365 300.141 519.202 300.887 519.202C301.615 519.202 302.259 519.361 302.819 519.678C303.379 519.995 303.809 520.434 304.107 520.994C304.415 521.545 304.569 522.17 304.569 522.87ZM303.253 522.604C303.253 522.119 303.146 521.703 302.931 521.358C302.717 521.003 302.423 520.737 302.049 520.56C301.685 520.373 301.279 520.28 300.831 520.28C300.187 520.28 299.637 520.485 299.179 520.896C298.731 521.307 298.475 521.876 298.409 522.604H303.253ZM309.989 519.188C310.922 519.188 311.678 519.473 312.257 520.042C312.836 520.602 313.125 521.414 313.125 522.478V527H311.865V522.66C311.865 521.895 311.674 521.311 311.291 520.91C310.908 520.499 310.386 520.294 309.723 520.294C309.051 520.294 308.514 520.504 308.113 520.924C307.721 521.344 307.525 521.955 307.525 522.758V527H306.251V519.328H307.525V520.42C307.777 520.028 308.118 519.725 308.547 519.51C308.986 519.295 309.466 519.188 309.989 519.188ZM316.76 520.378V524.9C316.76 525.273 316.839 525.539 316.998 525.698C317.157 525.847 317.432 525.922 317.824 525.922H318.762V527H317.614C316.905 527 316.373 526.837 316.018 526.51C315.663 526.183 315.486 525.647 315.486 524.9V520.378H314.492V519.328H315.486V517.396H316.76V519.328H318.762V520.378H316.76ZM319.83 523.136C319.83 522.352 319.988 521.666 320.306 521.078C320.623 520.481 321.057 520.019 321.608 519.692C322.168 519.365 322.788 519.202 323.47 519.202C324.142 519.202 324.725 519.347 325.22 519.636C325.714 519.925 326.083 520.289 326.326 520.728V519.328H327.614V527H326.326V525.572C326.074 526.02 325.696 526.393 325.192 526.692C324.697 526.981 324.118 527.126 323.456 527.126C322.774 527.126 322.158 526.958 321.608 526.622C321.057 526.286 320.623 525.815 320.306 525.208C319.988 524.601 319.83 523.911 319.83 523.136ZM326.326 523.15C326.326 522.571 326.209 522.067 325.976 521.638C325.742 521.209 325.425 520.882 325.024 520.658C324.632 520.425 324.198 520.308 323.722 520.308C323.246 520.308 322.812 520.42 322.42 520.644C322.028 520.868 321.715 521.195 321.482 521.624C321.248 522.053 321.132 522.557 321.132 523.136C321.132 523.724 321.248 524.237 321.482 524.676C321.715 525.105 322.028 525.437 322.42 525.67C322.812 525.894 323.246 526.006 323.722 526.006C324.198 526.006 324.632 525.894 325.024 525.67C325.425 525.437 325.742 525.105 325.976 524.676C326.209 524.237 326.326 523.729 326.326 523.15ZM331.04 516.64V527H329.766V516.64H331.04ZM333.87 518.082C333.627 518.082 333.422 517.998 333.254 517.83C333.086 517.662 333.002 517.457 333.002 517.214C333.002 516.971 333.086 516.766 333.254 516.598C333.422 516.43 333.627 516.346 333.87 516.346C334.103 516.346 334.299 516.43 334.458 516.598C334.626 516.766 334.71 516.971 334.71 517.214C334.71 517.457 334.626 517.662 334.458 517.83C334.299 517.998 334.103 518.082 333.87 518.082ZM334.486 519.328V527H333.212V519.328H334.486ZM338.211 520.378V524.9C338.211 525.273 338.29 525.539 338.449 525.698C338.608 525.847 338.883 525.922 339.275 525.922H340.213V527H339.065C338.356 527 337.824 526.837 337.469 526.51C337.114 526.183 336.937 525.647 336.937 524.9V520.378H335.943V519.328H336.937V517.396H338.211V519.328H340.213V520.378H338.211ZM348.365 519.328L343.745 530.612H342.429L343.941 526.916L340.847 519.328H342.261L344.669 525.544L347.049 519.328H348.365Z" fill="black"/>
</g>
<g filter="url(#filter7_d_1415_24664)">
<rect x="304" y="544" width="50" height="24" rx="5" fill="#DADADA"/>
<path d="M313.929 561.098C313.285 561.098 312.706 560.986 312.193 560.762C311.689 560.529 311.292 560.211 311.003 559.81C310.714 559.399 310.564 558.928 310.555 558.396H311.913C311.96 558.853 312.146 559.241 312.473 559.558C312.809 559.866 313.294 560.02 313.929 560.02C314.536 560.02 315.012 559.871 315.357 559.572C315.712 559.264 315.889 558.872 315.889 558.396C315.889 558.023 315.786 557.719 315.581 557.486C315.376 557.253 315.119 557.075 314.811 556.954C314.503 556.833 314.088 556.702 313.565 556.562C312.921 556.394 312.403 556.226 312.011 556.058C311.628 555.89 311.297 555.629 311.017 555.274C310.746 554.91 310.611 554.425 310.611 553.818C310.611 553.286 310.746 552.815 311.017 552.404C311.288 551.993 311.666 551.676 312.151 551.452C312.646 551.228 313.21 551.116 313.845 551.116C314.76 551.116 315.506 551.345 316.085 551.802C316.673 552.259 317.004 552.866 317.079 553.622H315.679C315.632 553.249 315.436 552.922 315.091 552.642C314.746 552.353 314.288 552.208 313.719 552.208C313.187 552.208 312.753 552.348 312.417 552.628C312.081 552.899 311.913 553.281 311.913 553.776C311.913 554.131 312.011 554.42 312.207 554.644C312.412 554.868 312.66 555.041 312.949 555.162C313.248 555.274 313.663 555.405 314.195 555.554C314.839 555.731 315.357 555.909 315.749 556.086C316.141 556.254 316.477 556.52 316.757 556.884C317.037 557.239 317.177 557.724 317.177 558.34C317.177 558.816 317.051 559.264 316.799 559.684C316.547 560.104 316.174 560.445 315.679 560.706C315.184 560.967 314.601 561.098 313.929 561.098ZM320.326 550.64V561H319.052V550.64H320.326ZM329.497 556.87C329.497 557.113 329.483 557.369 329.455 557.64H323.323C323.37 558.396 323.626 558.989 324.093 559.418C324.569 559.838 325.143 560.048 325.815 560.048C326.366 560.048 326.823 559.922 327.187 559.67C327.56 559.409 327.822 559.063 327.971 558.634H329.343C329.138 559.371 328.727 559.973 328.111 560.44C327.495 560.897 326.73 561.126 325.815 561.126C325.087 561.126 324.434 560.963 323.855 560.636C323.286 560.309 322.838 559.847 322.511 559.25C322.184 558.643 322.021 557.943 322.021 557.15C322.021 556.357 322.18 555.661 322.497 555.064C322.814 554.467 323.258 554.009 323.827 553.692C324.406 553.365 325.068 553.202 325.815 553.202C326.543 553.202 327.187 553.361 327.747 553.678C328.307 553.995 328.736 554.434 329.035 554.994C329.343 555.545 329.497 556.17 329.497 556.87ZM328.181 556.604C328.181 556.119 328.074 555.703 327.859 555.358C327.644 555.003 327.35 554.737 326.977 554.56C326.613 554.373 326.207 554.28 325.759 554.28C325.115 554.28 324.564 554.485 324.107 554.896C323.659 555.307 323.402 555.876 323.337 556.604H328.181ZM338.179 556.87C338.179 557.113 338.165 557.369 338.137 557.64H332.005C332.051 558.396 332.308 558.989 332.775 559.418C333.251 559.838 333.825 560.048 334.497 560.048C335.047 560.048 335.505 559.922 335.869 559.67C336.242 559.409 336.503 559.063 336.653 558.634H338.025C337.819 559.371 337.409 559.973 336.793 560.44C336.177 560.897 335.411 561.126 334.497 561.126C333.769 561.126 333.115 560.963 332.537 560.636C331.967 560.309 331.519 559.847 331.193 559.25C330.866 558.643 330.703 557.943 330.703 557.15C330.703 556.357 330.861 555.661 331.179 555.064C331.496 554.467 331.939 554.009 332.509 553.692C333.087 553.365 333.75 553.202 334.497 553.202C335.225 553.202 335.869 553.361 336.429 553.678C336.989 553.995 337.418 554.434 337.717 554.994C338.025 555.545 338.179 556.17 338.179 556.87ZM336.863 556.604C336.863 556.119 336.755 555.703 336.541 555.358C336.326 555.003 336.032 554.737 335.659 554.56C335.295 554.373 334.889 554.28 334.441 554.28C333.797 554.28 333.246 554.485 332.789 554.896C332.341 555.307 332.084 555.876 332.019 556.604H336.863ZM341.134 554.742C341.386 554.303 341.76 553.939 342.254 553.65C342.758 553.351 343.342 553.202 344.004 553.202C344.686 553.202 345.302 553.365 345.852 553.692C346.412 554.019 346.851 554.481 347.168 555.078C347.486 555.666 347.644 556.352 347.644 557.136C347.644 557.911 347.486 558.601 347.168 559.208C346.851 559.815 346.412 560.286 345.852 560.622C345.302 560.958 344.686 561.126 344.004 561.126C343.351 561.126 342.772 560.981 342.268 560.692C341.774 560.393 341.396 560.025 341.134 559.586V564.64H339.86V553.328H341.134V554.742ZM346.342 557.136C346.342 556.557 346.226 556.053 345.992 555.624C345.759 555.195 345.442 554.868 345.04 554.644C344.648 554.42 344.214 554.308 343.738 554.308C343.272 554.308 342.838 554.425 342.436 554.658C342.044 554.882 341.727 555.213 341.484 555.652C341.251 556.081 341.134 556.581 341.134 557.15C341.134 557.729 341.251 558.237 341.484 558.676C341.727 559.105 342.044 559.437 342.436 559.67C342.838 559.894 343.272 560.006 343.738 560.006C344.214 560.006 344.648 559.894 345.04 559.67C345.442 559.437 345.759 559.105 345.992 558.676C346.226 558.237 346.342 557.724 346.342 557.136Z" fill="black"/>
</g>
<path d="M327.077 233.834C327.077 232.229 327.338 230.978 327.861 230.082C328.384 229.177 329.298 228.724 330.605 228.724C331.902 228.724 332.812 229.177 333.335 230.082C333.858 230.978 334.119 232.229 334.119 233.834C334.119 235.467 333.858 236.737 333.335 237.642C332.812 238.547 331.902 239 330.605 239C329.298 239 328.384 238.547 327.861 237.642C327.338 236.737 327.077 235.467 327.077 233.834ZM332.859 233.834C332.859 233.022 332.803 232.336 332.691 231.776C332.588 231.207 332.369 230.749 332.033 230.404C331.706 230.059 331.23 229.886 330.605 229.886C329.97 229.886 329.485 230.059 329.149 230.404C328.822 230.749 328.603 231.207 328.491 231.776C328.388 232.336 328.337 233.022 328.337 233.834C328.337 234.674 328.388 235.379 328.491 235.948C328.603 236.517 328.822 236.975 329.149 237.32C329.485 237.665 329.97 237.838 330.605 237.838C331.23 237.838 331.706 237.665 332.033 237.32C332.369 236.975 332.588 236.517 332.691 235.948C332.803 235.379 332.859 234.674 332.859 233.834Z" fill="black"/>
<path d="M327.077 295.834C327.077 294.229 327.338 292.978 327.861 292.082C328.384 291.177 329.298 290.724 330.605 290.724C331.902 290.724 332.812 291.177 333.335 292.082C333.858 292.978 334.119 294.229 334.119 295.834C334.119 297.467 333.858 298.737 333.335 299.642C332.812 300.547 331.902 301 330.605 301C329.298 301 328.384 300.547 327.861 299.642C327.338 298.737 327.077 297.467 327.077 295.834ZM332.859 295.834C332.859 295.022 332.803 294.336 332.691 293.776C332.588 293.207 332.369 292.749 332.033 292.404C331.706 292.059 331.23 291.886 330.605 291.886C329.97 291.886 329.485 292.059 329.149 292.404C328.822 292.749 328.603 293.207 328.491 293.776C328.388 294.336 328.337 295.022 328.337 295.834C328.337 296.674 328.388 297.379 328.491 297.948C328.603 298.517 328.822 298.975 329.149 299.32C329.485 299.665 329.97 299.838 330.605 299.838C331.23 299.838 331.706 299.665 332.033 299.32C332.369 298.975 332.588 298.517 332.691 297.948C332.803 297.379 332.859 296.674 332.859 295.834Z" fill="black"/>
<path d="M327.077 358.834C327.077 357.229 327.338 355.978 327.861 355.082C328.384 354.177 329.298 353.724 330.605 353.724C331.902 353.724 332.812 354.177 333.335 355.082C333.858 355.978 334.119 357.229 334.119 358.834C334.119 360.467 333.858 361.737 333.335 362.642C332.812 363.547 331.902 364 330.605 364C329.298 364 328.384 363.547 327.861 362.642C327.338 361.737 327.077 360.467 327.077 358.834ZM332.859 358.834C332.859 358.022 332.803 357.336 332.691 356.776C332.588 356.207 332.369 355.749 332.033 355.404C331.706 355.059 331.23 354.886 330.605 354.886C329.97 354.886 329.485 355.059 329.149 355.404C328.822 355.749 328.603 356.207 328.491 356.776C328.388 357.336 328.337 358.022 328.337 358.834C328.337 359.674 328.388 360.379 328.491 360.948C328.603 361.517 328.822 361.975 329.149 362.32C329.485 362.665 329.97 362.838 330.605 362.838C331.23 362.838 331.706 362.665 332.033 362.32C332.369 361.975 332.588 361.517 332.691 360.948C332.803 360.379 332.859 359.674 332.859 358.834Z" fill="black"/>
<g filter="url(#filter8_d_1415_24664)">
<circle cx="326" cy="612" r="29" fill="#C4C4C4"/>
<circle cx="326" cy="612" r="28.5" stroke="black"/>
</g>
<rect x="311.76" y="598.899" width="1.61111" height="38.6667" transform="rotate(-45 311.76 598.899)" fill="black"/>
<rect width="38.6667" height="1.61111" transform="matrix(-0.707107 0.707107 0.707107 0.707107 339.101 597.76)" fill="black"/>
<rect x="0.5" y="0.5" width="374" height="666" stroke="black"/>
<defs>
<filter id="filter0_d_1415_24664" x="16" y="208" width="343" height="60" filterUnits="userSpaceOnUse" color-interpolation-filters="sRGB">
<feFlood flood-opacity="0" result="BackgroundImageFix"/>
<feColorMatrix in="SourceAlpha" type="matrix" values="0 0 0 0 0 0 0 0 0 0 0 0 0 0 0 0 0 0 127 0" result="hardAlpha"/>
<feOffset dy="4"/>
<feGaussianBlur stdDeviation="2"/>
<feComposite in2="hardAlpha" operator="out"/>
<feColorMatrix type="matrix" values="0 0 0 0 0 0 0 0 0 0 0 0 0 0 0 0 0 0 0.25 0"/>
<feBlend mode="normal" in2="BackgroundImageFix" result="effect1_dropShadow_1415_24664"/>
<feBlend mode="normal" in="SourceGraphic" in2="effect1_dropShadow_1415_24664" result="shape"/>
</filter>
<filter id="filter1_d_1415_24664" x="16" y="270" width="343" height="60" filterUnits="userSpaceOnUse" color-interpolation-filters="sRGB">
<feFlood flood-opacity="0" result="BackgroundImageFix"/>
<feColorMatrix in="SourceAlpha" type="matrix" values="0 0 0 0 0 0 0 0 0 0 0 0 0 0 0 0 0 0 127 0" result="hardAlpha"/>
<feOffset dy="4"/>
<feGaussianBlur stdDeviation="2"/>
<feComposite in2="hardAlpha" operator="out"/>
<feColorMatrix type="matrix" values="0 0 0 0 0 0 0 0 0 0 0 0 0 0 0 0 0 0 0.25 0"/>
<feBlend mode="normal" in2="BackgroundImageFix" result="effect1_dropShadow_1415_24664"/>
<feBlend mode="normal" in="SourceGraphic" in2="effect1_dropShadow_1415_24664" result="shape"/>
</filter>
<filter id="filter2_d_1415_24664" x="16" y="333" width="343" height="60" filterUnits="userSpaceOnUse" color-interpolation-filters="sRGB">
<feFlood flood-opacity="0" result="BackgroundImageFix"/>
<feColorMatrix in="SourceAlpha" type="matrix" values="0 0 0 0 0 0 0 0 0 0 0 0 0 0 0 0 0 0 127 0" result="hardAlpha"/>
<feOffset dy="4"/>
<feGaussianBlur stdDeviation="2"/>
<feComposite in2="hardAlpha" operator="out"/>
<feColorMatrix type="matrix" values="0 0 0 0 0 0 0 0 0 0 0 0 0 0 0 0 0 0 0.25 0"/>
<feBlend mode="normal" in2="BackgroundImageFix" result="effect1_dropShadow_1415_24664"/>
<feBlend mode="normal" in="SourceGraphic" in2="effect1_dropShadow_1415_24664" result="shape"/>
</filter>
<filter id="filter3_d_1415_24664" x="248" y="408" width="110" height="32" filterUnits="userSpaceOnUse" color-interpolation-filters="sRGB">
<feFlood flood-opacity="0" result="BackgroundImageFix"/>
<feColorMatrix in="SourceAlpha" type="matrix" values="0 0 0 0 0 0 0 0 0 0 0 0 0 0 0 0 0 0 127 0" result="hardAlpha"/>
<feOffset dy="4"/>
<feGaussianBlur stdDeviation="2"/>
<feComposite in2="hardAlpha" operator="out"/>
<feColorMatrix type="matrix" values="0 0 0 0 0 0 0 0 0 0 0 0 0 0 0 0 0 0 0.25 0"/>
<feBlend mode="normal" in2="BackgroundImageFix" result="effect1_dropShadow_1415_24664"/>
<feBlend mode="normal" in="SourceGraphic" in2="effect1_dropShadow_1415_24664" result="shape"/>
</filter>
<filter id="filter4_d_1415_24664" x="250" y="442" width="108" height="32" filterUnits="userSpaceOnUse" color-interpolation-filters="sRGB">
<feFlood flood-opacity="0" result="BackgroundImageFix"/>
<feColorMatrix in="SourceAlpha" type="matrix" values="0 0 0 0 0 0 0 0 0 0 0 0 0 0 0 0 0 0 127 0" result="hardAlpha"/>
<feOffset dy="4"/>
<feGaussianBlur stdDeviation="2"/>
<feComposite in2="hardAlpha" operator="out"/>
<feColorMatrix type="matrix" values="0 0 0 0 0 0 0 0 0 0 0 0 0 0 0 0 0 0 0.25 0"/>
<feBlend mode="normal" in2="BackgroundImageFix" result="effect1_dropShadow_1415_24664"/>
<feBlend mode="normal" in="SourceGraphic" in2="effect1_dropShadow_1415_24664" result="shape"/>
</filter>
<filter id="filter5_d_1415_24664" x="252" y="476" width="106" height="32" filterUnits="userSpaceOnUse" color-interpolation-filters="sRGB">
<feFlood flood-opacity="0" result="BackgroundImageFix"/>
<feColorMatrix in="SourceAlpha" type="matrix" values="0 0 0 0 0 0 0 0 0 0 0 0 0 0 0 0 0 0 127 0" result="hardAlpha"/>
<feOffset dy="4"/>
<feGaussianBlur stdDeviation="2"/>
<feComposite in2="hardAlpha" operator="out"/>
<feColorMatrix type="matrix" values="0 0 0 0 0 0 0 0 0 0 0 0 0 0 0 0 0 0 0.25 0"/>
<feBlend mode="normal" in2="BackgroundImageFix" result="effect1_dropShadow_1415_24664"/>
<feBlend mode="normal" in="SourceGraphic" in2="effect1_dropShadow_1415_24664" result="shape"/>
</filter>
<filter id="filter6_d_1415_24664" x="275" y="510" width="83" height="32" filterUnits="userSpaceOnUse" color-interpolation-filters="sRGB">
<feFlood flood-opacity="0" result="BackgroundImageFix"/>
<feColorMatrix in="SourceAlpha" type="matrix" values="0 0 0 0 0 0 0 0 0 0 0 0 0 0 0 0 0 0 127 0" result="hardAlpha"/>
<feOffset dy="4"/>
<feGaussianBlur stdDeviation="2"/>
<feComposite in2="hardAlpha" operator="out"/>
<feColorMatrix type="matrix" values="0 0 0 0 0 0 0 0 0 0 0 0 0 0 0 0 0 0 0.25 0"/>
<feBlend mode="normal" in2="BackgroundImageFix" result="effect1_dropShadow_1415_24664"/>
<feBlend mode="normal" in="SourceGraphic" in2="effect1_dropShadow_1415_24664" result="shape"/>
</filter>
<filter id="filter7_d_1415_24664" x="300" y="544" width="58" height="32" filterUnits="userSpaceOnUse" color-interpolation-filters="sRGB">
<feFlood flood-opacity="0" result="BackgroundImageFix"/>
<feColorMatrix in="SourceAlpha" type="matrix" values="0 0 0 0 0 0 0 0 0 0 0 0 0 0 0 0 0 0 127 0" result="hardAlpha"/>
<feOffset dy="4"/>
<feGaussianBlur stdDeviation="2"/>
<feComposite in2="hardAlpha" operator="out"/>
<feColorMatrix type="matrix" values="0 0 0 0 0 0 0 0 0 0 0 0 0 0 0 0 0 0 0.25 0"/>
<feBlend mode="normal" in2="BackgroundImageFix" result="effect1_dropShadow_1415_24664"/>
<feBlend mode="normal" in="SourceGraphic" in2="effect1_dropShadow_1415_24664" result="shape"/>
</filter>
<filter id="filter8_d_1415_24664" x="293" y="583" width="66" height="66" filterUnits="userSpaceOnUse" color-interpolation-filters="sRGB">
<feFlood flood-opacity="0" result="BackgroundImageFix"/>
<feColorMatrix in="SourceAlpha" type="matrix" values="0 0 0 0 0 0 0 0 0 0 0 0 0 0 0 0 0 0 127 0" result="hardAlpha"/>
<feOffset dy="4"/>
<feGaussianBlur stdDeviation="2"/>
<feComposite in2="hardAlpha" operator="out"/>
<feColorMatrix type="matrix" values="0 0 0 0 0 0 0 0 0 0 0 0 0 0 0 0 0 0 0.25 0"/>
<feBlend mode="normal" in2="BackgroundImageFix" result="effect1_dropShadow_1415_24664"/>
<feBlend mode="normal" in="SourceGraphic" in2="effect1_dropShadow_1415_24664" result="shape"/>
</filter>
</defs>
</svg>
